P1
# Created by GIMP version 3.0.4 PNM plug-in
128 64
0000000000000000011111111111111111111111111111111111111111111111111111
1111111111111111111111111111111111111111100000000000000000000000000000
0000110000000000000000000000000000000000000000000000000000000000000000
0000000000000000000000000000110000000000000000000000000000000010000000
0000000000000000000000000000000000000000000000000000000000000000000000
0000000000000000010000000000000000000000000000000010000000000000000000
0000000000000000000000000000000000000000000000000000000111001000000000
0000010000000000000000000000000000000010000000000000000000000000000000
0000000000000000000000000000000000000000011111101111100000000001000000
0000000000000000000000000010000000000000000000000000000000000000000000
0000000000000000000000000000111111101011111100000001000000000000000000
0000000000000010000000000000000000000000000000000000000000000000000000
0000000000000001111111000001001110000001000000000000000000000000000000
0010000000000000000000000000000000000000000000000000000000000000000000
0000111111101011111100000001000000000000000000000000000000001000000000
0000000000000000000000000000000000000000000000000000000000000001111110
1111100000000001000000000000000000000000000000001000000000000000000000
0000000000000000000000000000000000000000000000000000011100100000000000
0001000000000000000000000000000000001000000000000000000000000000000000
0000000000000000000000000000000000000000000000000000000000000100000000
0000000000000000000000001000000000000000000000000000000000000000000000
0000000000000000000000000000000000000000000000000100000000000000000000
0000000000001000000000000000000000000000000000000000000000000000000000
0000000000000000000000000000000000000100000000000000000000000000000000
1000000000000000000000000000000000000000000000000000000000000000000000
0000000000000000000000000100000000000000000000000000000000100000000000
0000000000000000000000000000000000000000000000000000000000000000000000
0000000000000100000000000000000000000000000000100000000000000000000000
0000000000000000000000000000000000000000000000000000000000000000000000
0100000000000000000000000000000000100000000000000000000000000000000000
0000000000000000000000000000000000000000000000000000000000010000000000
0000000000000000000000100000000000000000000000000000000000000000000000
0000000000000000000000000000000000000000000000010000000000000000000000
0000000000100000000000000000000000000000000000000000000000000000000000
0000000000000000000000000000000000010000000000000000000000000000000010
0000000000000000000000000000000000000000000000000000000000000000000000
0000000000000000000000010000000000000000000000000000000010000000000000
0000000000000000000000000000000000000000000000000000000000000000000000
0000000000010000000000000000000000000000000010000000000000000000000000
0000000000000000000000000000000000000000000000000000000000000000000001
0000000000000000000000000000000010000000000000000000000000000000000000
0000000000000000000000000000000000000000000000000000000001000000000000
0000000000000000000010000000000000000000000000000000000000011111100000
0000000000000000000000000000000000000000000001000000000000000000000000
0000000010000000000000000000000000000000000001111111111000000000000000
0000000000000000000000000000000001000000000000000000000000000000001000
0000000000000000000000000000000011111111111100000000000000000000000000
0000000000000000000001000000000000000000000000000000001000000000000000
0000000000000000000011111111111111000000000000000000000000000000000000
0000000001000000000000000000000000000000001000000000000000000000000000
0000000011111111111111100000000000000000000000000000000000000000000100
0000000000000000000000000000001000000000000000000000000000000000001111
1111111111110000000000000000000000000000000000000000000100000000000000
0000000000000000001000000000000000000000000000000000001111111111111111
1100000000000000000000000000000000000000000100000000000000000000000000
0000001000000000000000000000000000000000000111111111111111111000000000
0000000000000000000000000000000100000000000000000000000000000000100000
0000000000000000000000000000000011111111111111111110000000000000000000
0000000000000000000100000000000000000000000000000000100000000000000000
0000000000000000000011111111111111111110000000000000000000000000000000
0000000100000000000000000000000000000000100000000000000000000000000000
0000000111111111111111111000000000000000000000000000000000000000010000
0000000000000000000000000000100000000000000000000000000000000000111111
1111111111110000000000000000000000000000000000000000010000000000000000
0000000000000000100000000000000000000000000000000000111111111111111100
0000000000000000000000000000000000000000010000000000000000000000000000
0000100000000000000000000000000000000000111111111111111000000000000000
0000000000000000000000000000010000000000000000000000000000000010000000
0000000000000000000000000000111111111111110000000000000000000000000000
0000000000000000010000000000000000000000000000000010000000000000000000
0000000000000000111111111111000000000000000000000000000000000000000000
0000010000000000000000000000000000000010000000000000000000000000000000
0000011111111110000000000000000000000000000000000000000000000001000000
0000000000000000000000000010000000000000000000000000000000000000011111
1000000000000000000000000000000000000000000000000001000000000000000000
0000000000000010000000000000000000000000000000000000000000000000000000
0000000000000000000000000000000000000001000000000000000000000000000000
0010000000000000000000000000000000000000000000000000000000000000000000
0000000000000000000000000001000000000000000000000000000000001000000000
0000000000000000000000000000000000000000000000000000000000000000000000
0000000000000001000000000000000000000000000000001000000000000000000000
0000000000000000000000000000000000000000000000000000000000000000000000
0001000000000000000000000000000000001000000000000000000000000000000000
0000000000000000000000000000000000000000000000000000000000000100000000
0000000000000000000000001000000000000000000000000000000000000000000000
0000000000000000000000000000000000000000000000000100000000000000000000
0000000000001000000000000000000000000000000000000000000000000000000000
0000000000000000000000000000000000000100000000000000000000000000000000
1000000000000000000000000000000000000000000000000000000000000000000000
0000000000000000000000000100000000000000000000000000000000100000000000
0000000000000000000000000000000000000000000000000000000000000000000000
0000000000000100000000000000000000000000000000100000000000000000000000
0000000000000000000000000000000000000000000000000000000000000000000000
0100000000000000000000000000000000100000000000000000000000000000000000
0000000000000000000000000000000000000000000000000000000000010000000000
0000000000000000000000100000000000000000000000000000000000000000000000
0000000000000000000000000000000000000000000000010000000000000000000000
0000000000100000000000000000000000000000000000000000000000000000000000
0000000000000000000000000000000000010000000000000000000000000000000010
0000000000000100111000000000000000000000000000000000000000000000000000
0000000000000000000000010000000000000000000000000000000010000000000111
1101111110000000000000000000000000000000000000000000000000000000000000
0000000000010000000000000000000000000000000010000000011111010111111100
0000000000000000000000000000000000000000000000000000000000000000000001
0000000000000000000000000000000010000000110010000011111110000000000000
0000000000000000000000000000000000000000000000000000000001000000000000
0000000000000000000010000000011111010111111100000000000000000000000000
0000000000000000000000000000000000000000000001000000000000000000000000
0000000010000000000111110111111000000000000000000000000000000000000000
0000000000000000000000000000000001000000000000000000000000000000001000
0000000000010011100000000000000000000000000000000000000000000000000000
0000000000000000000001000000000000000000000000000000001000000000000000
0000000000000000000000000000000000000000000000000000000000000000000000
0000000001000000000000000000000000000000001100000000000000000000000000
0000000000000000000000000000000000000000000000000000000000000000001100
0000000000000000000000000000000111111111111111111111111111111111111111
1111111111111111111111111111111111111111111111111111111000000000000000
00