P1
# Created by GIMP version 3.0.4 PNM plug-in
128 64
0000000000000000000001111111111111111111111111111111111111111111111111
1111111111111111111111111111111111111100000000000000000000000000000000
0000000011000000000000000000000000000000000000000000000000000000000000
0000000000000000000000000110000000000000000000000000000000000000001000
0000000000000000000000000000000000000000000000000000000000000000000111
0000100000000010000000000000000000000000000000000000001000000000000000
0000000000000000000000000000000000000000000000000000001111100011111000
0010000000000000000000000000000000000000001000000000000000000000000000
0000000000000000000000000000000000000000011111110010111111001000000000
0000000000000000000000000000001000000000000000000000000000000000000000
0000000000000000000000000000111111111000010011101000000000000000000000
0000000000000000001000000000000000000000000000000000000000000000000000
0000000000000000011111110010111111001000000000000000000000000000000000
0000001000000000000000000000000000000000000000000000000000000000000000
0000001111100011111000001000000000000000000000000000000000000000100000
0000000000000000000000000000000000000000000000000000000000000000011100
0010000000001000000000000000000000000000000000000000100000000000000000
0000000000000000000000000000000000000000000000000000000000000000000000
1000000000000000000000000000000000000000100000000000000000000000000000
0000000000000000000000000000000000000000000000000000000000100000000000
0000000000000000000000000000100000000000000000000000000000000000000000
0000000000000000000000000000000000000000000000100000000000000000000000
0000000000000000100000000000000000000000000000000000000000000000000000
0000000000000000000000000000000000100000000000000000000000000000000000
0000100000000000000000000000000000000000000000000000000000000000000000
0000000000000000000000100000000000000000000000000000000000000010000000
0000000000000000000000000000000000000000000000000000000000000000000000
0000000000100000000000000000000000000000000000000010000000000000000000
0000000000000000000000000000000000000000000000000000000000000000000010
0000000000000000000000000000000000000010000000000000000000000000000000
0000000000000000000000000000000000000000000000000000000010000000000000
0000000000000000000000000010000000000000000000000000000000000000000000
0000000000000000000000000000000000000000000010000000000000000000000000
0000000000000010000000000000000000000000000000000000000000000000000000
0000000000000000000000000000000010000000000000000000000000000000000000
0010000000000000000000000000000000000000000000000000000000000000000000
0000000000000000000010000000000000000000000000000000000000001000000000
0000000000000000000000000000000000000000000000000000000000000000000000
0000000010000000000000000000000000000000000000001000000000000000000000
0000000000000000000000000000000000000000000000000000000000000000001000
0000000000000000000000000000000000001000000000000000000000000000000000
0000000000000000000000000000000000000000000000000000001000000000000000
0000000000000000000000001000000000000000000000000000000000000000000000
0000000000000000000000000000000000000000001000000000000000000000000000
0000000000001000000000000000000000000000000000000000000000000000000000
0000000000000000000000000000001000000000000000000000000000000000000000
1000000000000000000000000000000000000000000001000000000000000000000000
0000000000000000001000000000000000000000000000000000000000100000000000
0000000000000000000000000000000111110000000000000000000000000000000000
0000001000000000000000000000000000000000000000100000000000000000000000
0000000000000000001111111100000000000000000000000000000000000000100000
0000000000000000000000000000000000100000000000000000000000000000000000
0000111111111110000000000000000000000000000000000000100000000000000000
0000000000000000000000100000000000000000000000000000000000001111111111
1111100000000000000000000000000000000000100000000000000000000000000000
0000000000100000000000000000000000000000000000111111111111111111100000
0000000000000000000000000000100000000000000000000000000000000000000010
0000000000000000000000000000000011111111111111111111111000000000000000
0000000000000000100000000000000000000000000000000000000010000000000000
0000000000000000000000111111111111111111100000000000000000000000000000
0000100000000000000000000000000000000000000010000000000000000000000000
0000000000001111111111111110000000000000000000000000000000000010000000
0000000000000000000000000000000010000000000000000000000000000000000000
0011111111111000000000000000000000000000000000000010000000000000000000
0000000000000000000010000000000000000000000000000000000000000011111110
0000000000000000000000000000000000000010000000000000000000000000000000
0000000010000000000000000000000000000000000000000001111100000000000000
0000000000000000000000000010000000000000000000000000000000000000001000
0000000000000000000000000000000000000000010000000000000000000000000000
0000000000000010000000000000000000000000000000000000001000000000000000
0000000000000000000000000000000000000000000000000000000000000000000000
0010000000000000000000000000000000000000001000000000000000000000000000
0000000000000000000000000000000000000000000000000000000000001000000000
0000000000000000000000000000001000000000000000000000000000000000000000
0000000000000000000000000000000000000000000000001000000000000000000000
0000000000000000001000000000000000000000000000000000000000000000000000
0000000000000000000000000000000000001000000000000000000000000000000000
0000001000000000000000000000000000000000000000000000000000000000000000
0000000000000000000000001000000000000000000000000000000000000000100000
0000000000000000000000000000000000000000000000000000000000000000000000
0000000000001000000000000000000000000000000000000000100000000000000000
0000000000000000000000000000000000000000000000000000000000000000000000
1000000000000000000000000000000000000000100000000000000000000000000000
0000000000000000000000000000000000000000000000000000000000100000000000
0000000000000000000000000000100000000000000000000000000000000000000000
0000000000000000000000000000000000000000000000100000000000000000000000
0000000000000000100000000000000000000000000000000000000000000000000000
0000000000000000000000000000000000100000000000000000000000000000000000
0000100000000000000000000000000000000000000000000000000000000000000000
0000000000000000000000100000000000000000000000000000000000000010000000
0000000000000000000000000000000000000000000000000000000000000000000000
0000000000100000000000000000000000000000000000000010000000000000000000
0000000000000000000000000000000000000000000000000000000000000000000010
0000000000000000000000000000000000000010000000000000000000000000000000
0000000000000000000000000000000000000000000000000000000010000000000000
0000000000000000000000000010000000000000000000000000000000000000000000
0000000000000000000000000000000000000000000010000000000000000000000000
0000000000000010000000000000000000000000000000000000000000000000000000
0000000000000000000000000000000010000000000000000000000000000000000000
0010000000000000000000000000000000000000000000000000000000000000000000
0000000000000000000010000000000000000000000000000000000000001000000000
0100001110000000000000000000000000000000000000000000000000000000000000
0000000010000000000000000000000000000000000000001000000011110001111100
0000000000000000000000000000000000000000000000000000000000000000001000
0000000000000000000000000000000000001000111111010011111110000000000000
0000000000000000000000000000000000000000000000000000001000000000000000
0000000000000000000000001001110010000111111111000000000000000000000000
0000000000000000000000000000000000000000001000000000000000000000000000
0000000000001000111111010011111110000000000000000000000000000000000000
0000000000000000000000000000001000000000000000000000000000000000000000
1000000011110001111100000000000000000000000000000000000000000000000000
0000000000000000001000000000000000000000000000000000000000100000000001
0000111000000000000000000000000000000000000000000000000000000000000000
0000001000000000000000000000000000000000000000110000000000000000000000
0000000000000000000000000000000000000000000000000000000000000001100000
0000000000000000000000000000000000011111111111111111111111111111111111
1111111111111111111111111111111111111111111111111111000000000000000000
00