P1
# Created by GIMP version 3.0.4 PNM plug-in
128 64
0000000000000000000001111111111111111111111111111111111111111111111111
1111111111111111111111111111111111111100000000000000000000000000000000
0000000011000000000000000000000000000000000000000000000000000000000000
0000000000000000000000000110000000000000000000000000000000000000001000
0000000000000000000000000000000000000000000000000000000000000000000100
0001000000000010000000000000000000000000000000000000001000000000000000
0000000000000000000000000000000000000000000000000000001110000111110000
0010000000000000000000000000000000000000001000000000000000000000000000
0000000000000000000000000000000000000000011110000101111110001000000000
0000000000000000000000000000001000000000000000000000000000000000000000
0000000000000000000000000001001111100000100111001000000000000000000000
0000000000000000001000000000000000000000000000000000000000000000000000
0000000000000001111111110101111110001000000000000000000000000000000000
0000001000000000000000000000000000000000000000000000000000000000000000
0001001111100111110000001000000000000000000000000000000000000000100000
0000000000000000000000000000000000000000000000000000000000000001111000
0100000000001000000000000000000000000000000000000000100000000000000000
0000000000000000000000000000000000000000000000000000111000000000000000
1000000000000000000000000000000000000000100000000000000000000000000000
0000000000000000000000000000000000000000010000000000000000100000000000
0000000000000000000000000000100000000000000000000000000000000000000000
0000000000000000000000000000000000000000000000100000000000000000000000
0000000000000000100000000000000000000000000000000000000000000000000000
0000000000000000000000000000000000100000000000000000000000000000000000
0000100000000000000000000000000000000000000000000000000000000000000000
0000000000000000000000100000000000000000000000000000000000000010000000
0000000000000000000000000000000000000000000000000000000000000000000000
0000000000100000000000000000000000000000000000000010000000000000000000
0000000000000000000000000000000000000000000000000000000000000000000010
0000000000000000000000000000000000000010000000000000000000000000000000
0000000000000000000000000000000000000000000000000000000010000000000000
0000000000000000000000000010000000000000000000000000000000000000000000
0000000000000000000000000000000000000000000010000000000000000000000000
0000000000000010000000000000000000000000000000000000000000000000000000
0000000000000000000000000000000010000000000000000000000000000000000000
0010000000000000000000000000000000000000000000000000000000000000000000
0000000000000000000010000000000000000000000000000000000000001000000000
0000000000000000000000000000000000000000000000000000000000000000000000
0000000010000000000000000000000000000000000000001000000000000000000000
0000000000000000000000000000000000000000000000000000000000000000001000
0000000000000000000000000000000000001000000000000000000000000000000000
0000000000000000000000000000000000000000000000000000001000000000000000
0000000000000000000000001000000000000000000000000000000000000000000000
0000000000000000000000000000000000000000001000000000000000000000000000
0000000000001000000000000000000000000000000000000000000000000000000000
0000000000000000000000000000001000000000000000000000000000000000000000
1000000000000000000000000000000000000000000000000000000000000000000000
0000000000000000001000000000000000000000000000000000000000100000000000
0000000000000000000000000000011111000000000000000000000000000000000000
0000001000000000000000000000000000000000000000100000000000000000000000
0000000000000000111111100000000000000000000000000000000000000000100000
0000000000000000000000000000000000100000000000000000000000000000000000
0000111111100000000000000000000000000000000000000000100000000000000000
0000000000000000000000100000000000000000000000000000000000000011111111
1110000000000000000000000000000000000000100000000000000000000000000000
0000000000100000000000000000000000000000000000011001111111111100000000
0000000000000000000000000000100000000000000000000000000000000000000010
0000000000000000000000000000000000011111111111111100000000000000000000
0000000000000000100000000000000000000000000000000000000010000000000000
0000000000000000000000011111111111111100000000000000000000000000000000
0000100000000000000000000000000000000000000010000000000000000000000000
0000000000011001111111111100000000000000000000000000000000000010000000
0000000000000000000000000000000010000000000000000000000000000000000000
0011111111111000000000000000000000000000000000000010000000000000000000
0000000000000000000010000000000000000000000000000000000000001111111000
0000000000000000000000000000000000000010000000000000000000000000000000
0000000010000000000000000000000000000000000000001111111000000000000000
0000000000000000000000000010000000000000000000000000000000000000001000
0000000000000000000000000000000000000111110000000000000000000000000000
0000000000000010000000000000000000000000000000000000001000000000000000
0000000000000000000000000000000000000000000000000000000000000000000000
0010000000000000000000000000000000000000001000000000000000000000000000
0000000000000000000000000000000000000000000000000000000000001000000000
0000000000000000000000000000001000000000000000000000000000000000000000
0000000000000000000000000000000000000000000000001000000000000000000000
0000000000000000001000000000000000000000000000000000000000000000000000
0000000000000000000000000000000000001000000000000000000000000000000000
0000001000000000000000000000000000000000000000000000000000000000000000
0000000000000000000000001000000000000000000000000000000000000000100000
0000000000000000000000000000000000000000000000000000000000000000000000
0000000000001000000000000000000000000000000000000000100000000000000000
0000000000000000000000000000000000000000000000000000000000000000000000
1000000000000000000000000000000000000000100000000000000000000000000000
0000000000000000000000000000000000000000000000000000000000100000000000
0000000000000000000000000000100000000000000000000000000000000000000000
0000000000000000000000000000000000000000000000100000000000000000000000
0000000000000000100000000000000000000000000000000000000000000000000000
0000000000000000000000000000000000100000000000000000000000000000000000
0000100000000000000000000000000000000000000000000000000000000000000000
0000000000000000000000100000000000000000000000000000000000000010000000
0000000000000000000000000000000000000000000000000000000000000000000000
0000000000100000000000000000000000000000000000000010000000000000000000
0000000000000000000000000000000000000000000000000000000000000000000010
0000000000000000000000000000000000000010000000000000000000000000000000
0000000000000000000000000000000000000000000000000000000010000000000000
0000000000000000000000000010000000000000000000000000000000000000000000
0000000000000000000000000000000000000000000010000000000000000000000000
0000000000000010000000000000000100000000000000000000000000000000000000
0000000000000000000000000000000010000000000000000000000000000000000000
0010000000000000001110000000000000000000000000000000000000000000000000
0000000000000000000010000000000000000000000000000000000000001000000000
0100001111000000000000000000000000000000000000000000000000000000000000
0000000010000000000000000000000000000000000000001000000111110011111001
0000000000000000000000000000000000000000000000000000000000000000001000
0000000000000000000000000000000000001000111111010111111111000000000000
0000000000000000000000000000000000000000000000000000001000000000000000
0000000000000000000000001001110010000011111001000000000000000000000000
0000000000000000000000000000000000000000001000000000000000000000000000
0000000000001000111111010000111100000000000000000000000000000000000000
0000000000000000000000000000001000000000000000000000000000000000000000
1000000111110000111000000000000000000000000000000000000000000000000000
0000000000000000001000000000000000000000000000000000000000100000000001
0000010000000000000000000000000000000000000000000000000000000000000000
0000001000000000000000000000000000000000000000110000000000000000000000
0000000000000000000000000000000000000000000000000000000000000001100000
0000000000000000000000000000000000011111111111111111111111111111111111
1111111111111111111111111111111111111111111111111111000000000000000000
00