P1
# Created by GIMP version 3.0.4 PNM plug-in
128 64
0000000000000000000011111111111111111111111111111111111111111111111111
1111111111111111111111111111111111111100000000000000000000000000000000
0000000110000000000000000000000000000000000000000000000000000000000000
0000000000000000000000000110000000000000000000000000000000000000010000
0000000000000000000000000000000000000000000000000000000000000000001110
0001000000000010000000000000000000000000000000000000010000000000000000
0000000000000000000000000000000000000000000000000000011111000111110000
0010000000000000000000000000000000000000010000000000000000000000000000
0000000000000000000000000000000000000001001111100101111110001000000000
0000000000000000000000000000010000000000000000000000000000000000000000
0000000000000000000000000001111111110000100111001000000000000000000000
0000000000000000010000000000000000000000000000000000000000000000000000
0000000000000001001111100101111110001000000000000000000000000000000000
0000010000000000000000000000000000000000000000000000000000000000000000
0000011111000111110000001000000000000000000000000000000000000001000000
0000000000000000000000000000000000000000000000000000000000000000111000
0100000000001000000000000000000000000000000000000001000000000000000000
0000000000000000000000000000000000000000000000000000000000000000000000
1000000000000000000000000000000000000001000000000000000000000000000000
0000000000000000000000000000000000000000000000000000000000100000000000
0000000000000000000000000001000000000000000000000000000000000000000000
0000000000000000000000000000000000000000000000100000000000000000000000
0000000000000001000000000000000000000000000000000000000000000000000000
0000000000000000000000000000000000100000000000000000000000000000000000
0001000000000000000000000000000000000000000001111000000000000000000000
0000000000000000000000100000000000000000000000000000000000000100000000
0000000000000000000000000000001111000110000000000000000000000000000000
0000000000100000000000000000000000000000000000000100000000000000000000
0000000000000000011000110001100000000000000000000000000000000000000010
0000000000000000000000000000000000000100000000000000000000000000000000
0000100110111011111000000000000000000000000000000000000010000000000000
0000000000000000000000000100000000000000000000000000000000000111010111
1101011100000000000000000000000000000000000010000000000000000000000000
0000000000000100000000000000000000000000000000001111111111111111011100
0000000000000000000000000000000010000000000000000000000000000000000000
0100000000000000000000000000000000001110111011011110101110000000000000
0000000000000000000010000000000000000000000000000000000000010000000000
0000000000000000000000011101111111111111101011000000000000000000000000
0000000010000000000000000000000000000000000000010000000000000000000000
0000000000011111101110100110111011100000000000000000000000000000001000
0000000000000000000000000000000000010000000000000000000000000000000001
1101111000110001111010110000000000000000000000000000001000000000000000
0000000000000000000000010000000000000000000000000000000001111111000100
0011111101111000000000000000000000000000001000000000000000000000000000
0000000000010000000000000000000000000000000001111111100000000010111111
1110000000000000000000000000001000000000000000000000000000000000000001
0000000000000000111000000000000001111111010000000100010111011100000000
0000000000000000001000000000000000000000000000000000000001000000000000
0000111110000000000001111111000001000000001111011110000000000000000000
0000001000000000000000000000000000000000000001000000000000000011111110
0000000000111111100010000000000111111111000000000000000000000000100000
0000000000000000000000000000000001000000000000000011111111110000000011
1011100010001000100011110111110000000000000000000000100000000000000000
0000000000000000000001000000000000000011110111111111000001111111000100
1010010001111111111000000000000000000000100000000000000000000000000000
0000000001000000000000000011110101001111111111101111100001011000111001
1110111100000000000000000000100000000000000000000000000000000000000100
0000000000000011111111110111111111111011111111111111111110111111011100
0000000000000000100000000000000000000000000000000000000100000000000000
0011111111110011111111111011111111111011111100111111011100000000000000
0000100000000000000000000000000000000000000100000000000000001111010111
1111111111101111110001011000111011111011110000000000000000000010000000
0000000000000000000000000000000100000000000000001111011111111100000111
1111000100101001010111111111100000000000000000000010000000000000000000
0000000000000000000100000000000000001111111111000000001110111000100010
0010001111011111000000000000000000000010000000000000000000000000000000
0000000100000000000000001111111000000000001111111001100000000001111111
1100000000000000000000000010000000000000000000000000000000000000010000
0000000000001111100000000000011111110000010000000011110111100000000000
0000000000000010000000000000000000000000000000000000010000000000000000
1110000000000000011111110100000001000101010111000000000000000000000000
0010000000000000000000000000000000000000010000000000000000000000000000
0000011111111000000000101111111110000000000000000000000000001000000000
0000000000000000000000000000010000000000000000000000000000000001111111
0001000011111101011000000000000000000000000000001000000000000000000000
0000000000000000010000000000000000000000000000000001110111100011000111
1011110000000000000000000000000000001000000000000000000000000000000000
0000010000000000000000000000000000000001111110111010011011101110000000
0000000000000000000000001000000000000000000000000000000000000001000000
0000000000000000000000000001110111111111111110101100000000000000000000
0000000000001000000000000000000000000000000000000001000000000000000000
0000000000000000101011101101111010111000000000000000000000000000000000
1000000000000000000000000000000000000001000000000000000000000000000000
0000111111111111111101110000000000000000000000000000000000100000000000
0000000000000000000000000001000000000000000000000000000000000001110101
1111010111000000000000000000000000000000000000100000000000000000000000
0000000000000001000000000000000000000000000000000000110110111011111000
0000000000000000000000000000000000100000000000000000000000000000000000
0001000000000000000000000000000000000000011000010001100000000000000000
0000000000000000000000100000000000000000000000000000000000000100000000
0000000000000000000000000000001111000110000000000000000000000000000000
0000000000100000000000000000000000000000000000000100000000000000000000
0000000000000000000001111000000000000000000000000000000000000000000010
0000000000000000000000000000000000000100000000000000000000000000000000
0000000000000000000000000000000000000000000000000000000010000000000000
0000000000000000000000000100000000000000000000000000000000000000000000
0000000000000000000000000000000000000000000010000000000000000000000000
0000000000000100000000000000000000000000000000000000000000000000000000
0000000000000000000000000000000010000000000000000000000000000000000000
0100000000000000000000000000000000000000000000000000000000000000000000
0000000000000000000010000000000000000000000000000000000000010000000000
1000011100000000000000000000000000000000000000000000000000000000000000
0000000010000000000000000000000000000000000000010000000111100011111000
0000000000000000000000000000000000000000000000000000000000000000001000
0000000000000000000000000000000000010001111110100111110010000000000000
0000000000000000000000000000000000000000000000000000001000000000000000
0000000000000000000000010011100100001111111110000000000000000000000000
0000000000000000000000000000000000000000001000000000000000000000000000
0000000000010001111110100111110010000000000000000000000000000000000000
0000000000000000000000000000001000000000000000000000000000000000000001
0000000111100011111000000000000000000000000000000000000000000000000000
0000000000000000001000000000000000000000000000000000000001000000000010
0001110000000000000000000000000000000000000000000000000000000000000000
0000001000000000000000000000000000000000000001100000000000000000000000
0000000000000000000000000000000000000000000000000000000000000001100000
0000000000000000000000000000000000111111111111111111111111111111111111
1111111111111111111111111111111111111111111111111111000000000000000000
00