P1
# Created by GIMP version 3.0.4 PNM plug-in
128 64
0000000000000000000011111111111111111111111111111111111111111111111111
1111111111111111111111111111111111111100000000000000000000000000000000
0000000110000000000000000000000000000000000000000000000000000000000000
0000000000000000000000000110000000000000000000000000000000000000010000
0000000000000000000000000000000000000000000000000000000000000000000110
0000111011000010000000000000000000000000000000000000010000000000000000
0000000000000000000000000000000000000000000000000000001111000111111110
0010000000000000000000000000000000000000010000000000000000000000000000
0000000000000000000000000000000000000000100111100100010010001000000000
0000000000000000000000000000010000000000000000000000000000000000000000
0000000000000000000000000000111111110100010010001000000000000000000000
0000000000000000010000000000000000000000000000000000000000000000000000
0000000000000000100111100111111110001000000000000000000000000000000000
0000010000000000000000000000000000000000000000000000000000000000000000
0000001111000011101100001000000000000000000000000000000000000001000000
0000000000000000000000000000000000000000000000000000000000000000011000
0000000000001000000000000000000000000000000000000001000000000000000000
0000000000000000000000000000000000000000000000000000000000000000000000
1000000000000000000000000000000000000001000000000000000000000000000000
0000000000000000000000000000000000000000000000000000000000100000000000
0000000000000000000000000001000000000000000000000000000000000000000000
0000000000000000000000000000000000000000000000100000000000000000000000
0000000000000001000000000000000000000000000000000000000000000000000000
0000000000000000000000000000000000100000000000000000000000000000000000
0001000000000000000000000000000000000000000000000000000000000000000000
0000000000000000000000100000000000000000000000000000000000000100000000
0000000000111100000000000000000001111000000000000000000000111100000000
0000000000100000000000000000000000000000000000000100000000000000000111
1110000000000000000011111100000000000000000001111110000000000000000010
0000000000000000000000000000000000000100000000000000001111111000000000
0000000011111110000000000000000001111111000000000000000010000000000000
0000000000000000000000000100000000000000011111111000000000000000001111
1111000000000000000001111111100000000000000010000000000000000000000000
0000000000000100000000000000111111110001000000000001000111111110000000
0000001000111111110000000000000010000000000000000000000000000000000000
0100000000000001111111100011000000000001100011111111000000000000110001
1111111000000000000010000000000000000000000000000000000000010000000000
0011111111111111000000000001111111111111100000000000111111111111110000
0000000010000000000000000000000000000000000000010000000000000111111110
0011000000000001100011111111000000000000110001111111100000000000001000
0000000000000000000000000000000000010000000000000011111111000100000000
0001000111111110000000000000100011111111000000000000001000000000000000
0000000000000000000000010000000000000001111111100000000000000000111111
1100000000000000000111111110000000000000001000000000000000000000000000
0000000000010000000000000000111111100000000000000000111111100000000000
0000000111111100000000000000001000000000000000000000000000000000000001
0000000000000000011111100000000000000000111111000000000000000000011111
1000000000000000001000000000000000000000000000000000000001000000000000
0000001111000000001111000000011110000000001111000000001111000000000000
0000001000000000000000000000000000000000000001000000000000000000000000
0000011111100000000000000000011111100000000000000000000000000000100000
0000000000000000000000000000000001000000000000000000000000000011111110
0000000000000000011111110000000000000000000000000000100000000000000000
0000000000000000000001000000000000000000000000000111111110000000000000
0000011111111000000000000000000000000000100000000000000000000000000000
0000000001000000000000000000000000001111111100010000000000001000111111
1100000000000000000000000000100000000000000000000000000000000000000100
0000000000000000000000011111111000110000000000001100011111111000000000
0000000000000000100000000000000000000000000000000000000100000000000000
0000000000111111111111110000000000001111111111111100000000000000000000
0000100000000000000000000000000000000000000100000000000000000000000001
1111111000110000000000001100011111111000000000000000000000000010000000
0000000000000000000000000000000100000000000000000000000000111111110001
0000000000001000111111110000000000000000000000000010000000000000000000
0000000000000000000100000000000000000000000000011111111000000000000000
0001111111100000000000000000000000000010000000000000000000000000000000
0000000100000000000000000000000000001111111000000000000000000111111100
0000000000000000000000000010000000000000000000000000000000000000010000
0000000000000011110000000111111000000111100000000111111000000011110000
0000000000000010000000000000000000000000000000000000010000000000000000
0111111000000011110000001111110000000011110000000111111000000000000000
0010000000000000000000000000000000000000010000000000000000111111100000
0000000000001111111000000000000000000111111100000000000000001000000000
0000000000000000000000000000010000000000000001111111100000000000000000
1111111100000000000000000111111110000000000000001000000000000000000000
0000000000000000010000000000000011111111000100000000000100011111111000
0000000000100011111111000000000000001000000000000000000000000000000000
0000010000000000000111111110001100000000000110001111111100000000000011
0001111111100000000000001000000000000000000000000000000000000001000000
0000001111111111111100000000000111111111111110000000000011111111111111
0000000000001000000000000000000000000000000000000001000000000000011111
1110001100000000000110001111111100000000000011000111111110000000000000
1000000000000000000000000000000000000001000000000000001111111100010000
0000000100011111111000000000000010001111111100000000000000100000000000
0000000000000000000000000001000000000000000111111110000000000000000011
1111110000000000000000011111111000000000000000100000000000000000000000
0000000000000001000000000000000011111110000000000000000011111110000000
0000000000011111110000000000000000100000000000000000000000000000000000
0001000000000000000001111110000000000000000011111100000000000000000001
1111100000000000000000100000000000000000000000000000000000000100000000
0000000000111100000000000000000001111000000000000000000000111100000000
0000000000100000000000000000000000000000000000000100000000000000000000
0000000000000000000000000000000000000000000000000000000000000000000010
0000000000000000000000000000000000000100000000000000000000000000000000
0000000000000000000000000000000000000000000000000000000010000000000000
0000000000000000000000000100000000000000000000000000000000000000000000
0000000000000000000000000000000000000000000010000000000000000000000000
0000000000000100000000000000000000000000000000000000000000000000000000
0000000000000000000000000000000010000000000000000000000000000000000000
0100000000000000000000000000000000000000000000000000000000000000000000
0000000000000000000010000000000000000000000000000000000000010000000000
0000011000000000000000000000000000000000000000000000000000000000000000
0000000010000000000000000000000000000000000000010000110111000011110000
0000000000000000000000000000000000000000000000000000000000000000001000
0000000000000000000000000000000000010001111111100111100100000000000000
0000000000000000000000000000000000000000000000000000001000000000000000
0000000000000000000000010001001000101111111100000000000000000000000000
0000000000000000000000000000000000000000001000000000000000000000000000
0000000000010001001000100111100100000000000000000000000000000000000000
0000000000000000000000000000001000000000000000000000000000000000000001
0001111111100011110000000000000000000000000000000000000000000000000000
0000000000000000001000000000000000000000000000000000000001000011011100
0001100000000000000000000000000000000000000000000000000000000000000000
0000001000000000000000000000000000000000000001100000000000000000000000
0000000000000000000000000000000000000000000000000000000000000001100000
0000000000000000000000000000000000111111111111111111111111111111111111
1111111111111111111111111111111111111111111111111111000000000000000000
00