P1
# Created by GIMP version 3.0.4 PNM plug-in
128 64
0000000000000000000011111111111111111111111111111111111111111111111111
1111111111111111111111111111111111111100000000000000000000000000000000
0000000110000000000000000000000000000000000000000000000000000000000000
0000000000000000000000000110000000000000000000000000000000000000010000
0000000000000000000000000000000000000000000000000000000000000000000100
0000011001100010000000000000000000000000000000000000010000000000000000
0000000000000000000000000000000000000000000000000000001110000011111111
0010000000000000000000000000000000000000010000000000000000000000000000
0000000000000000000000000000000000000000011110000010011001001000000000
0000000000000000000000000000010000000000000000000000000000000000000000
0000000000000000000000000000101111100010011001001000000000000000000000
0000000000000000010000000000000000000000000000000000000000000000000000
0000000000000000111111110011111111001000000000000000000000000000000000
0000010000000000000000000000000000000000000000000000000000000000000000
0000101111100001100110001000000000000000000000000000000000000001000000
0000000000000000000000000000000000000000000000000000000000000001111000
0000000000001000000000000000000000000000000000000001000000000000000000
0000000000000000000000000000000000000000000000000000111000000000000000
1000000000000000000000000000000000000001000000000000000000000000000000
0000000000000000000000000000000000000000010000000000000000100000000000
0000000000000000000000000001000000000000000000000000000000000000000000
0000000000000000000000000000000000000000000000100000000000000000000000
0000000000000001000000000000000000000000000000000000000000000000000000
0000000000000000000000000000000000100000000000000000000000000000000000
0001000000000000000000000000000000000000000000000000000000000000000000
0000000000000000000000100000000000000000000000000000000000000100000000
0000000011110000000000000000000000111100000000000000000000000111100000
0000000000100000000000000000000000000000000000000100000000000000011111
1000000000000000000001111110000000000000000000001111110000000000000010
0000000000000000000000000000000000000100000000000000011111100000000000
0000000001111110000000000000000000001111110000000000000010000000000000
0000000000000000000000000100000000000111111111100000000000000000000111
1111111000000000000000001111111111000000000010000000000000000000000000
0000000000000100000000001111111111001100000000000000110011111111110000
0000000001100111111111100000000010000000000000000000000000000000000000
0100000000001111111111111100000000000000111111111111110000000000000111
1111111111100000000010000000000000000000000000000000000000010000000000
1111111111111100000000000000111111111111110000000000000111111111111110
0000000010000000000000000000000000000000000000010000000000111111111100
1100000000000000110011111111110000000000000110011111111110000000001000
0000000000000000000000000000000000010000000000011111111110000000000000
0000000111111111100000000000000000111111111100000000001000000000000000
0000000000000000000000010000000000000001111110000000000000000000011111
1000000000000000000000111111000000000000001000000000000000000000000000
0000000000010000000000000001111110000000000000000000011111100000000000
0000000000111111000000000000001000000000000000000000000000000000000001
0000000000000000111100000000000000000000001111000000000000000000000001
1110000000000000001000000000000000000000000000000000000001000000000000
0000000000000000111100000000000000000000000111100000000000000000000000
0000001000000000000000000000000000000000000001000000000000000000000000
0001111110000000000000000000001111110000000000000000000000000000100000
0000000000000000000000000000000001000000000000000000000000000111111000
0000000000000000001111110000000000000000000000000000100000000000000000
0000000000000000000001000000000000000000000001111111111000000000000000
0000001111111111000000000000000000000000100000000000000000000000000000
0000000001000000000000000000000011111111110011000000000000000110011111
1111100000000000000000000000100000000000000000000000000000000000000100
0000000000000000000011111111111111000000000000000111111111111110000000
0000000000000000100000000000000000000000000000000000000100000000000000
0000000011111111111111000000000000000111111111111110000000000000000000
0000100000000000000000000000000000000000000100000000000000000000001111
1111110011000000000000000110011111111110000000000000000000000010000000
0000000000000000000000000000000100000000000000000000000111111111100000
0000000000000000111111111100000000000000000000000010000000000000000000
0000000000000000000100000000000000000000000000011111100000000000000000
0000111111000000000000000000000000000010000000000000000000000000000000
0000000100000000000000000000000000011111100000000000000000000011111100
0000000000000000000000000010000000000000000000000000000000000000010000
0000000000000000000000001111000000000000000000000001111000000000000000
0000000000000010000000000000000000000000000000000000010000000000000000
1111000000000000000000000011110000000000000000000000011110000000000000
0010000000000000000000000000000000000000010000000000000001111110000000
0000000000000111111000000000000000000000111111000000000000001000000000
0000000000000000000000000000010000000000000001111110000000000000000000
0111111000000000000000000000111111000000000000001000000000000000000000
0000000000000000010000000000011111111110000000000000000000011111111110
0000000000000000111111111100000000001000000000000000000000000000000000
0000010000000000111111111100110000000000000011001111111111000000000000
0110011111111110000000001000000000000000000000000000000000000001000000
0000111111111111110000000000000011111111111111000000000000011111111111
1110000000001000000000000000000000000000000000000001000000000011111111
1111110000000000000011111111111111000000000000011111111111111000000000
1000000000000000000000000000000000000001000000000011111111110011000000
0000000011001111111111000000000000011001111111111000000000100000000000
0000000000000000000000000001000000000001111111111000000000000000000001
1111111110000000000000000011111111110000000000100000000000000000000000
0000000000000001000000000000000111111000000000000000000001111110000000
0000000000000011111100000000000000100000000000000000000000000000000000
0001000000000000000111111000000000000000000001111110000000000000000000
0011111100000000000000100000000000000000000000000000000000000100000000
0000000011110000000000000000000000111100000000000000000000000111100000
0000000000100000000000000000000000000000000000000100000000000000000000
0000000000000000000000000000000000000000000000000000000000000000000010
0000000000000000000000000000000000000100000000000000000000000000000000
0000000000000000000000000000000000000000000000000000000010000000000000
0000000000000000000000000100000000000000000000000000000000000000000000
0000000000000000000000000000000000000000000010000000000000000000000000
0000000000000100000000000000000100000000000000000000000000000000000000
0000000000000000000000000000000010000000000000000000000000000000000000
0100000000000000001110000000000000000000000000000000000000000000000000
0000000000000000000010000000000000000000000000000000000000010000000000
0000001111000000000000000000000000000000000000000000000000000000000000
0000000010000000000000000000000000000000000000010000110011000011111010
0000000000000000000000000000000000000000000000000000000000000000001000
0000000000000000000000000000000000010001111111100111111110000000000000
0000000000000000000000000000000000000000000000000000001000000000000000
0000000000000000000000010001001100100011111010000000000000000000000000
0000000000000000000000000000000000000000001000000000000000000000000000
0000000000010001001100100000111100000000000000000000000000000000000000
0000000000000000000000000000001000000000000000000000000000000000000001
0001111111100000111000000000000000000000000000000000000000000000000000
0000000000000000001000000000000000000000000000000000000001000011001100
0000010000000000000000000000000000000000000000000000000000000000000000
0000001000000000000000000000000000000000000001100000000000000000000000
0000000000000000000000000000000000000000000000000000000000000001100000
0000000000000000000000000000000000111111111111111111111111111111111111
1111111111111111111111111111111111111111111111111111000000000000000000
00