P1
# Created by GIMP version 3.0.4 PNM plug-in
128 64
0000000000000000000001111111111111111111111111111111111111111111111111
1111111111111111111111111111111111111100000000000000000000000000000000
0000000011000000000000000000000000000000000000000000000000000000000000
0000000000000000000000000110000000000000000000000000000000000000001000
0000000000000000000000000000000000000000000000000000000000000000000011
1000011011000010000000000000000000000000000000000000001000000000000000
0000000000000000000000000000000000000000000000000000000111110011111110
0010000000000000000000000000000000000000001000000000000000000000000000
0000000000000000000000000000000000000000001111100110010011001000000000
0000000000000000000000000000001000000000000000000000000000000000000000
0000000000000000000000000000011111000110010011001000000000000000000000
0000000000000000001000000000000000000000000000000000000000000000000000
0000000000000000001111100011111110001000000000000000000000000000000000
0000001000000000000000000000000000000000000000000000000000000000000000
0000000111110001101100001000000000000000000000000000000000000000100000
0000000000000000000000000000000000000000000000000000000000000000001110
0000000000001000000000000000000000000000000000000000100000000000000000
0000000000000000000000000000000000000000000000000000000000000000000000
1000000000000000000000000000000000000000100000000000000000000000000000
0000000000000000000000000000000000000000000000000000000000100000000000
0000000000000000000000000000100000000000000000000000000000000000000000
0000000000000000000000000000000000000000000000100000000000000000000000
0000000000000000100000000000000000000000000000000000000000000000000000
0000000000000000000000000000000000100000000000000000000000000000000000
0000100000000000000000000000000000000000000000000000000000000000000000
0000000000000000000000100000000000000000000000000000000000000010000000
0000001111100000000000000000000111110000000000000000000000000011110000
0000000000100000000000000000000000000000000000000010000000000001111111
0000000000000000001111111000000000000000000000000111111000000000000010
0000000000000000000000000000000000000010000000000001111111100000000000
0000001111111100000000000000000000011111111100000000000010000000000000
0000000000000000000000000010000000000001111111110000000000000000111111
1110000000000000000000111111111100000000000010000000000000000000000000
0000000000000010000000000001111111111000000000000000111111111100000000
0000000001111111111100000000000010000000000000000000000000000000000000
0010000000000000111111111100000000000000011111111110000000000000001111
1111111000000000000010000000000000000000000000000000000000001000000000
0000011111111110000000000000001111111111000000000000011111111111000000
0000000010000000000000000000000000000000000000001000000000000011111111
1100000000000000011111111110000000000000001111111111100000000000001000
0000000000000000000000000000000000001000000000000111111111100000000000
0000111111111100000000000000000111111111110000000000001000000000000000
0000000000000000000000001000000000000111111111000000000000000011111111
1000000000000000000011111111110000000000001000000000000000000000000000
0000000000001000000000000111111110000000111000000011111111000000000000
0000000001111111110000000000001000000000000000000000000000000000000000
1000000000000111111100000001111100000011111110000000000000111100000001
1111100000000000001000000000000000000000000000000000000000100000000000
0011111000000011111110000001111100000000000011111110000000111100000000
0000001000000000000000000000000000000000000000100000000000000000000000
0011111111000000000000000000000111111111000000000000000000000000100000
0000000000000000000000000000000000100000000000000000000000001111111110
0000000000000000001111111111000000000000000000000000100000000000000000
0000000000000000000000100000000000000000000000001111111111000000000000
0000011111111111000000000000000000000000100000000000000000000000000000
0000000000100000000000000000000000000111111111100000000000000011111111
1110000000000000000000000000100000000000000000000000000000000000000010
0000000000000000000000000011111111110000000000000111111111110000000000
0000000000000000100000000000000000000000000000000000000010000000000000
0000000000000111111111100000000000000011111111111000000000000000000000
0000100000000000000000000000000000000000000010000000000000000000000000
1111111111000000000000000001111111111100000000000000000000000010000000
0000000000000000000000000000000010000000000000000000000000111111111000
0000000000000000111111111100000000000000000000000010000000000000000000
0000000000000000000010000000000000000000000000111111110000000000000000
0000011111111100000000000000000000000010000000000000000000000000000000
0000000010000000000000000000000000111111100000000000000000000000111111
1000000000000000000000000010000000000000000000000000000000000000001000
0000000000111110000000011111000000011111000000000000001111000000001111
0000000000000010000000000000000000000000000000000000001000000000000111
1111000000001110000000111111100000000000000000000000111111100000000000
0010000000000000000000000000000000000000001000000000000111111110000000
0000000000111111110000000000000000000001111111110000000000001000000000
0000000000000000000000000000001000000000000111111111000000000000000011
1111111000000000000000000011111111110000000000001000000000000000000000
0000000000000000001000000000000111111111100000000000000011111111110000
0000000000000111111111110000000000001000000000000000000000000000000000
0000001000000000000011111111110000000000000001111111111000000000000000
1111111111100000000000001000000000000000000000000000000000000000100000
0000000001111111111000000000000000111111111100000000000001111111111100
0000000000001000000000000000000000000000000000000000100000000000001111
1111110000000000000001111111111000000000000000111111111110000000000000
1000000000000000000000000000000000000000100000000000011111111110000000
0000000011111111110000000000000000011111111111000000000000100000000000
0000000000000000000000000000100000000000011111111100000000000000001111
1111100000000000000000001111111111000000000000100000000000000000000000
0000000000000000100000000000011111111000000000000000001111111100000000
0000000000000111111111000000000000100000000000000000000000000000000000
0000100000000000011111110000000000000000001111111000000000000000000000
0011111110000000000000100000000000000000000000000000000000000010000000
0000001111100000000000000000000111110000000000000000000000000011110000
0000000000100000000000000000000000000000000000000010000000000000000000
0000000000000000000000000000000000000000000000000000000000000000000010
0000000000000000000000000000000000000010000000000000000000000000000000
0000000000000000000000000000000000000000000000000000000010000000000000
0000000000000000000000000010000000000000000000000000000000000000000000
0000000000000000000000000000000000000000000010000000000000000000000000
0000000000000010000000000000000000000000000000000000000000000000000000
0000000000000000000000000000000010000000000000000000000000000000000000
0010000000000000000000000000000000000000000000000000000000000000000000
0000000000000000000010000000000000000000000000000000000000001000000000
0000000000000000000000000000000000000000000000000000000000000000000000
0000000010000000000000000000000000000000000000001000011011000011100000
0000000000000000000000000000000000000000000000000000000000000000001000
0000000000000000000000000000000000001000111111100111110000000000000000
0000000000000000000000000000000000000000000000000000001000000000000000
0000000000000000000000001001100100110011111000000000000000000000000000
0000000000000000000000000000000000000000001000000000000000000000000000
0000000000001001100100110011111000000000000000000000000000000000000000
0000000000000000000000000000001000000000000000000000000000000000000000
1000111111100111110000000000000000000000000000000000000000000000000000
0000000000000000001000000000000000000000000000000000000000100001101100
0011100000000000000000000000000000000000000000000000000000000000000000
0000001000000000000000000000000000000000000000110000000000000000000000
0000000000000000000000000000000000000000000000000000000000000001100000
0000000000000000000000000000000000011111111111111111111111111111111111
1111111111111111111111111111111111111111111111111111000000000000000000
00