P1
# Created by GIMP version 3.0.4 PNM plug-in
128 64
0000000000000000000001111111111111111111111111111111111111111111111111
1111111111111111111111111111111111111100000000000000000000000000000000
0000000011000000000000000000000000000000000000000000000000000000000000
0000000000000000000000000110000000000000000000000000000000000000001000
0000000000000000000000000000000000000000000000000000000000000000001111
0000111011000010000000000000000000000000000000000000001000000000000000
0000000000000000000000000000000000000000000000000000011111100111111110
0010000000000000000000000000000000000000001000000000000000000000000000
0000000000000000000000000000000000000000111111110100010010001000000000
0000000000000000000000000000001000000000000000000000000000000000000000
0000000000000000000000000000011111100100010010001000000000000000000000
0000000000000000001000000000000000000000000000000000000000000000000000
0000000000000000001111000111111110001000000000000000000000000000000000
0000001000000000000000000000000000000000000000000000000000000000000000
0000000000000011101100001000000000000000000000000000000000000000100000
0000000000000000000000000000000000000000000000000000000000000000000000
0000000000001000000000000000000000000000000000000000100000000000000000
0000000000000000000000000000000000000000000000000000000000000000000000
1000000000000000000000000000000000000000100000000000000000000000000000
0000000000000000000000000000000000000000000000000000000000100000000000
0000000000000000000000000000100000000000000000000000000000000000000000
0000000000000000000000000000000000000000000000100000000000000000000000
0000000000000000100000000000000000000000000000000000000000000000000000
0000000000000000000000000000000000100000000000000000000000000000000000
0000100000000000000000000000000000000000000000000000000000000000000000
0000000000000000000000100000000000000000000000000000000000000010000000
0000000000000000000000000000000000000000000000000000000000000000000000
0000000000100000000000000000000000000000000000000010000000000000000000
0000000000000000000000000000000000000000000000000000000000000000000010
0000000000000000000000000000000000000010000000000000001110000000000000
0000000000011100000000000000000000000011100000000000000010000000000000
0000000000000000000000000010000000000000011111000000000000000000000011
1110000000000000000000000111110000000000000010000000000000000000000000
0000000000000010000000000001111111110000000000000000001111111110000000
0000000000011111111100000000000010000000000000000000000000000000000000
0010000000000111111111111100000000000000111111111111100000000000000111
1111111111000000000010000000000000000000000000000000000000001000000000
1111111111111110000000000001111111111111110000000000001111111111111110
0000000010000000000000000000000000000000000000001000000000011111111111
1100000000000000111111111111100000000000000111111111111100000000001000
0000000000000000000000000000000000001000000000000111111111000000000000
0000001111111110000000000000000001111111110000000000001000000000000000
0000000000000000000000001000000000000001111100000000000000000000001111
1000000000000000000000011111000000000000001000000000000000000000000000
0000000000001000000000000000111000000000000000000000000111000000000000
0000000000001110000000000000001000000000000000000000000000000000000000
1000000000000000000000000000000000000000000000000000000000000000000000
0000000000000000001000000000000000000000000000000000000000100000000000
0000000000000000000000000000000000000000000000000000000000000000000000
0000001000000000000000000000000000000000000000100000000000000000000000
0000000000000000000000000000000000000000000000000000000000000000100000
0000000000000000000000000000000000100000000000000000000000000000011100
0000000000000000000000111000000000000000000000000000100000000000000000
0000000000000000000000100000000000000000000000000000111110000000000000
0000000001111100000000000000000000000000100000000000000000000000000000
0000000000100000000000000000000000000011111111100000000000000000011111
1111000000000000000000000000100000000000000000000000000000000000000010
0000000000000000000000001111111111111000000000000001111111111111000000
0000000000000000100000000000000000000000000000000000000010000000000000
0000000000011111111111111100000000000011111111111111100000000000000000
0000100000000000000000000000000000000000000010000000000000000000000000
1111111111111000000000000001111111111111000000000000000000000010000000
0000000000000000000000000000000010000000000000000000000000001111111110
0000000000000000011111111100000000000000000000000010000000000000000000
0000000000000000000010000000000000000000000000000011111000000000000000
0000000111110000000000000000000000000010000000000000000000000000000000
0000000010000000000000000000000000000001110000000000000000000000001110
0000000000000000000000000010000000000000000000000000000000000000001000
0000000000000000000000000000000000000000000000000000000000000000000000
0000000000000010000000000000000000000000000000000000001000000000000000
0000000000000000000000000000000000000000000000000000000000000000000000
0010000000000000000000000000000000000000001000000000000001111000000000
0000000000000001110000000000000000000000001110000000000000001000000000
0000000000000000000000000000001000000000000011111100000000000000000000
0011111000000000000000000000011111000000000000001000000000000000000000
0000000000000000001000000000001111111111000000000000000000111111111000
0000000000000001111111110000000000001000000000000000000000000000000000
0000001000000000111111111111110000000000000011111111111110000000000000
0111111111111100000000001000000000000000000000000000000000000000100000
0001111111111111111000000000000111111111111111000000000000111111111111
1110000000001000000000000000000000000000000000000000100000000011111111
1111110000000000000011111111111110000000000000011111111111110000000000
1000000000000000000000000000000000000000100000000000111111111100000000
0000000000111111111000000000000000000111111111000000000000100000000000
0000000000000000000000000000100000000000001111111000000000000000000000
1111100000000000000000000001111100000000000000100000000000000000000000
0000000000000000100000000000000111100000000000000000000000011100000000
0000000000000000111000000000000000100000000000000000000000000000000000
0000100000000000000000000000000000000000000000000000000000000000000000
0000000000000000000000100000000000000000000000000000000000000010000000
0000000000000000000000000000000000000000000000000000000000000000000000
0000000000100000000000000000000000000000000000000010000000000000000000
0000000000000000000000000000000000000000000000000000000000000000000010
0000000000000000000000000000000000000010000000000000000000000000000000
0000000000000000000000000000000000000000000000000000000010000000000000
0000000000000000000000000010000000000000000000000000000000000000000000
0000000000000000000000000000000000000000000010000000000000000000000000
0000000000000010000000000000000000000000000000000000000000000000000000
0000000000000000000000000000000010000000000000000000000000000000000000
0010000000000000000000000000000000000000000000000000000000000000000000
0000000000000000000010000000000000000000000000000000000000001000000000
0000000000000000000000000000000000000000000000000000000000000000000000
0000000010000000000000000000000000000000000000001000110011100000000000
0000000000000000000000000000000000000000000000000000000000000000001000
0000000000000000000000000000000000001001111111110001111000000000000000
0000000000000000000000000000000000000000000000000000001000000000000000
0000000000000000000000001001001100010011111100000000000000000000000000
0000000000000000000000000000000000000000001000000000000000000000000000
0000000000001001001100010111111110000000000000000000000000000000000000
0000000000000000000000000000001000000000000000000000000000000000000000
1001111111110011111100000000000000000000000000000000000000000000000000
0000000000000000001000000000000000000000000000000000000000100011001110
0001111000000000000000000000000000000000000000000000000000000000000000
0000001000000000000000000000000000000000000000110000000000000000000000
0000000000000000000000000000000000000000000000000000000000000001100000
0000000000000000000000000000000000011111111111111111111111111111111111
1111111111111111111111111111111111111111111111111111000000000000000000
00