P1
# Created by GIMP version 3.0.4 PNM plug-in
128 64
0000000000000000000011111111111111111111111111111111111111111111111111
1111111111111111111111111111111111111000000000000000000000000000000000
0000000110000000000000000000000000000000000000000000000000000000000000
0000000000000000000000001100000000000000000000000000000000000000010000
0000000000000000000000000000000000000000000000000000000000000000001100
0001001111000100000000000000000000000000000000000000010000000000000000
0000000000000000000000000000000000000000000000000000011110001000100100
0100000000000000000000000000000000000000010000000000000000000000000000
0000000000000000000000000000000000000001001111001000100100010000000000
0000000000000000000000000000010000000000000000000000000000000000000000
0000000000000000000000000001111111101000100100010000000000000000000000
0000000000000000010000000000000000000000000000000000000000000000000000
0000000000000001001111000111000100010000000000000000000000000000000000
0000010000000000000000000000000000000000000000000000000000000000000000
0000011110000000000000010000000000000000000000000000000000000001000000
0000000000000000000000000000000000000000000000000000000000000000110000
0000000000010000000000000000000000000000000000000001000000000000000000
0000000000000000000000000000000000000000000000000000000000000000000001
0000000000000000000000000000000000000001000000000000000000000000000000
0000000000000000000000000000000000000000000000000000000001000000000000
0000000000000000000000000001000000000000000000000000000000000000000000
0000000000000000000000000000000000000000000001000000000000000000000000
0000000000000001000000000000000000000000000000000000000000000000000000
0000000000000000000000000000000001000000000000000000000000000000000000
0001000000000000000000111100000000000000000000000000000000000000000000
1111000000000000000001000000000000000000000000000000000000000100000000
0000000001111110000000000000000000000000000000000000000001111110000000
0000000001000000000000000000000000000000000000000100000000000000001111
1111000000000000000000000000000000000000000011111111000000000000000100
0000000000000000000000000000000000000100000000000000011111111100000000
0000000000000000000000000000000011111111100000000000000100000000000000
0000000000000000000000000100000000000000111111111000100000000000000000
0000000000000000010001111111110000000000000100000000000000000000000000
0000000000000100000000000001111111110001100000000000000000000000000000
0000011000111111111000000000000100000000000000000000000000000000000000
0100000000000011111111111111100000000000000000000000000000000001111111
1111111100000000000100000000000000000000000000000000000000010000000000
0011111111111111100000000000000000000000000000000001111111111111110000
0000000100000000000000000000000000000000000000010000000000000111111111
0001100000000000000000000000000000000001100011111111100000000000010000
0000000000000000000000000000000000010000000000000011111111100010000000
0000000000000000000000000001000111111111000000000000010000000000000000
0000000000000000000000010000000000000001111111110000000000000000000000
0000000000000000001111111110000000000000010000000000000000000000000000
0000000000010000000000000000111111110000000000000000000000000000000000
0000001111111100000000000000010000000000000000000000000000000000000001
0000000000000000011111100000000000000000011110000000000000000000011111
1000000000000000010000000000000000000000000000000000000001000000000000
0000001111000000000000000000111111000000000000000000001111000000000000
0000010000000000000000000000000000000000000001000000000000000000000000
0000000000000001111111100000000000000000000000000000000000000001000000
0000000000000000000000000000000001000000000000000000000000000000000000
0001111111110000000000000000000000000000000000000001000000000000000000
0000000000000000000001000000000000000000000000000000000000100011111111
1000000000000000000000000000000000000001000000000000000000000000000000
0000000001000000000000000000000000000000000000110001111111110000000000
0000000000000000000000000001000000000000000000000000000000000000000100
0000000000000000000000000000000000111111111111111000000000000000000000
0000000000000001000000000000000000000000000000000000000100000000000000
0000000000000000000000111111111111111000000000000000000000000000000000
0001000000000000000000000000000000000000000100000000000000000000000000
0000000000110001111111110000000000000000000000000000000000000100000000
0000000000000000000000000000000100000000000000000000000000000000000010
0011111111100000000000000000000000000000000000000100000000000000000000
0000000000000000000100000000000000000000000000000000000000011111111100
0000000000000000000000000000000000000100000000000000000000000000000000
0000000100000000000000000000000000000000000000011111111000000000000000
0000000000000000000000000100000000000000000000000000000000000000010000
0000000000000011110000000000000000001111110000000000000000000011110000
0000000000000100000000000000000000000000000000000000010000000000000000
0111111000000000000000000111100000000000000000000111111000000000000000
0100000000000000000000000000000000000000010000000000000000111111110000
0000000000000000000000000000000000001111111100000000000000010000000000
0000000000000000000000000000010000000000000001111111110000000000000000
0000000000000000000000001111111110000000000000010000000000000000000000
0000000000000000010000000000000011111111100010000000000000000000000000
0000000001000111111111000000000000010000000000000000000000000000000000
0000010000000000000111111111000110000000000000000000000000000000000110
0011111111100000000000010000000000000000000000000000000000000001000000
0000001111111111111110000000000000000000000000000000000111111111111111
0000000000010000000000000000000000000000000000000001000000000000111111
1111111110000000000000000000000000000000000111111111111111000000000001
0000000000000000000000000000000000000001000000000000011111111100011000
0000000000000000000000000000000110001111111110000000000001000000000000
0000000000000000000000000001000000000000001111111110001000000000000000
0000000000000000000100011111111100000000000001000000000000000000000000
0000000000000001000000000000000111111111000000000000000000000000000000
0000000000111111111000000000000001000000000000000000000000000000000000
0001000000000000000011111111000000000000000000000000000000000000000011
1111110000000000000001000000000000000000000000000000000000000100000000
0000000001111110000000000000000000000000000000000000000001111110000000
0000000001000000000000000000000000000000000000000100000000000000000011
1100000000000000000000000000000000000000000000111100000000000000000100
0000000000000000000000000000000000000100000000000000000000000000000000
0000000000000000000000000000000000000000000000000000000100000000000000
0000000000000000000000000100000000000000000000000000000000000000000000
0000000000000000000000000000000000000000000100000000000000000000000000
0000000000000100000000000000000000000000000000000000000000000000000000
0000000000000000000000000000000100000000000000000000000000000000000000
0100000000000000000000000000000000000000000000000000000000000000000000
0000000000000000000100000000000000000000000000000000000000010000000000
0000011000000000000000000000000000000000000000000000000000000000000000
0000000100000000000000000000000000000000000000010001000111000011110000
0000000000000000000000000000000000000000000000000000000000000000010000
0000000000000000000000000000000000010001001000100111100100000000000000
0000000000000000000000000000000000000000000000000000010000000000000000
0000000000000000000000010001001000101111111100000000000000000000000000
0000000000000000000000000000000000000000010000000000000000000000000000
0000000000010001001000100111100100000000000000000000000000000000000000
0000000000000000000000000000010000000000000000000000000000000000000001
0001111001000011110000000000000000000000000000000000000000000000000000
0000000000000000010000000000000000000000000000000000000001000000000000
0001100000000000000000000000000000000000000000000000000000000000000000
0000010000000000000000000000000000000000000001100000000000000000000000
0000000000000000000000000000000000000000000000000000000000000011000000
0000000000000000000000000000000000111111111111111111111111111111111111
1111111111111111111111111111111111111111111111111110000000000000000000
00