P1
# Created by GIMP version 3.0.4 PNM plug-in
128 64
0000000000000000000001111111111111111111111111111111111111111111111111
1111111111111111111111111111111111111100000000000000000000000000000000
0000000011000000000000000000000000000000000000000000000000000000000000
0000000000000000000000000110000000000000000000000000000000000000001000
0000000000000000000000000000000000000000000000000000000000000000000111
0000000000000010000000000000000000000000000000000000001000000000000000
0000000000000000000000000000000000000000000000000000001111100110011110
0010000000000000000000000000000000000000001000000000000000000000000000
0000000000000000000000000000000000000000011111110100010010001000000000
0000000000000000000000000000001000000000000000000000000000000000000000
0000000000000000000000000000001111100100010010001000000000000000000000
0000000000000000001000000000000000000000000000000000000000000000000000
0000000000000000000111000111110010001000000000000000000000000000000000
0000001000000000000000000000000000000000000000000000000000000000000000
0000000000000011100010001000000000000000000000000000000000000000100000
0000000000000000000000000000000000000000000000000000000000000000000000
0000000000001000000000000000000000000000000000000000100000000000000000
0000000000000000000000000000000000000000000000000000000000000000000000
1000000000000000000000000000000000000000100000000000000000000000000000
0000000000000000000000000000000000000000000000000000000000100000000000
0000000000000000000000000000100000000000000000000000000000000000000000
0000000000000000000000000000000000000000000000100000000000000000000000
0000000000000000100000000000000000000000000000000000000000000000000000
0000000000000000000000000000000000100000000000000000000000000000000000
0000100000000000000000000000000000000000000000000000000000000000000000
0000000000000000000000100000000000000000000000000000000000000010000000
0000000000000000000000000000000000000000000000000000000000000000000000
0000000000100000000000000000000000000000000000000010000000000000001111
0000000000000000000000000000000000000000000000000111100000000000000010
0000000000000000000000000000000000000010000000000000011111100000000000
0000000000000000000000000000000000001111110000000000000010000000000000
0000000000000000000000000010000000000001111111111000000000000000000000
0000000000000000000000111111111100000000000010000000000000000000000000
0000000000000010000000000111111111111110000000000000000000000000000000
0000000011111111111111000000000010000000000000000000000000000000000000
0010000000001111111111111111000000000000000000000000000000000000011111
1111111111100000000010000000000000000000000000000000000000001000000000
0111111111111110000000000000000000000000000000000000001111111111111100
0000000010000000000000000000000000000000000000001000000000000111111111
1000000000000000000000000000000000000000000011111111110000000000001000
0000000000000000000000000000000000001000000000000001111110000000000000
0000000000000000000000000000000000111111000000000000001000000000000000
0000000000000000000000001000000000000000111100000000000000000000000000
0000000000000000000000011110000000000000001000000000000000000000000000
0000000000001000000000000000000000000000000000000000000000000000000000
0000000000000000000000000000001000000000000000000000000000000000000000
1000000000000000000000000000000000000000000000000000000000000000000000
0000000000000000001000000000000000000000000000000000000000100000000000
0000000000000000000000000000000000000000000000000000000000000000000000
0000001000000000000000000000000000000000000000100000000000000000000000
0000000000000000000111100000000000000000000000000000000000000000100000
0000000000000000000000000000000000100000000000000000000000000000000000
0000001111110000000000000000000000000000000000000000100000000000000000
0000000000000000000000100000000000000000000000000000000000000011111111
1100000000000000000000000000000000000000100000000000000000000000000000
0000000000100000000000000000000000000000000000001111111111111100000000
0000000000000000000000000000100000000000000000000000000000000000000010
0000000000000000000000000000000000011111111111111110000000000000000000
0000000000000000100000000000000000000000000000000000000010000000000000
0000000000000000000000001111111111111100000000000000000000000000000000
0000100000000000000000000000000000000000000010000000000000000000000000
0000000000000011111111110000000000000000000000000000000000000010000000
0000000000000000000000000000000010000000000000000000000000000000000000
0000111111000000000000000000000000000000000000000010000000000000000000
0000000000000000000010000000000000000000000000000000000000000001111000
0000000000000000000000000000000000000010000000000000000000000000000000
0000000010000000000000000000000000000000000000000000000000000000000000
0000000000000000000000000010000000000000000000000000000000000000001000
0000000000000000000000000000000000000000000000000000000000000000000000
0000000000000010000000000000000000000000000000000000001000000000000000
0000000000000000000000000000000000000000000000000000000000000000000000
0010000000000000000000000000000000000000001000000000000000111100000000
0000000000000000000000000000000000000000001111000000000000001000000000
0000000000000000000000000000001000000000000001111110000000000000000000
0000000000000000000000000000111111100000000000001000000000000000000000
0000000000000000001000000000000111111111100000000000000000000000000000
0000000000000011111111111000000000001000000000000000000000000000000000
0000001000000000011111111111111000000000000000000000000000000000000000
1111111111111110000000001000000000000000000000000000000000000000100000
0000111111111111111100000000000000000000000000000000000001111111111111
1111000000001000000000000000000000000000000000000000100000000001111111
1111111000000000000000000000000000000000000000111111111111111000000000
1000000000000000000000000000000000000000100000000000011111111110000000
0000000000000000000000000000000000001111111111100000000000100000000000
0000000000000000000000000000100000000000000111111000000000000000000000
0000000000000000000000000011111110000000000000100000000000000000000000
0000000000000000100000000000000011110000000000000000000000000000000000
0000000000000000111100000000000000100000000000000000000000000000000000
0000100000000000000000000000000000000000000000000000000000000000000000
0000000000000000000000100000000000000000000000000000000000000010000000
0000000000000000000000000000000000000000000000000000000000000000000000
0000000000100000000000000000000000000000000000000010000000000000000000
0000000000000000000000000000000000000000000000000000000000000000000010
0000000000000000000000000000000000000010000000000000000000000000000000
0000000000000000000000000000000000000000000000000000000010000000000000
0000000000000000000000000010000000000000000000000000000000000000000000
0000000000000000000000000000000000000000000010000000000000000000000000
0000000000000010000000000000000000000000000000000000000000000000000000
0000000000000000000000000000000010000000000000000000000000000000000000
0010000000000000000000000000000000000000000000000000000000000000000000
0000000000000000000010000000000000000000000000000000000000001000000000
0000000000000000000000000000000000000000000000000000000000000000000000
0000000010000000000000000000000000000000000000001000100011100001110000
0000000000000000000000000000000000000000000000000000000000000000001000
0000000000000000000000000000000000001000100111110011111000000000000000
0000000000000000000000000000000000000000000000000000001000000000000000
0000000000000000000000001000100100010111111100000000000000000000000000
0000000000000000000000000000000000000000001000000000000000000000000000
0000000000001000100100010011111000000000000000000000000000000000000000
0000000000000000000000000000001000000000000000000000000000000000000000
1000111100110001110000000000000000000000000000000000000000000000000000
0000000000000000001000000000000000000000000000000000000000100000000000
0000000000000000000000000000000000000000000000000000000000000000000000
0000001000000000000000000000000000000000000000110000000000000000000000
0000000000000000000000000000000000000000000000000000000000000001100000
0000000000000000000000000000000000011111111111111111111111111111111111
1111111111111111111111111111111111111111111111111111000000000000000000
00