P1
# Created by GIMP version 3.0.4 PNM plug-in
128 64
0000000000000000000001111111111111111111111111111111111111111111111111
1111111111111111111111111111111111111100000000000000000000000000000000
0000000011000000000000000000000000000000000000000000000000000000000000
0000000000000000000000000110000000000000000000000000000000000000001000
0000000000000000000000000000000000000000000000000000000000000000000001
1000000000000010000000000000000000000000000000000000001000000000000000
0000000000000000000000000000000000000000000000000000000011110110011110
0010000000000000000000000000000000000000001000000000000000000000000000
0000000000000000000000000000000000000000000111110100010010001000000000
0000000000000000000000000000001000000000000000000000000000000000000000
0000000000000000000000000000001111100100010010001000000000000000000000
0000000000000000001000000000000000000000000000000000000000000000000000
0000000000000000000111110111110010001000000000000000000000000000000000
0000001000000000000000000000000000000000000000000000000000000000000000
0000000011110000000000001000000000000000000000000000000000000000100000
0000000000000000000000000000000000000000000000000000000000000000000110
0000000000001000000000000000000000000000000000000000100000000000000000
0000000000000000000000000000000000000000000000000000000000000000000000
1000000000000000000000000000000000000000100000000000000000000000000000
0000000000000000000000000000000000000000000000000000000000100000000000
0000000000000000000000000000100000000000000000000000000000000000000000
0000000000000000000000000000000000000000000000100000000000000000000000
0000000000000000100000000000000000000000000000000000000000000000000000
0000000000000000000000000000000000100000000000000000000000000000000000
0000100000000000000000000000000000000000000000000000000000000000000000
0000000000000000000000100000000000000000000000000000000000000010000000
0000000111100000000000000000000000000000000000000000000000000011110000
0000000000100000000000000000000000000000000000000010000000000000111111
0000000000000000000000000000000000000000000000000111111000000000000010
0000000000000000000000000000000000000010000000000000111111100000000000
0000000000000000000000000000000000001111111100000000000010000000000000
0000000000000000000000000010000000000000111111110000000000000000000000
0000000000000000000000011111111100000000000010000000000000000000000000
0000000000000010000000000000111111111000000000000000000000000000000000
0000000000111111111100000000000010000000000000000000000000000000000000
0010000000000000011111111100000000000000000000000000000000000000000111
1111111000000000000010000000000000000000000000000000000000001000000000
0000001111111110000000000000000000000000000000000000001111111111000000
0000000010000000000000000000000000000000000000001000000000000001111111
1100000000000000000000000000000000000000000111111111100000000000001000
0000000000000000000000000000000000001000000000000011111111100000000000
0000000000000000000000000000000011111111110000000000001000000000000000
0000000000000000000000001000000000000011111111000000000000000000000000
0000000000000000000001111111110000000000001000000000000000000000000000
0000000000001000000000000011111110000000000000000000000000000000000000
0000000000111111110000000000001000000000000000000000000000000000000000
1000000000000011111100000000000000000000000001111000000000000000000001
1111100000000000001000000000000000000000000000000000000000100000000000
0001111000000000000000000000000011111100000000000000000000111100000000
0000001000000000000000000000000000000000000000100000000000000000000000
0000000000000000000111111100000000000000000000000000000000000000100000
0000000000000000000000000000000000100000000000000000000000000000000000
0000001111111100000000000000000000000000000000000000100000000000000000
0000000000000000000000100000000000000000000000000000000000000001111111
1100000000000000000000000000000000000000100000000000000000000000000000
0000000000100000000000000000000000000000000000000011111111100000000000
0000000000000000000000000000100000000000000000000000000000000000000010
0000000000000000000000000000000000000111111111000000000000000000000000
0000000000000000100000000000000000000000000000000000000010000000000000
0000000000000000000000000011111111100000000000000000000000000000000000
0000100000000000000000000000000000000000000010000000000000000000000000
0000000000000001111111110000000000000000000000000000000000000010000000
0000000000000000000000000000000010000000000000000000000000000000000000
0000111111110000000000000000000000000000000000000010000000000000000000
0000000000000000000010000000000000000000000000000000000000000001111111
0000000000000000000000000000000000000010000000000000000000000000000000
0000000010000000000000000000000000000000000000000000111111000000000000
0000000000000000000000000010000000000000000000000000000000000000001000
0000000000011110000000000000000000000000011110000000000000000000001111
0000000000000010000000000000000000000000000000000000001000000000000011
1111000000000000000000000000000000000000000000000000011111100000000000
0010000000000000000000000000000000000000001000000000000011111110000000
0000000000000000000000000000000000000000111111110000000000001000000000
0000000000000000000000000000001000000000000011111111000000000000000000
0000000000000000000000000001111111110000000000001000000000000000000000
0000000000000000001000000000000011111111100000000000000000000000000000
0000000000000011111111110000000000001000000000000000000000000000000000
0000001000000000000001111111110000000000000000000000000000000000000000
0111111111100000000000001000000000000000000000000000000000000000100000
0000000000111111111000000000000000000000000000000000000000111111111100
0000000000001000000000000000000000000000000000000000100000000000000111
1111110000000000000000000000000000000000000000011111111110000000000000
1000000000000000000000000000000000000000100000000000001111111110000000
0000000000000000000000000000000000001111111111000000000000100000000000
0000000000000000000000000000100000000000001111111100000000000000000000
0000000000000000000000000111111111000000000000100000000000000000000000
0000000000000000100000000000001111111000000000000000000000000000000000
0000000000000011111111000000000000100000000000000000000000000000000000
0000100000000000001111110000000000000000000000000000000000000000000000
0001111110000000000000100000000000000000000000000000000000000010000000
0000000111100000000000000000000000000000000000000000000000000011110000
0000000000100000000000000000000000000000000000000010000000000000000000
0000000000000000000000000000000000000000000000000000000000000000000010
0000000000000000000000000000000000000010000000000000000000000000000000
0000000000000000000000000000000000000000000000000000000010000000000000
0000000000000000000000000010000000000000000000000000000000000000000000
0000000000000000000000000000000000000000000010000000000000000000000000
0000000000000010000000000000000000000000000000000000000000000000000000
0000000000000000000000000000000010000000000000000000000000000000000000
0010000000000000000000000000000000000000000000000000000000000000000000
0000000000000000000010000000000000000000000000000000000000001000000000
0000110000000000000000000000000000000000000000000000000000000000000000
0000000010000000000000000000000000000000000000001000000000000111100000
0000000000000000000000000000000000000000000000000000000000000000001000
0000000000000000000000000000000000001000100111110111110000000000000000
0000000000000000000000000000000000000000000000000000001000000000000000
0000000000000000000000001000100100010011111000000000000000000000000000
0000000000000000000000000000000000000000001000000000000000000000000000
0000000000001000100100010111110000000000000000000000000000000000000000
0000000000000000000000000000001000000000000000000000000000000000000000
1000111100110111100000000000000000000000000000000000000000000000000000
0000000000000000001000000000000000000000000000000000000000100000000000
0011000000000000000000000000000000000000000000000000000000000000000000
0000001000000000000000000000000000000000000000110000000000000000000000
0000000000000000000000000000000000000000000000000000000000000001100000
0000000000000000000000000000000000011111111111111111111111111111111111
1111111111111111111111111111111111111111111111111111000000000000000000
00