P1
# Created by GIMP version 3.0.4 PNM plug-in
128 64
0000000000000000000011111111111111111111111111111111111111111111111111
1111111111111111111111111111111111111100000000000000000000000000000000
0000000110000000000000000000000000000000000000000000000000000000000000
0000000000000000000000000110000000000000000000000000000000000000010000
0000000000000000000000000000000000000000000000000000000000000000000110
0000001100000010000000000000000000000000000000000000010000000000000000
0000000000000000000000000000000000000000000000000000001111000000101000
0010000000000000000000000000000000000000010000000000000000000000000000
0000000000000000000000000000000000000000100111100100100110001000000000
0000000000000000000000000000010000000000000000000000000000000000000000
0000000000000000000000000000111111110111111111001000000000000000000000
0000000000000000010000000000000000000000000000000000000000000000000000
0000000000000000100111100100100000001000000000000000000000000000000000
0000010000000000000000000000000000000000000000000000000000000000000000
0000001111000000100000001000000000000000000000000000000000000001000000
0000000000000000000000000000000000000000000000000000000000000000011000
0000000000001000000000000000000000000000000000000001000000000000000000
0000000000000000000000000000000000000000000000000000000000000000000000
1000000000000000000000000000000000000001000000000000000000000000000000
0000000000000000000000000000000000000000000000000000000000100000000000
0000000000000000000000000001000000000000000000000000000000000000000000
0000000000000000000000000000000000000000000000100000000000000000000000
0000000000000001000000000000000000000000000000000000000000000000000000
0000000000000000000000000000000000100000000000000000000000000000000000
0001000000000000000001111100000000000000000000000000000000000000000000
1111100000000000000000100000000000000000000000000000000000000100000000
0000000011111110000000000000000000000000000000000000000001111111000000
0000000000100000000000000000000000000000000000000100000000000000011111
1110000000000000000000000000000000000000000011111111100000000000000010
0000000000000000000000000000000000000100000000000000111111111000000000
0000000000000000000000000000000011111111110000000000000010000000000000
0000000000000000000000000100000000000001111111110001000000000000000000
0000000000000000010001111111111000000000000010000000000000000000000000
0000000000000100000000000011111111100011000000000000000000000000000000
0000011000111111111100000000000010000000000000000000000000000000000000
0100000000000111111111111111000000000000000000000000000000000001111111
1111111110000000000010000000000000000000000000000000000000010000000000
0111111111111111000000000000000000000000000000000001111111111111111000
0000000010000000000000000000000000000000000000010000000000001111111110
0011000000000000000000000000000000000001100011111111110000000000001000
0000000000000000000000000000000000010000000000000111111111000100000000
0000000000000000000000000001000111111111100000000000001000000000000000
0000000000000000000000010000000000000011111111100000000000000000000000
0000000000000000001111111111000000000000001000000000000000000000000000
0000000000010000000000000001111111100000000000000000000000000000000000
0000001111111110000000000000001000000000000000000000000000000000000001
0000000000000000111111100000000000000000000000000000000000000000011111
1100000000000000001000000000000000000000000000000000000001000000000000
0000001111000000000000000000000000000000000000000000001111100000000000
0000001000000000000000000000000000000000000001000000000000000000000000
0000000000000000000000000000000000000000000000000000000000000000100000
0000000000000000000000000000000001000000000000000000000000000000000000
0000000000000000000000000000000000000000000000000000100000000000000000
0000000000000000000001000000000000000000000000000000000000000000000000
0000000000000000000000000000000000000000100000000000000000000000000000
0000000001000000000000000000000000000000000000000000000000000000000000
0000000000000000000000000000100000000000000000000000000000000000000100
0000000000000000000000000000000000000000000000000000000000000000000000
0000000000000000100000000000000000000000000000000000000100000000000000
0000000000000000000000000000000000000000000000000000000000000000000000
0000100000000000000000000000000000000000000100000000000000000000000000
0000000000000000000000000000000000000000000000000000000000000010000000
0000000000000000000000000000000100000000000000000000000000000000000000
0000000000000000000000000000000000000000000000000010000000000000000000
0000000000000000000100000000000000000000000000000000000000000000000000
0000000000000000000000000000000000000010000000000000000000000000000000
0000000100000000000000000000000000000000000000000000000000000000000000
0000000000000000000000000010000000000000000000000000000000000000010000
0000000000000111110000000000000000000000000000000000000000000011111000
0000000000000010000000000000000000000000000000000000010000000000000000
1111111000000000000000000000000000000000000000000111111100000000000000
0010000000000000000000000000000000000000010000000000000001111111100000
0000000000000000000000000000000000001111111110000000000000001000000000
0000000000000000000000000000010000000000000011111111100000000000000000
0000000000000000000000001111111111000000000000001000000000000000000000
0000000000000000010000000000000111111111000100000000000000000000000000
0000000001000111111111100000000000001000000000000000000000000000000000
0000010000000000001111111110001100000000000000000000000000000000000110
0011111111110000000000001000000000000000000000000000000000000001000000
0000011111111111111100000000000000000000000000000000000111111111111111
1000000000001000000000000000000000000000000000000001000000000001111111
1111111100000000000000000000000000000000000111111111111111100000000000
1000000000000000000000000000000000000001000000000000111111111000110000
0000000000000000000000000000000110001111111111000000000000100000000000
0000000000000000000000000001000000000000011111111100010000000000000000
0000000000000000000100011111111110000000000000100000000000000000000000
0000000000000001000000000000001111111110000000000000000000000000000000
0000000000111111111100000000000000100000000000000000000000000000000000
0001000000000000000111111110000000000000000000000000000000000000000011
1111111000000000000000100000000000000000000000000000000000000100000000
0000000011111110000000000000000000000000000000000000000001111111000000
0000000000100000000000000000000000000000000000000100000000000000000111
1100000000000000000000000000000000000000000000111110000000000000000010
0000000000000000000000000000000000000100000000000000000000000000000000
0000000000000000000000000000000000000000000000000000000010000000000000
0000000000000000000000000100000000000000000000000000000000000000000000
0000000000000000000000000000000000000000000010000000000000000000000000
0000000000000100000000000000000000000000000000000000000000000000000000
0000000000000000000000000000000010000000000000000000000000000000000000
0100000000000000000000000000000000000000000000000000000000000000000000
0000000000000000000010000000000000000000000000000000000000010000000000
0000011000000000000000000000000000000000000000000000000000000000000000
0000000010000000000000000000000000000000000000010000000010000011110000
0000000000000000000000000000000000000000000000000000000000000000001000
0000000000000000000000000000000000010000000010100111100100000000000000
0000000000000000000000000000000000000000000000000000001000000000000000
0000000000000000000000010001111111101111111100000000000000000000000000
0000000000000000000000000000000000000000001000000000000000000000000000
0000000000010000110010100111100100000000000000000000000000000000000000
0000000000000000000000000000001000000000000000000000000000000000000001
0000001010000011110000000000000000000000000000000000000000000000000000
0000000000000000001000000000000000000000000000000000000001000000011000
0001100000000000000000000000000000000000000000000000000000000000000000
0000001000000000000000000000000000000000000001100000000000000000000000
0000000000000000000000000000000000000000000000000000000000000001100000
0000000000000000000000000000000000111111111111111111111111111111111111
1111111111111111111111111111111111111111111111111111000000000000000000
00