P1
# Created by GIMP version 3.0.4 PNM plug-in
128 64
0000000000000000000011111111111111111111111111111111111111111111111111
1111111111111111111111111111111111111100000000000000000000000000000000
0000000110000000000000000000000000000000000000000000000000000000000000
0000000000000000000000000110000000000000000000000000000000000000010000
0000000000000000000000000000000000000000000000000000000000000000000011
1000011000000010000000000000000000000000000000000000010000000000000000
0000000000000000000000000000000000000000000000000000000111110001011000
0010000000000000000000000000000000000000010000000000000000000000000000
0000000000000000000000000000000000000000001111110101001100001000000000
0000000000000000000000000000010000000000000000000000000000000000000000
0000000000000000000000000000011111100111111110001000000000000000000000
0000000000000000010000000000000000000000000000000000000000000000000000
0000000000000000001111110101000000001000000000000000000000000000000000
0000010000000000000000000000000000000000000000000000000000000000000000
0000000111110000000000001000000000000000000000000000000000000001000000
0000000000000000000000000000000000000000000000000000000000000000001110
0000000000001000000000000000000000000000000000000001000000000000000000
0000000000000000000000000000000000000000000000000000000000000000000000
1000000000000000000000000000000000000001000000000000000000000000000000
0000000000000000000000000000000000000000000000000000000000100000000000
0000000000000000000000000001000000000000000000000000000000000000000000
0000000000000000000000000000000000000000000000100000000000000000000000
0000000000000001000000000000000000000000000000000000000000000000000000
0000000000000000000000000000000000100000000000000000000000000000000000
0001000000000000001111000000000000000000000000000000000000000000000000
0000111100000000000000100000000000000000000000000000000000000100000000
0000011111100000000000000000000000000000000000000000000000000111111000
0000000000100000000000000000000000000000000000000100000000000011111111
0000000000000000000000000000000000000000000000001111111100000000000010
0000000000000000000000000000000000000100000000000011111111100000000000
0000000000000000000000000000000000011111111100000000000010000000000000
0000000000000000000000000100000000000011111111110000000000000000000000
0000000000000000000000111111111100000000000010000000000000000000000000
0000000000000100000000000001111111111000000000000000000000000000000000
0000000001111111111000000000000010000000000000000000000000000000000000
0100000000000000111111111100000000000000000000000000000000000000001111
1111110000000000000010000000000000000000000000000000000000010000000000
0000111111111100000000000000000000000000000000000000001111111111000000
0000000010000000000000000000000000000000000000010000000000000111111111
1000000000000000000000000000000000000000000111111111100000000000001000
0000000000000000000000000000000000010000000000001111111111000000000000
0000000000000000000000000000000011111111110000000000001000000000000000
0000000000000000000000010000000000001111111110000000000000000000000000
0000000000000000000001111111110000000000001000000000000000000000000000
0000000000010000000000001111111110000000000000000000000000000000000000
0000000001111111110000000000001000000000000000000000000000000000000001
0000000000000111111100000000000000000000000000000000000000000000000011
1111100000000000001000000000000000000000000000000000000001000000000000
0011110000000000000000000000000000000000000000000000000000111100000000
0000001000000000000000000000000000000000000001000000000000000000000000
0000000000000000000000000000000000000000000000000000000000000000100000
0000000000000000000000000000000001000000000000000000000000000000000000
0000000000000000000000000000000000000000000000000000100000000000000000
0000000000000000000001000000000000000000000000000000000000000000000000
0000000000000000000000000000000000000000100000000000000000000000000000
0000000001000000000000000000000000000000000000000000000000000000000000
0000000000000000000000000000100000000000000000000000000000000000000100
0000000000000000000000000000000000000000000000000000000000000000000000
0000000000000000100000000000000000000000000000000000000100000000000000
0000000000000000000000000000000000000000000000000000000000000000000000
0000100000000000000000000000000000000000000100000000000000000000000000
0000000000000000000000000000000000000000000000000000000000000010000000
0000000000000000000000000000000100000000000000000000000000000000000000
0000000000000000000000000000000000000000000000000010000000000000000000
0000000000000000000100000000000000000000000000000000000000000000000000
0000000000000000000000000000000000000010000000000000000000000000000000
0000000100000000000000000000000000000000000000000000000000000000000000
0000000000000000000000000010000000000000000000000000000000000000010000
0000000000111100000000000000000000000000000000000000000000000000001111
0000000000000010000000000000000000000000000000000000010000000000000111
1111000000000000000000000000000000000000000000000000111111100000000000
0010000000000000000000000000000000000000010000000000001111111110000000
0000000000000000000000000000000000000001111111110000000000001000000000
0000000000000000000000000000010000000000001111111110000000000000000000
0000000000000000000000000001111111110000000000001000000000000000000000
0000000000000000010000000000001111111111000000000000000000000000000000
0000000000000011111111110000000000001000000000000000000000000000000000
0000010000000000000111111111100000000000000000000000000000000000000000
0111111111100000000000001000000000000000000000000000000000000001000000
0000000011111111110000000000000000000000000000000000000000111111111100
0000000000001000000000000000000000000000000000000001000000000000001111
1111110000000000000000000000000000000000000000111111111100000000000000
1000000000000000000000000000000000000001000000000000011111111110000000
0000000000000000000000000000000000011111111110000000000000100000000000
0000000000000000000000000001000000000000111111111100000000000000000000
0000000000000000000000001111111111000000000000100000000000000000000000
0000000000000001000000000000111111111000000000000000000000000000000000
0000000000000111111111000000000000100000000000000000000000000000000000
0001000000000000111111111000000000000000000000000000000000000000000000
0111111111000000000000100000000000000000000000000000000000000100000000
0000011111110000000000000000000000000000000000000000000000001111111000
0000000000100000000000000000000000000000000000000100000000000000111100
0000000000000000000000000000000000000000000000000011110000000000000010
0000000000000000000000000000000000000100000000000000000000000000000000
0000000000000000000000000000000000000000000000000000000010000000000000
0000000000000000000000000100000000000000000000000000000000000000000000
0000000000000000000000000000000000000000000010000000000000000000000000
0000000000000100000000000000000000000000000000000000000000000000000000
0000000000000000000000000000000010000000000000000000000000000000000000
0100000000000000000000000000000000000000000000000000000000000000000000
0000000000000000000010000000000000000000000000000000000000010000000000
0001110000000000000000000000000000000000000000000000000000000000000000
0000000010000000000000000000000000000000000000010000000010101111100000
0000000000000000000000000000000000000000000000000000000000000000001000
0000000000000000000000000000000000010001111111101111110000000000000000
0000000000000000000000000000000000000000000000000000001000000000000000
0000000000000000000000010000110010100111111000000000000000000000000000
0000000000000000000000000000000000000000001000000000000000000000000000
0000000000010000011010001111110000000000000000000000000000000000000000
0000000000000000000000000000001000000000000000000000000000000000000001
0000000110001111100000000000000000000000000000000000000000000000000000
0000000000000000001000000000000000000000000000000000000001000000000000
0111000000000000000000000000000000000000000000000000000000000000000000
0000001000000000000000000000000000000000000001100000000000000000000000
0000000000000000000000000000000000000000000000000000000000000001100000
0000000000000000000000000000000000111111111111111111111111111111111111
1111111111111111111111111111111111111111111111111111000000000000000000
00