P1
# Created by GIMP version 3.0.4 PNM plug-in
128 64
0000000000000000000001111111111111111111111111111111111111111111111111
1111111111111111111111111111111111111100000000000000000000000000000000
0000000011000000000000000000000000000000000000000000000000000000000000
0000000000000000000000000110000000000000000000000000000000000000001000
0000000000000000000000000000000000000000000000000000000000000000000010
0000000000000010000000000000000000000000000000000000001000000000000000
0000000000000000000000000000000000000000000000000000000111000000110000
0010000000000000000000000000000000000000001000000000000000000000000000
0000000000000000000000000000000000000000001111000000101100001000000000
0000000000000000000000000000001000000000000000000000000000000000000000
0000000000000000000000000000010111110010100011001000000000000000000000
0000000000000000001000000000000000000000000000000000000000000000000000
0000000000000000011111111011111111001000000000000000000000000000000000
0000001000000000000000000000000000000000000000000000000000000000000000
0000010111110010100000001000000000000000000000000000000000000000100000
0000000000000000000000000000000000000000000000000000000000000000111100
0000100000001000000000000000000000000000000000000000100000000000000000
0000000000000000000000000000000000000000000000000000011100000000000000
1000000000000000000000000000000000000000100000000000000000000000000000
0000000000000000000000000000000000000000001000000000000000100000000000
0000000000000000000000000000100000000000000000000000000000000000000000
0000000000000000000000000000000000000000000000100000000000000000000000
0000000000000000100000000000000000000000000000000000000000000000000000
0000000000000000000000000000000000100000000000000000000000000000000000
0000100000000000000000000000000000000000000000000000000000000000000000
0000000000000000000000100000000000000000000000000000000000000010000000
0000000001111000000000000000000000000000000000000000000000000111100000
0000000000100000000000000000000000000000000000000010000000000000001111
1000000000000000000000000000000000000000000000000111110000000000000010
0000000000000000000000000000000000000010000000000000001111110000000000
0000000000000000000000000000000000001111110000000000000010000000000000
0000000000000000000000000010000000000011111111110000000000000000000000
0000000000000000000000001111111111000000000010000000000000000000000000
0000000000000010000000000111111111100110000000000000000000000000000000
0000000001100111111111100000000010000000000000000000000000000000000000
0010000000000111111111111110000000000000000000000000000000000000000111
1111111111100000000010000000000000000000000000000000000000001000000000
0111111111111110000000000000000000000000000000000000000111111111111110
0000000010000000000000000000000000000000000000001000000000011111111110
0110000000000000000000000000000000000000000110011111111110000000001000
0000000000000000000000000000000000001000000000001111111111000000000000
0000000000000000000000000000000000111111111100000000001000000000000000
0000000000000000000000001000000000000000111111000000000000000000000000
0000000000000000000000111111000000000000001000000000000000000000000000
0000000000001000000000000000111110000000000000000000000000000000000000
0000000000011111000000000000001000000000000000000000000000000000000000
1000000000000000011110000000000000000000000000000000000000000000000001
1110000000000000001000000000000000000000000000000000000000100000000000
0000000000000000000000000000000000000000000000000000000000000000000000
0000001000000000000000000000000000000000000000100000000000000000000000
0000000000000000000000000000000000000000000000000000000000000000100000
0000000000000000000000000000000000100000000000000000000000000000000000
0000000000000000000000000000000000000000000000000000100000000000000000
0000000000000000000000100000000000000000000000000000000000000000000000
0000000000000000000000000000000000000000100000000000000000000000000000
0000000000100000000000000000000000000000000000000000000000000000000000
0000000000000000000000000000100000000000000000000000000000000000000010
0000000000000000000000000000000000000000000000000000000000000000000000
0000000000000000100000000000000000000000000000000000000010000000000000
0000000000000000000000000000000000000000000000000000000000000000000000
0000100000000000000000000000000000000000000010000000000000000000000000
0000000000000000000000000000000000000000000000000000000000000010000000
0000000000000000000000000000000010000000000000000000000000000000000000
0000000000000000000000000000000000000000000000000010000000000000000000
0000000000000000000010000000000000000000000000000000000000000000000000
0000000000000000000000000000000000000010000000000000000000000000000000
0000000010000000000000000000000000000000000000000000000000000000000000
0000000000000000000000000010000000000000000000000000000000000000001000
0000000000000000000000000000000000000000000000000000000000000000000000
0000000000000010000000000000000000000000000000000000001000000000000000
0111100000000000000000000000000000000000000000000000011110000000000000
0010000000000000000000000000000000000000001000000000000000111110000000
0000000000000000000000000000000000000000011111000000000000001000000000
0000000000000000000000000000001000000000000000111111000000000000000000
0000000000000000000000000000111111000000000000001000000000000000000000
0000000000000000001000000000001111111111000000000000000000000000000000
0000000000000000111111111100000000001000000000000000000000000000000000
0000001000000000011111111110011000000000000000000000000000000000000000
0110011111111110000000001000000000000000000000000000000000000000100000
0000011111111111111000000000000000000000000000000000000000011111111111
1110000000001000000000000000000000000000000000000000100000000001111111
1111111000000000000000000000000000000000000000011111111111111000000000
1000000000000000000000000000000000000000100000000001111111111001100000
0000000000000000000000000000000000011001111111111000000000100000000000
0000000000000000000000000000100000000000111111111100000000000000000000
0000000000000000000000000011111111110000000000100000000000000000000000
0000000000000000100000000000000011111100000000000000000000000000000000
0000000000000011111100000000000000100000000000000000000000000000000000
0000100000000000000011111000000000000000000000000000000000000000000000
0001111100000000000000100000000000000000000000000000000000000010000000
0000000001111000000000000000000000000000000000000000000000000111100000
0000000000100000000000000000000000000000000000000010000000000000000000
0000000000000000000000000000000000000000000000000000000000000000000010
0000000000000000000000000000000000000010000000000000000000000000000000
0000000000000000000000000000000000000000000000000000000010000000000000
0000000000000000000000000010000000000000000000000000000000000000000000
0000000000000000000000000000000000000000000010000000000000000000000000
0000000000000010000000000000000100000000000000000000000000000000000000
0000000000000000000000000000000010000000000000000000000000000000000000
0010000000000000001110000000000000000000000000000000000000000000000000
0000000000000000000010000000000000000000000000000000000000001000000001
0000001111000000000000000000000000000000000000000000000000000000000000
0000000010000000000000000000000000000000000000001000000001010011111010
0000000000000000000000000000000000000000000000000000000000000000001000
0000000000000000000000000000000000001000111111110111111110000000000000
0000000000000000000000000000000000000000000000000000001000000000000000
0000000000000000000000001000010001010011111010000000000000000000000000
0000000000000000000000000000000000000000001000000000000000000000000000
0000000000001000001101000000111100000000000000000000000000000000000000
0000000000000000000000000000001000000000000000000000000000000000000000
1000000011000000111000000000000000000000000000000000000000000000000000
0000000000000000001000000000000000000000000000000000000000100000000000
0000010000000000000000000000000000000000000000000000000000000000000000
0000001000000000000000000000000000000000000000110000000000000000000000
0000000000000000000000000000000000000000000000000000000000000001100000
0000000000000000000000000000000000011111111111111111111111111111111111
1111111111111111111111111111111111111111111111111111000000000000000000
00