P1
# Created by GIMP version 3.0.4 PNM plug-in
128 64
0000000000000000000001111111111111111111111111111111111111111111111111
1111111111111111111111111111111111111000000000000000000000000000000000
0000000011000000000000000000000000000000000000000000000000000000000000
0000000000000000000000001100000000000000000000000000000000000000001000
0110011111111111111111111111111111111111111111111111111111111111111111
1111100011000100000000000000000000000000000000000000001000111001111111
1111111111111111111111111111111111111111111111111111111111111111001110
0100000000000000000000000000000000000000001000100011000000000000000000
0000000000000000000000000000000000000000000000000001100010010000000000
0000000000000000000000000000001000100111110000000000000000000000000000
0000000000000000000000000000000000000111110010010000000000000000000000
0000000000000000001000001001100111111111111111111111111111111111111111
1111111111111111111111100010011000010000000000000000000000000000000000
0000001000011001001111001111110111111001111100111111111011111101111110
0111111011110001011100010000000000000000000000000000000000000000100010
0110011111001111110011111001111100111111110011111100111110011111001111
1001110110010000000000000000000000000000000000000000100110110011011111
1111111111111111111111111111111111111111111111111111111111110011001001
0000000000000000000000000000000000000000100110100111111111110011111001
1111101111110000011111001111100111111001111111111000001001000000000000
0000000000000000000000000000100110001111111111110011111001111110111111
0000111111001111100111111011111111111100001001000000000000000000000000
0000000000000000100110011111111111111111111111111111111111111111111111
1111111111111111111111111110001001000000000000000000000000000000000000
0000100110011111111111111111111111111111111111111111111111111111111111
1111111111111110001001000000000000000000000000000000000000000010011001
1111111111111111111111111111111111111111111111111111111111111111111111
1110001001000000000000000000000000000000000000000010011001111111111111
1111111111111111111111111111111111111111111111111111111111111000100100
0000000000000000000000000000000000000010011001111111111111111111111111
1111110111111111111111111111111111111110011111111000100100000000000000
0000000000000000000000000010011001111111100011111111111111111111001111
1111100111111111111111111110011111111000100100000000000000000000000000
0000000000000010011001111111110111111111111111111111011111111110011111
1111111111111110011111111000100100000000000000000000000000000000000000
0010011001111111111111111100111001111111111111111111111111100011001111
1111111111111000100100000000000000000000000000000000000000001001100111
1111111111111001111100111111111111111111111111000111100011111111111111
1000100100000000000000000000000000000000000000001001100111111111111110
0011111110001111111111011111111100011111110001111111111111100010010000
0000000000000000000000000000000000001001100111111111111100111111111110
0111111111111111111001111111111110111111111111100010010000000000000000
0000000000000000000000001001100111111111111001111111111111001111111111
1111110011111111111111011111111111100010010000000000000000000000000000
0000000000001001100111111111110011111111111111110111111111111110011111
1111111111100111111111100010010000000000000000000000000000000000000000
1001100111111111100111111110111111110011111111111100111111110011111111
0111111111100010010000000000000000000000000000000000000000100110011111
1111001111111000000111111001111101111100111111000000111111001111111110
0010010000000000000000000000000000000000000000100110011111111111111110
0001000011111101111111111111111110001100011111101111111110001001000000
0000000000000000000000000000000000100110011111111111111100000100000111
1101111111111111111100001100001111100111111110001001000000000000000000
0000000000000000000000100110011111111001111100001110000111110011111111
1011111100011110001111100111111110001001000000000000000000000000000000
0000000000100110010111111011111100111111100111111011111111001111100111
1111100111110111111010001001000000000000000000000000000000000000000010
0110010111111111111001111111110011111011100111111111001111111110011111
1111111010001001000000000000000000000000000000000000000010011001111111
1011111001111111110011111011100111111111100111111110011111111111111000
1001000000000000000000000000000000000000000010011001111111100111110000
1111000111110011111111001111100001111000111110011111111000100100000000
0000000000000000000000000000000010011001111111111111110000011000011111
0111110111111111110000110000111110011111111000100100000000000000000000
0000000000000000000010011001111111111111111000010000111111011111111111
1111110000110001111110011111111000100100000000000000000000000000000000
0000000010011001111111111111111100010001111111011111111111111111100000
0001111110111111111000100100000000000000000000000000000000000000001001
1001111111110011111110000011111110011111111111001111110000011111110011
1111111000100100000000000000000000000000000000000000001001100111111111
1001111111101111111100111111111111100111111111111111100111111111100010
0100000000000000000000000000000000000000001001100111111111110001111111
1111111001111110011111110011111111111111001111111111100010010000000000
0000000000000000000000000000001001100111111111111001111111111111001111
1111111111111001111111111110011111111111100010010000000000000000000000
0000000000000000001001100111111111111100111111111110011111111111111111
1100111111111100111111111111100010010000000000000000000000000000000000
0000001001100111111111111111101111111011111111111111111111111100111111
0011111111111111100010010000000000000000000000000000000000000000100110
0111111111111111110011110011111111111111111111111110011110011111111111
1111100010010000000000000000000000000000000000000000100110011111111111
1111111000000111111111111111111111111111001000111111111111111110001001
0000000000000000000000000000000000000000100110011111110000011111111111
1111110000011111100000111111111111111111000011111110001001000000000000
0000000000000000000000000000100110011111111000111111111111111111100001
1111110000111111111111111111100011111110001001000000000000000000000000
0000000000000000100110011111111111111111111111111111111111111111111111
1111111111111111111111111110001001000000000000000000000000000000000000
0000100110011111111111111111111111111111111111111111111111111111111111
1111111111111110001001000000000000000000000000000000000000000010011001
1111111111111111111111111111111111111111111111111111111111111111111111
1110001001000000000000000000000000000000000000000010011001111111111111
1111111111111111111111111111111111111111111111111111111111111000100100
0000000000000000000000000000000000000010011000111111111111111111111111
1111111111100011111111111111111111111111111111111000100100000000000000
0000000000000000000000000010011000011111111111001111100111110001111100
0001111100111110011111100111111111110000100100000000000000000000000000
0000000000000010011010001111111111001111100111111011111100001111110011
1110011111101111111111100110100100000000000000000000000000000000000000
0010001001101111110011111101111110011111001111111110111111011111100111
1100111111001100100100000000000000000000000000000000000000001000111111
0111110011111101111110011111001111111100111111011111100111110011111001
1111000100000000000000000000000000000000000000001000011001100111111111
1111111111111111111111111111111111111111111111111111110011011000010000
0000000000000000000000000000000000001000001101110011111111111111111111
1111111111111111111111111111111111111111100111110000010000000000000000
0000000000000000000000001001100111010000000000000000000000000000000000
0000000000000000000000000000000001100010010000000000000000000000000000
0000000000001000100011000000000000000000000000000000000000000000000000
0000000000000000000001000010010000000000000000000000000000000000000000
1000011000111111111111111111111111111111111111111111111111111111111111
1111111110011100010000000000000000000000000000000000000000100000100000
0000000000000000000000000000000000000000000000000000000000000000000000
1000010000000000000000000000000000000000000000110000000000000000000000
0000000000000000000000000000000000000000000000000000000000000011000000
0000000000000000000000000000000000011111111111111111111111111111111111
1111111111111111111111111111111111111111111111111110000000000000000000
00