P1
# Created by GIMP version 3.0.4 PNM plug-in
128 64
0000000000000000000011111111111111111111111111111111111111111111111111
1111111111111111111111111111111111111000000000000000000000000000000000
0000000110000000000000000000000000000000000000000000000000000000000000
0000000000000000000000001100000000000000000000000000000000000000010000
0000000000000000000000000000000000000000000000000000000000000000011000
0000000000000100000000000000000000000000000000000000010000000000000000
0000000000000000000000000000000000000000000000000000111100000110000010
0100000000000000000000000000000000000000010000000000000000000000000000
0000000000000000000000000000000000000010011110001100000010010000000000
0000000000000000000000000000010000000000000000000000000000000000000000
0000000000000000000000000011111111001111111110010000000000000000000000
0000000000000000010000000000000000000000000000000000000000000000000000
0000000000000010011110001111111110010000000000000000000000000000000000
0000010000000000000000000000000000000000000000000000000000000000000000
0000111100000000000010010000000000000000000000000000000000000001000000
0000000000000000000000000000000000000000000000000000000000000001100000
0000000000010000000000000000000000000000000000000001000000000000000000
0000000000000000000000000000000000000000000000000000000000000000000001
0000000000000000000000000000000000000001000000000000000000000000000000
0000000000000000000000000000000000000000000000000000000001000000000000
0000000000000000000000000001000000000000000000000000000000000000000000
0000000000000000000000000000000000000000000001000000000000000000000000
0000000000000001000000000000000000000000000000000000000000000000000000
0000011111111110000000000000000001000000000000000000000000000000000000
0001000000000000000000000000000000001100000000000000011000000111110000
0111100000000000000001000000000000000000000000000000000000000100000000
0000000000000000000000001111000000000011111000000011100000001111000110
0000000001000000000000000000000000000000000000000100000000000000000000
0000000000011111100000011111111110100000111000111000001111000000000100
0000000000000000000000000000000000000100000000000000000000000000000001
0111111111111111111111100000001111111000100111100000000100000000000000
0000000000000000000000000100000000000000000000000000000001011100000001
1111111111111111111111100100111111110000000100000000000000000000000000
0000000000000100000000000000000000111000000011111111111111111111001001
0000000000000100100111100000000100000000000000000000000000000000000000
0100000000000000000011111000011111111111111111111111001001111111111110
0100001111000000000100000000000000000000000000000000000000010000000000
0000000111111100011111111111111111111111101111000000011111100000011000
0000000100000000000000000000000000000000000000010000000000000001111111
1111111111111111111111111111101110000000011111000000000000000000010000
0000000000000000000000000000000000010000000000000011111110111111111111
0111111111111111111000000000000001000000000000000000010000000000000000
0000000000000000000000010000000000000111111001111111111111111111111101
1111111000000000000000011110000000000000010000000000000000000000000000
0000000000010000000000000111110011111111111111111010000011111111101110
1111110000111110000000000000010000000000000000000000000000000000000001
0000000000001111100111111111111100000011110101011101110101100001111111
1110000000000000010000000000000000000000000000000000000001000000000000
1111001111111111110011110101001101111111101000000000001111111000000000
0000010000000000000000000000000000000000000001000000000000111101111111
1111111000111111000011111111101000100011001111111000000000000001000000
0000000000000000000000000000000001000000000001111011111111111111111111
1110101011110011111000100111001111111100000000000001000000000000000000
0000000000000000000001000000000001111011111111111111111010001101101111
0111101101100001011111111100000000000001000000000000000000000000000000
0000000001000000000001110111111111111111111100101001011111011111110000
0000011111111100000000000001000000000000000000000000000000000000000100
0000000001110111110000000011111111001010011111001101111000000001111111
1000000000000001000000000000000000000000000000000000000100000000000111
1111100000000001111110111001111110111011111111111111111111100000000000
0001000000000000000000000000000000000000000100000000000111111110100001
1001011110110111111110110011011111111111111111100000000000000100000000
0000000000000000000000000000000100000000000111111110110001100111111101
1111111101100111011111111111111011100000000000000100000000000000000000
0000000000000000000100000000000111111100111001000011111011001111110000
1110111111111111111011100000000000000100000000000000000000000000000000
0000000100000000000111111100000000000111110100001111100111110111111111
1111111011100000000000000100000000000000000000000000000000000000010000
0000000111111111111001111111111110011111001111001111111111111111011100
0000000000000100000000000000000000000000000000000000010000000000001111
0000000110001100111101111110000011011000011111111110111100000000000000
0100000000000000000000000000000000000000010000000000001110000000000000
0000111111111110101100000011111111111101111000000000000000010000000000
0000000000000000000000000000010000000000000100110000000000000011111111
1110011111111111111111111011110000000000000000010000000000000000000000
0000000000000000010000000000000000111111000000001111111111111011111111
1111111111110011100000000000000000010000000000000000000000000000000000
0000010000001110000001111110000000011100111111111111111111111110000110
0111000000000000000000010000000000000000000000000000000000000001000001
1111000001001111111111110010111111111111111111111110000111110000000000
0000000000010000000000000000000000000000000000000001000011111001001100
0000000000000000011111011100001111110000000111000000000000000000000001
0000000000000000000000000000000000000001000111111111000101111111111111
0000111111111000001111010000000000000000000000000000000001000000000000
0000000000000000000000000001000011111001000111111110000000101111111111
1111111111100000000000000000000000000000000001000000000000000000000000
0000000000000001000001111100001111000111000000110111111110000001111110
0000000000000000000000000000000001000000000000000000000000000000000000
0001000000111000011100000011110000000111111000000000011100000000000000
0000000000000000000001000000000000000000000000000000000000000100000000
0000111111101001111000000010000000000000001100000000000000000000000000
0000000001000000000000000000000000000000000000000100000000000000111111
1111110000000000000000000000000000000000000000000000000000000000000100
0000000000000000000000000000000000000100000000000000000000000000000000
0000000000000000000000000000000000000000000000000000000100000000000000
0000000000000000000000000100000000000000000000000000000000000000000000
0000000000000000000000000000000000000000000100000000000000000000000000
0000000000000100000000000000000000000000000000000000000000000000000000
0000000000000000000000000000000100000000000000000000000000000000000000
0100000000000000000000000000000000000000000000000000000000000000000000
0000000000000000000100000000000000000000000000000000000000010000000000
0000001100000000000000000000000000000000000000000000000000000000000000
0000000100000000000000000000000000000000000000010001000000000001111000
0000000000000000000000000000000000000000000000000000000000000000010000
0000000000000000000000000000000000010001111111110011110010000000000000
0000000000000000000000000000000000000000000000000000010000000000000000
0000000000000000000000010001111111110111111110000000000000000000000000
0000000000000000000000000000000000000000010000000000000000000000000000
0000000000010001000000110011110010000000000000000000000000000000000000
0000000000000000000000000000010000000000000000000000000000000000000001
0001000001100001111000000000000000000000000000000000000000000000000000
0000000000000000010000000000000000000000000000000000000001000000000000
0000110000000000000000000000000000000000000000000000000000000000000000
0000010000000000000000000000000000000000000001100000000000000000000000
0000000000000000000000000000000000000000000000000000000000000011000000
0000000000000000000000000000000000111111111111111111111111111111111111
1111111111111111111111111111111111111111111111111110000000000000000000
00