P1
# Created by GIMP version 3.0.4 PNM plug-in
128 64
0000000000000000000001111111111111111111111111111111111111111111111111
1111111111111111111111111111111111111100000000000000000000000000000000
0000000011000000000000000000000000000000000000000000000000000000000000
0000000000000000000000000110000000000000000000000000000000000000001000
0000000000000000000000000000000000000000000000000000000000000000111100
0011000000010010000000000000000000000000000000000000001000000000000000
0000000000000000000000000000000000000000000000000001111110011000000001
0010000000000000000000000000000000000000001000000000000000000000000000
0000000000000000000000000000000000000011111111011111111111001000000000
0000000000000000000000000000001000000000000000000000000000000000000000
0000000000000000000000000001111110001111111111001000000000000000000000
0000000000000000001000000000000000000000000000000000000000000000000000
0000000000000000111100000000000001001000000000000000000000000000000000
0000001000000000000000000000000000000000000000000000000000000000000000
0000000000000000000000001000000000000000000000000000000000000000100000
0000000000000000000000000000000000000000000000000000000000000000000000
0000000000001000000000000000000000000000000000000000100000000000000000
0000000000000000000000000000000000000000000000000000000000000000000000
1000000000000000000000000000000000000000100000000000000000000000000000
0000000000000000000000000000000000000000000000000000000000100000000000
0000000000000000000000000000100000000000000000000000000000000000000000
0000000000000000001000001000000000000000000000100000000000000000000000
0000000000000000100000000000000000000000000000000000000000000000000000
0000011111111110000000000000000000100000000000000000000000000000000000
0000100000000000000000000000000000000110000000000000001000000011111111
1111001111000000000000100000000000000000000000000000000000000010000000
0000000000000000000000001111000000000011111000000001111000011001111110
0000000000100000000000000000000000000000000000000010000000000000000000
0000000000001111110000001111111100000000111100111011111111000000000010
0000000000000000000000000000000000000010000000000000000000000000000001
1111111100111111111100000000011111111001111110000000000010000000000000
0000000000000000000000000010000000000000000000000000000001011110000000
1111111111111111101111101100111100000000000010000000000000000000000000
0000000000000010000000000000000000011000000011111110111111111111000000
0000000000000100000000000000000010000000000000000000000000000000000000
0010000000000000000001111100001111111111111111111111100111111111111110
0100000000000000000010000000000000000000000000000000000000001000000000
0000000111111100001111111111111111111111101010000000011111110000000000
0000000010000000000000000000000000000000000000001000000000000000111111
1111111111111111111111111111111100000001111111000000000000000000001000
0000000000000000000000000000000000001000000000000001111000111111111111
1111111111111111111000000000000001100000000000000000001000000000000000
0000000000000000000000001000000000000011110011111111111111111111111111
1111111000000111110000011110000000000000001000000000000000000000000000
0000000000001000000000000111100111111111111111111111111111111111100001
1100011100011110000000000000001000000000000000000000000000000000000000
1000000000000111101111111111111111111111111111111101100011100000001111
1110000000000000001000000000000000000000000000000000000000100000000000
1111001111111111111111100100101001110111100110000001100111111000000000
0000001000000000000000000000000000000000000000100000000000111001111111
1111111111000010000001111111001100010011101111111100000000000000100000
0000000000000000000000000000000000100000000000111011111111111111110011
1011101011111111111100100011101111111100000000000000100000000000000000
0000000000000000000000100000000000111111111111111111110001010110101111
0111101100110001001111111100000000000000100000000000000000000000000000
0000000000100000000000111111111111111111111000011100101110111111110000
0000011111111100000000000000100000000000000000000000000000000000000010
0000000001111111110000000001111100001100001100101111111000000001111111
1100000000000000100000000000000000000000000000000000000010000000000111
1111110000000000111111000001011100100011111111111111111111110000000000
0000100000000000000000000000000000000000000010000000000111111110010000
0001011111000101111100001011111111111111111101100000000000000010000000
0000000000000000000000000000000010000000000011111110111001100011111110
0000111100100101111111111111111101100000000000000010000000000000000000
0000000000000000000010000000000011111110111001100010011110001111100011
0101111111111111110011100000000000000010000000000000000000000000000000
0000000010000000000011111100010001000100111110011111100101110001111111
1111110111100000000000000010000000000000000000000000000000000000001000
0000000011111111000000001111110110111111000000010111111111111110111100
0000000000000010000000000000000000000000000000000000001000000000001111
0000111000011110111111111111000110000111111111111001111100000000000000
0010000000000000000000000000000000000000001000000000001111000000111111
0000111111111111101001101111111111111111111000000000000000001000000000
0000000000000000000000000000001000000000000100010000000000000011111111
1111111111111111111111111111110000000000000000001000000000000000000000
0000000000000000001000000000000000011111000000001111111111111111111111
1111111111111111100000000000000000001000000000000000000000000000000000
0000001000000000000000111111000000000001111111111111111111111110000111
1111000000000000000000001000000000000000000000000000000000000000100000
0000000001000111111111111110111111111111111111111110000011110000000000
0000000000001000000000000000000000000000000000000000100000000000000100
0000000000000000000000000000000111111000000111000000000000000000000000
1000000000000000000000000000000000000000100000000111100111111111111111
1111011111111110001111010000000000000000000000000000000000100000000000
0000000000000000000000000000100000001111110001111110000000001111111111
1011111111110000000000000000000000000000000000100000000000000000000000
0000000000000000100000011111111011111111000000100111111110000000111110
0000000000000000000000000000000000100000000000000000000000000000000000
0000100000001111110011100001110000000011111000000000011110000000000000
0000000000000000000000100000000000000000000000000000000000000010000000
0111100111000000111000000000000000000000000100000000000000000000000000
0000000000100000000000000000000000000000000000000010000000000000001111
1111110000000000000000000000000000000000000000000000000000000000000010
0000000000000000000000000000000000000010000000000000000010000100000000
0000000000000000000000000000000000000000000000000000000010000000000000
0000000000000000000000000010000000000000000000000000000000000000000000
0000000000000000000000000000000000000000000010000000000000000000000000
0000000000000010000000000000000000000000000000000000000000000000000000
0000000000000000000000000000000010000000000000000000000000000000000000
0010000000000000000000000000000000000000000000000000000000000000000000
0000000000000000000010000000000000000000000000000000000000001000000000
0000000000000000000000000000000000000000000000000000000000000000000000
0000000010000000000000000000000000000000000000001000000000000000000000
0000000000000000000000000000000000000000000000000000000000000000001000
0000000000000000000000000000000000001000100000000000001111000000000000
0000000000000000000000000000000000000000000000000000001000000000000000
0000000000000000000000001000111111111100011111100000000000000000000000
0000000000000000000000000000000000000000001000000000000000000000000000
0000000000001000111111111100111111110000000000000000000000000000000000
0000000000000000000000000000001000000000000000000000000000000000000000
1000100000001100011111100000000000000000000000000000000000000000000000
0000000000000000001000000000000000000000000000000000000000100010000001
1000001111000000000000000000000000000000000000000000000000000000000000
0000001000000000000000000000000000000000000000110000000000000000000000
0000000000000000000000000000000000000000000000000000000000000001100000
0000000000000000000000000000000000011111111111111111111111111111111111
1111111111111111111111111111111111111111111111111111000000000000000000
00