P1
# Created by GIMP version 3.0.4 PNM plug-in
128 64
0000000000000000000001111111111111111111111111111111111111111111111111
1111111111111111111111111111111111111100000000000000000000000000000000
0000000011000000000000000000000000000000000000000000000000000000000000
0000000000000000000000000110000000000000000000000000000000000000001000
0000000000000000000000000000000000000000000000000000000000000000001000
0000000000000010000000000000000000000000000000000000001000000000000000
0000000000000000000000000000000000000000000000000000011100000000000000
0010000000000000000000000000000000000000001000000000000000000000000000
0000000000000000000000000000000000000000111100000011000010001000000000
0000000000000000000000000000001000000000000000000000000000000000000000
0000000000000000000000000010011111000110000010001000000000000000000000
0000000000000000001000000000000000000000000000000000000000000000000000
0000000000000011111111100111111110001000000000000000000000000000000000
0000001000000000000000000000000000000000000000000000000000000000000000
0010011111000111111110001000000000000000000000000000000000000000100000
0000000000000000000000000000000000000000000000000000000000000011110000
0000000010001000000000000000000000000000000000000000100000000000000000
0000000000000000000000000000000000000000000000000001110000000000000000
1000000000000000000000000000000000000000100000000000000000000000000000
0000000000000000000000000000000000000000100000000000000000100000000000
0000000000000000000000000000100000000000000000000000000000000000000000
0000000000000000000000000000000000000000000000100000000000000000000000
0000000000000000100000000000000000000000000000000010000000000000000000
0000000000000000000000000100000000100000000000000000000000000000000000
0000100000000000000000000000000000000011100000000000001110000000111111
1111111100001110000000100000000000000000000000000000000000000010000000
0000000000000000000000000111110000000001111110000000111000000011100001
1110000000100000000000000000000000000000000000000010000000000000000000
0000000000000111111100001111111111000000001100000011000100111110000010
0000000000000000000000000000000000000010000000000000000000000000000000
0101111111111111111111100000000110101110000111111111000010000000000000
0000000000000000000000000010000000000000000000000000000000111111000000
0000011111111111111111111111000100111110000010000000000000000000000000
0000000000000010000000000000000000011110000011111111111111111111110000
0000000000000001100001111000000010000000000000000000000000000000000000
0010000000000000000000111110000111111111111111111111110000111111111111
1001100000111000000010000000000000000000000000000000000000001000000000
0000000011111111000111111111111111111111111101100000000111111100000001
0000000010000000000000000000000000000000000000001000000000000000011101
1111111111111111111111111111111110000000000111110000000000000000001000
0000000000000000000000000000000000001000000000000000111101111111111110
0100010111111111111110000000000000010011000000000000001000000000000000
0000000000000000000000001000000000000001111011111111111100100000011111
1111111100111111111100000111000000000000001000000000000000000000000000
0000000000001000000000000011110111111111111110001001110011111111111111
0000000110011111100000000000001000000000000000000000000000000000000000
1000000000000011100111111111111100110010000011111100111110001000000111
1111100000000000001000000000000000000000000000000000000000100000000000
0011101111111111101111100001110111111011111110011000110011111110000000
0000001000000000000000000000000000000000000000100000000000011101111111
1111111111100011101111111011111110001000110011111110000000000000100000
0000000000000000000000000000000000100000000000011101111111111111111100
1111011111111011111110001000010111111110000000000000100000000000000000
0000000000000000000000100000000000011101111111111111111110111011111111
0111111111000000000111111110000000000000100000000000000000000000000000
0000000000100000000000011111111111111111111111010111111111011111111100
0000000111111110000000000000100000000000000000000000000000000000000010
0000000000011111111000000000111110100111111111011100111110000000111111
1110000000000000100000000000000000000000000000000000000010000000000001
1111111000000100011111101111111111011101111111111111111111111000000000
0000100000000000000000000000000000000000000010000000000001111111101000
0110011111011111111110011110101111111111111110011000000000000010000000
0000000000000000000000000000000010000000000001111111001100010001111101
1111111110100111001111111111111110111000000000000010000000000000000000
0000000000000000000010000000000001111111001110010001001111111111110101
1110111111111111111000111000000000000010000000000000000000000000000000
0000000010000000000001111111101000001111011101111111100101111110110111
1111111011110000000000000010000000000000000000000000000000000000001000
0000000001111111011110110000011011111111101011101000000111111110011111
0000000000000010000000000000000000000000000000000000001000000000000111
1100000001100000011111111111101010010001111111111110111110000000000000
0010000000000000000000000000000000000000001000000000000011100000000000
0000001111111111110010000011111111111101111100000000000000001000000000
0000000000000000000000000000001000000000000000001100100000000000111111
1111110110111111111111111111111100000000000000001000000000000000000000
0000000000000000001000000000000000001111100000000111111111111110000111
1111111111111111111000000000000000001000000000000000000000000000000000
0000001000000010000000011111100000000100001111111111111111111111100001
1111100000000000000000001000000000000000000000000000000000000000100000
0111000000010001111111111011101111111111111111111111100001111100000000
0000000000001000000000000000000000000000000000000000100000011110000001
0000000000000000000000000000000011111100000001110000000000000000000000
1000000000000000000000000000000000000000100001111100100001111111111111
1000001111111111100011101100000000000000000000000000000000100000000000
0000000000000000000000000000100011111111100000011111100000011111111111
1110111111101000000000000000000000000000000000100000000000000000000000
0000000000000000100001111100100000111001110000000101111111100000011111
1000000000000000000000000000000000100000000000000000000000000000000000
0000100000011110000001110000011100000001111100000000000111000000000000
0000000000000000000000100000000000000000000000000000000000000010000001
1100000111100000001110000000000000000000000011000000000000000000000000
0000000000100000000000000000000000000000000000000010000000100000001111
1101111111000000000000000000000000000000000000000000000000000000000010
0000000000000000000000000000000000000010000000000000000001111111100000
0000000000000000000000000000000000000000000000000000000010000000000000
0000000000000000000000000010000000000000000000000000000000000000000000
0000000000000000000000000000000000000000000010000000000000000000000000
0000000000000010000000000000000001000000000000000000000000000000000000
0000000000000000000000000000000010000000000000000000000000000000000000
0010000000000000000011100000000000000000000000000000000000000000000000
0000000000000000000010000000000000000000000000000000000000001000010000
0000000011110000000000000000000000000000000000000000000000000000000000
0000000010000000000000000000000000000000000000001000011111111100111110
0100000000000000000000000000000000000000000000000000000000000000001000
0000000000000000000000000000000000001000011111111101111111110000000000
0000000000000000000000000000000000000000000000000000001000000000000000
0000000000000000000000001000010000001100111110010000000000000000000000
0000000000000000000000000000000000000000001000000000000000000000000000
0000000000001000010000011000001111000000000000000000000000000000000000
0000000000000000000000000000001000000000000000000000000000000000000000
1000000000000000001110000000000000000000000000000000000000000000000000
0000000000000000001000000000000000000000000000000000000000100000000000
0000000100000000000000000000000000000000000000000000000000000000000000
0000001000000000000000000000000000000000000000110000000000000000000000
0000000000000000000000000000000000000000000000000000000000000001100000
0000000000000000000000000000000000011111111111111111111111111111111111
1111111111111111111111111111111111111111111111111111000000000000000000
00