P1
# Created by GIMP version 3.0.4 PNM plug-in
128 64
0000000000000000000001111111111111111111111111111111111111111111111111
1111111111111111111111111111111111111100000000000000000000000000000000
0000000011000000000000000000000000000000000000000000000000000000000000
0000000000000000000000000110000000000000000000000000000000000000001000
0000000000000000000000000000000000000000000000000000000000000000000011
1000000000000010000000000000000000000000000000000000001000000000000000
0000000000000000000000000000000000000000000000000000000111110001100001
0010000000000000000000000000000000000000001000000000000000000000000000
0000000000000000000000000000000000000000001111110011000001001000000000
0000000000000000000000000000001000000000000000000000000000000000000000
0000000000000000000000000000001111100011111111001000000000000000000000
0000000000000000001000000000000000000000000000000000000000000000000000
0000000000000000001111110011111111001000000000000000000000000000000000
0000001000000000000000000000000000000000000000000000000000000000000000
0000000111110000000001001000000000000000000000000000000000000000100000
0000000000000000000000000000000000000000000000000000000000000000001110
0000000000001000000000000000000000000000000000000000100000000000000000
0000000000000000000000000000000000000000000000000000000000000000000000
1000000000000000000000000000000000000000100000000000000000000000000000
0000000000000000000000000000000000000000000000000000000000100000000000
0000000000000000000000000000100000000000000000000000000000000000000000
0000000000000000000000000000000000000000000000100000000000000000000000
0000000000000000100000000000000000000000000000000000000000000000000000
0000000000100000100000011100000000100000000000000000000000000000000000
0000100000000000000000000000000000000001100000000000000010000000011111
1111111000111110000000100000000000000000000000000000000000000010000000
0000000000000000000000000001110000000000011111000000001110000111110111
1110000000100000000000000000000000000000000000000010000000000000000000
0000000000000011111100000011111111000000000111000111100111110000000010
0000000000000000000000000000000000000010000000000000000000000000000000
0010111111001111111111100000000011111110000111111000000010000000000000
0000000000000000000000000010000000000000000000000000000000010111100000
0111111110111111111111111101000011111000000010000000000000000000000000
0000000000000010000000000000000000000110000000011111101111111111110000
0000000000000001000001110000000010000000000000000000000000000000000000
0010000000000000000000011111000011111111111111111111111010011111111111
1001000000000000000010000000000000000000000000000000000000001000000000
0000000001111111000011111111111111111111111001110000000011111100000000
0000000010000000000000000000000000000000000000001000000000000000001111
1111111111111100111111111111111110000000000111111000000000000000001000
0000000000000000000000000000000000001000000000000000011111011111111111
1111001111111111111110000000000000011000000000000000001000000000000000
0000000000000000000000001000000000000000111100111111111111101110001111
1111111110000000111100000011100000000000001000000000000000000000000000
0000000000001000000000000000111001111111111101100110100101111111101000
0011000010000111100000000000001000000000000000000000000000000000000000
1000000000000001111011111111111111111000001001111011111100111000000111
1111110000000000001000000000000000000000000000000000000000100000000000
0011100111111111111111111110000111111111111001000000011001111111000000
0000001000000000000000000000000000000000000000100000000000001110111111
1111111111100011100100011111110001000100111001111111000000000000100000
0000000000000000000000000000000000100000000000001111111111111111111111
1100111110011111111111001100001011111111000000000000100000000000000000
0000000000000000000000100000000000001101111111111111111110110000111011
1110111101001100000011111111000000000000100000000000000000000000000000
0000000000100000000000001101111111111111111111100111011111111011111100
0000000011111111000000000000100000000000000000000000000000000000000010
0000000000001111111100000000011111011110011111010111111110000000011111
1111000000000000100000000000000000000000000000000000000010000000000000
1111111100000000001111111110111111011111111111111111111111111100000000
0000100000000000000000000000000000000000000010000000000000111111110100
0011011011110110111111111110011111111111111111101100000000000010000000
0000000000000000000000000000000010000000000000111111100110001000111111
1011111111000001111111111111111111001100000000000010000000000000000000
0000000000000000000010000000000000111111100111001001100111111111111011
1111101111111111111110111000000000000010000000000000000000000000000000
0000000010000000000000111111110000000011101111111111110010000000111111
1111111110111000000000000010000000000000000000000000000000000000001000
0000000000111111101111001111001101111111111000001111111111111111110111
1000000000000010000000000000000000000000000000000000001000000000000011
1110000000111000001111111111100011010000111111111111101111000000000000
0010000000000000000000000000000000000000001000000000000001110000000000
0000000111111111110110111111111111111111011110000000000000001000000000
0000000000000000000000000000001000000000000000000000000000000000111111
1111101111010111111111111111011100000000000000001000000000000000000000
0000000000000000001000000000000000000111110000000001111111111111111100
1111111111111111111100000000000000001000000000000000000000000000000000
0000001000000000000000001111110000000010001111111111111111101111110001
1111110000000000000000001000000000000000000000000000000000000000100000
0000011100001011111111110100110111111111111111111111110000111110000000
0000000000001000000000000000000000000000000000000000100000000011111000
1000000000000000000000000000000001111110000000111000000000000000000000
1000000000000000000000000000000000000000100000000011111100101111111111
1100000111111110000001110100000000000000000000000000000000100000000000
0000000000000000000000000000100000000001111110011111100000010000111111
1111111111110100000000000000000000000000000000100000000000000000000000
0000000000000000100000000001111110011000110000001111111111110000001111
1100000000000000000000000000000000100000000000000000000000000000000000
0000100000000011111100110000011000000000111110000000000011100000000000
0000000000000000000000100000000000000000000000000000000000000010000000
0011111001110000001100000000000000000000000001000000000000000000000000
0000000000100000000000000000000000000000000000000010000000000111000011
1111111000000000000000000000000000000000000000000000000000000000000010
0000000000000000000000000000000000000010000000000000000000000000000000
0000000000000000000000000000000000000000000000000000000010000000000000
0000000000000000000000000010000000000000000000000000000000000000000000
0000000000000000000000000000000000000000000010000000000000000000000000
0000000000000010000000000000000000000000000000000000000000000000000000
0000000000000000000000000000000010000000000000000000000000000000000000
0010000000000000000000000000000000000000000000000000000000000000000000
0000000000000000000010000000000000000000000000000000000000001000000000
0000011100000000000000000000000000000000000000000000000000000000000000
0000000010000000000000000000000000000000000000001000100000000011111000
0000000000000000000000000000000000000000000000000000000000000000001000
0000000000000000000000000000000000001000111111110011111100000000000000
0000000000000000000000000000000000000000000000000000001000000000000000
0000000000000000000000001000111111110001111100000000000000000000000000
0000000000000000000000000000000000000000001000000000000000000000000000
0000000000001000100000110011111100000000000000000000000000000000000000
0000000000000000000000000000001000000000000000000000000000000000000000
1000100001100011111000000000000000000000000000000000000000000000000000
0000000000000000001000000000000000000000000000000000000000100000000000
0001110000000000000000000000000000000000000000000000000000000000000000
0000001000000000000000000000000000000000000000110000000000000000000000
0000000000000000000000000000000000000000000000000000000000000001100000
0000000000000000000000000000000000011111111111111111111111111111111111
1111111111111111111111111111111111111111111111111111000000000000000000
00