P1
# Created by GIMP version 3.0.4 PNM plug-in
128 64
0000000000000000000001111111111111111111111111111111111111111111111111
1111111111111111111111111111111111111100000000000000000000000000000000
0000000011000000000000000000000000000000000000000000000000000000000000
0000000000000000000000000110000000000000000000000000000000000000001000
0000000000000000000000000000000000000000000000000000000000000000011110
0001111111110010000000000000000000000000000000000000001000000000000000
0000000000000000000000000000000000000000000000000000111111000111111111
0010000000000000000000000000000000000000001000000000000000000000000000
0000000000000000000000000000000000000001111111100000110000001000000000
0000000000000000000000000000001000000000000000000000000000000000000000
0000000000000000000000000000111111000001111000001000000000000000000000
0000000000000000001000000000000000000000000000000000000000000000000000
0000000000000000011110000111101110001000000000000000000000000000000000
0000001000000000000000000000000000000000000000000000000000000000000000
0000000000000110000111001000000000000000000000000000000000000000100000
0000000000000000000000000000000000000000000000000000000000000000000000
0100000001001000000000000000000000000000000000000000100000000000000000
0000000000000000000000000000000000000000000000000000000000000000000000
1000000000000000000000000000000000000000100000000000000000000000000000
0000000000000000000000000000000000000000000000000000000000100000000000
0000000000000000000000000000100000000000000000000000000000000000000000
0000000000000000000000000000000000000000000000100000000000000000000000
0000000000000000100000000000000000000000000000001100000000000000000000
0000000000000000000000000000000000100000000000000000000000000000000000
0000100000000000000000000000000000001110110000000000000000000000000000
0011110000000000000000100000000000000000000000000000000000000010000000
0000000000000000000000011111111000000000000000000000000000011111100000
0000000000100000000000000000000000000000000000000010000000000000000000
0000000000001111111110000000001100000000000001111111111000000000000010
0000000000000000000000000000000000000010000000000000111111111111111111
1111101111111100011111000000000011111111111100000000000010000000000000
0000000000000000000000000010000000000001101111111111111111111100001111
1110111111101100000001111111111000000000000010000000000000000000000000
0000000000000010000000000110000111111111111111111100001111111111111111
1110000000011111100000000000000010000000000000000000000000000000000000
0010000000000011110000000000000000111100001111111111101111011100000000
1111000000000000000010000000000000000000000000000000000000001000000000
0000011111111111111111111101111111111111111111111110000000000000001100
0000000010000000000000000000000000000000000000001000000000011100000000
0000011111111100111111111111111111111111000000000000111110000000001000
0000000000000000000000000000000000001000000000111100000000000111111111
1111111111111111011111111111110000000000111111000000001000000000000000
0000000000000000000000001000000001111111000000001111111111111111111111
1111111110001111111000000001111110000000001000000000000000000000000000
0000000000001000000000111111111111111111100011111111111111111111100111
0011111000000111111100000000001000000000000000000000000000000000000000
1000000000011101111111111111110001111111111111111111110100011111111111
1111111000000000001000000000000000000000000000000000000000100000000000
1111110010000011111000111111111111111111100101111111111111111101110000
0000001000000000000000000000000000000000000000100000000001111111001010
0001111010000111111111111110010101111111111111111111111000000000100000
0000000000000000000000000000000000100000000011111111001010000111110000
0111110111111111000011111111111111111111111100000000100000000000000000
0000000000000000000000100000000111101111000000001100111101000100111111
1100000011111100000100111110111000000000100000000000000000000000000000
0000000000100000000011111111000000010000111001000110111110100000011111
0000010100011111110000000000100000000000000000000000000000000000000010
0000000001111111000000001110111010001111111101100110101110000001010001
1111100000000000100000000000000000000000000000000000000010000000000011
1111000010000111111000011001111111001100111110110000010001111111000000
0000100000000000000000000000000000000000000010000000000111111100101000
0111111100010010111111000000111110010100000001111111100000000010000000
0000000000000000000000000000000010000000001111111100100000011111100000
0111111111110010111110010000000001111011110000000010000000000000000000
0000000000000000000010000000011110111110100011111110000100111111101011
1100011110010001010001111111100000000010000000000000000000000000000000
0000000010000000001111111111111111111100000100111111110111111001111100
0001010011111111000000000010000000000000000000000000000000000000001000
0000000111111111111111111100100011111111111111100100111110000001001111
1110000000000010000000000000000000000000000000000000001000000000001101
1111111111111100000011101111111111110010001111111111111111011100000000
0010000000000000000000000000000000000000001000000000011111100000001111
1100011011111111111111011111000011111111111111111110000000001000000000
0000000000000000000000000000001000000000111111000000001111111111111011
1111111111111111111011111000000001111111000000001000000000000000000000
0000000000000000001000000001111111000000001111111111111111111111111100
1111111111110000000000011110000000001000000000000000000000000000000000
0000001000000000111110000000000001111111111111111111111110111111111000
0000000000011100000000001000000000000000000000000000000000000000100000
0000011000011100000000111111111111111111110000001111111111111111111100
0000000000001000000000000000000000000000000000000000100000000000000111
1111000000111111111111111111111000011110000000000000000011100000000000
1000000000000000000000000000000000000000100000000000011111111111000001
1111111111111111111000011110000000000000000000110000000000100000000000
0000000000000000000000000000100000000000111111111111100000010011111110
1111111000011111111111111111111011000000000000100000000000000000000000
0000000000000000100000000000011111111111000000000001111100011111100001
1111111111111111111100000000000000100000000000000000000000000000000000
0000100000000000000111111100000000000000011000000001111111111000000000
0000000000000000000000100000000000000000000000000000000000000010000000
0000000001110000000000000000000000000000001111111000000000000000000000
0000000000100000000000000000000000000000000000000010000000000000000000
0000000000000000000000000000000110111000000000000000000000000000000010
0000000000000000000000000000000000000010000000000000000000000000000000
0000000000000000000000010000000000000000000000000000000010000000000000
0000000000000000000000000010000000000000000000000000000000000000000000
0000000000000000000000000000000000000000000010000000000000000000000000
0000000000000010000000000000000000000000000000000000000000000000000000
0000000000000000000000000000000010000000000000000000000000000000000000
0010000000000000000000000000000000000000000000000000000000000000000000
0000000000000000000010000000000000000000000000000000000000001001000000
0100000000000000000000000000000000000000000000000000000000000000000000
0000000010000000000000000000000000000000000000001001100000110000000000
0000000000000000000000000000000000000000000000000000000000000000001000
0000000000000000000000000000000000001001110001110000111100000000000000
0000000000000000000000000000000000000000000000000000001000000000000000
0000000000000000000000001000011111000001111110000000000000000000000000
0000000000000000000000000000000000000000001000000000000000000000000000
0000000000001000001110000011111111000000000000000000000000000000000000
0000000000000000000000000000001000000000000000000000000000000000000000
1001111111110001111110000000000000000000000000000000000000000000000000
0000000000000000001000000000000000000000000000000000000000100111111111
0000111100000000000000000000000000000000000000000000000000000000000000
0000001000000000000000000000000000000000000000110000000000000000000000
0000000000000000000000000000000000000000000000000000000000000001100000
0000000000000000000000000000000000011111111111111111111111111111111111
1111111111111111111111111111111111111111111111111111000000000000000000
00