P1
# Created by GIMP version 3.0.4 PNM plug-in
128 64
0000000000000000000001111111111111111111111111111111111111111111111111
1111111111111111111111111111111111111100000000000000000000000000000000
0000000011000000000000000000000000000000000000000000000000000000000000
0000000000000000000000000110000000000000000000000000000000000000001000
0000000000000000000000000000000000000000000000000000000000000000000100
0001111111110010000000000000000000000000000000000000001000000000000000
0000000000000000000000000000000000000000000000000000001110000111111111
0010000000000000000000000000000000000000001000000000000000000000000000
0000000000000000000000000000000000000000011110000000111000001000000000
0000000000000000000000000000001000000000000000000000000000000000000000
0000000000000000000000000001001111100001111110001000000000000000000000
0000000000000000001000000000000000000000000000000000000000000000000000
0000000000000001111111110111000111001000000000000000000000000000000000
0000001000000000000000000000000000000000000000000000000000000000000000
0001001111100110000011001000000000000000000000000000000000000000100000
0000000000000000000000000000000000000000000000000000000000000001111000
0000000000001000000000000000000000000000000000000000100000000000000000
0000000000000000000000000000000000000000000000000000111000000000000000
1000000000000000000000000000000000000000100000000000000000000000000000
0000000000000000000000000000000000000000010000000000000000100000000000
0000000000000000000000000000100000000000000000000000000000000000000000
0000000000000000000000000000000000000000000000100000000000000000000000
0000000000000000100000000000000000000000000000000110000000000000000000
0000000000000001110000000000000000100000000000000000000000000000000000
0000100000000000000000000000000000001110110000000000000000000000000000
0011111000000000000000100000000000000000000000000000000000000010000000
0000000000000000000000001111111100000000000000000000000001001111100000
0000000000100000000000000000000000000000000000000010000000000000000000
0000000000001111111111100000001110000000000001000111111100000000000010
0000000000000000000000000000000000000010000000000001111111111111111111
1111000011111110011111000000000001111111111110000000000010000000000000
0000000000000000000000000010000000000011001111111111111111111100001111
1111111111110110000001111111111110000000000010000000000000000000000000
0000000000000010000000000110000000000000000000111100001111111111111111
1111000001000111111100000000000010000000000000000000000000000000000000
0010000000000011000000000000000000111100001111111111111111111110000100
1111100001100000000010000000000000000000000000000000000000001000000000
0000111111111111111111111000000111111111111111111111000000111110011111
0000000010000000000000000000000000000000000000001000000000011000000000
0000001111101110111111111111111111111111100000011100011111100000001000
0000000000000000000000000000000000001000000000111110000000000111110110
1110111111111110111111111111111000000000111111000000001000000000000000
0000000000000000000000001000000001111111100000001111110011011001111111
1111111111111111111000000001111110000000001000000000000000000000000000
0000000000001000000000111111111111111111111001101111111101111111101111
1111111100000111111100000000001000000000000000000000000000000000000000
1000000000011111111111111111111010101111111111111111000111111111111111
1111011110000000001000000000000000000000000000000000000000100000000000
1101111001000001111011010001101111111111011010111111111111111111111100
0000001000000000000000000000000000000000000000100000000001111111000101
1001111101001011000111111111010110111111111111111111111110000000100000
0000000000000000000000000000000000100000000011111111000101000111110010
1100100011111110001101111111111111111111111100000000100000000000000000
0000000000000000000000100000000111111111000000001101111010011001111111
1110111101011100000010011110111000000000100000000000000000000000000000
0000000000100000000011101111000000011101111101000010111111110111001101
1100001010011111110000000000100000000000000000000000000000000000000010
0000000001111111000100001101111110010110011110110110001011110001101001
1111111000000000100000000000000000000000000000000000000010000000000011
1111000101100111111010000100001111001100110111011000000001111111110000
0000100000000000000000000000000000000000000010000000000111111100010100
0111111100011110111111011100101111000100000001111101111000000010000000
0000000000000000000000000000000010000000001110111100010000011111101011
1101111100011001011111011000000001111111110000000010000000000000000000
0000000000000000000010000000011111111111111111111111011001101111110000
1110011111110000101001111111100000000010000000000000000000000000000000
0000000010000000001111111111111111111110010011011111111110000110011111
1001101001111111000000000010000000000000000000000000000000000000001000
0000000111011111111111111110110110111111111111100001000011100000100111
1011100000000010000000000000000000000000000000000000001000000000001111
1111111111111110111001111111111111111011111001111111111111111111000000
0010000000000000000000000000000000000000001000000000011111100000001111
1101110011111111111111011101100111111111111111111111100000001000000000
0000000000000000000000000000001000000000111111000000001111111110011111
1111011111110110011111111000000001111111000000001000000000000000000000
0000000000000000001000000001111110001110000111111110111111111101111111
1111101111111000000000011110000000001000000000000000000000000000000000
0000001000000000111100011111000001111111111111111111111110011111111100
0000000000000110000000001000000000000000000000000000000000000000100000
0000011000011111000000111111111111011111111110011111111111111111111110
0000000000001000000000000000000000000000000000000000100000000000001111
1110001000011111111110011111111000011110000000000000000011100000000000
1000000000000000000000000000000000000000100000000000011111111111100000
1111111111111111111000011111111111111111110000011000000000100000000000
0000000000000000000000000000100000000000011111111111100000011011111110
1111111000011111111111111111111100110000000000100000000000000000000000
0000000000000000100000000000001111111000100000000001111100011111111111
1111111111111111111111000000000000100000000000000000000000000000000000
0000100000000000000001111100000000000000011000000000111111111100000000
0000000000000000000000100000000000000000000000000000000000000010000000
0000000001111100000000000000000000000000001111111100000000000000000000
0000000000100000000000000000000000000000000000000010000000000000000011
1000000000000000000000000000000110111100000000000000000000000000000010
0000000000000000000000000000000000000010000000000000000000000000000000
0000000000000000000000011000000000000000000000000000000010000000000000
0000000000000000000000000010000000000000000000000000000000000000000000
0000000000000000000000000000000000000000000010000000000000000000000000
0000000000000010000000000000000010000000000000000000000000000000000000
0000000000000000000000000000000010000000000000000000000000000000000000
0010000000000000000111000000000000000000000000000000000000000000000000
0000000000000000000010000000000000000000000000000000000000001000000000
0000000111100000000000000000000000000000000000000000000000000000000000
0000000010000000000000000000000000000000000000001000110000110001111100
1000000000000000000000000000000000000000000000000000000000000000001000
0000000000000000000000000000000000001000111011110011111111100000000000
0000000000000000000000000000000000000000000000000000001000000000000000
0000000000000000000000001000001111000001111100100000000000000000000000
0000000000000000000000000000000000000000001000000000000000000000000000
0000000000001000000110000000011110000000000000000000000000000000000000
0000000000000000000000000000001000000000000000000000000000000000000000
1000111111110000011100000000000000000000000000000000000000000000000000
0000000000000000001000000000000000000000000000000000000000100011111111
0000001000000000000000000000000000000000000000000000000000000000000000
0000001000000000000000000000000000000000000000110000000000000000000000
0000000000000000000000000000000000000000000000000000000000000001100000
0000000000000000000000000000000000011111111111111111111111111111111111
1111111111111111111111111111111111111111111111111111000000000000000000
00