P1
# Created by GIMP version 3.0.4 PNM plug-in
128 64
0000000000000000000001111111111111111111111111111111111111111111111111
1111111111111111111111111111111111111100000000000000000000000000000000
0000000011000000000000000000000000000000000000000000000000000000000000
0000000000000000000000000110000000000000000000000000000000000000001000
0000000000000000000000000000000000000000000000000000000000000000000011
1001111111110010000000000000000000000000000000000000001000000000000000
0000000000000000000000000000000000000000000000000000000111110111111111
0010000000000000000000000000000000000000001000000000000000000000000000
0000000000000000000000000000000000000000001111110000111000001000000000
0000000000000000000000000000001000000000000000000000000000000000000000
0000000000000000000000000000011111100001111100001000000000000000000000
0000000000000000001000000000000000000000000000000000000000000000000000
0000000000000000001111110111100111001000000000000000000000000000000000
0000001000000000000000000000000000000000000000000000000000000000000000
0000000111110110000011001000000000000000000000000000000000000000100000
0000000000000000000000000000000000000000000000000000000000000000001110
0000000000001000000000000000000000000000000000000000100000000000000000
0000000000000000000000000000000000000000000000000000000000000000000000
1000000000000000000000000000000000000000100000000000000000000000000000
0000000000000000000000000000000000000000000000000000000000100000000000
0000000000000000000000000000100000000000000000000000000000000000000000
0000000000000000000000000000000000000000000000100000000000000000000000
0000000000000000100000000000000000000000000000000110000000000000000000
0000000000000000111000000000000000100000000000000000000000000000000000
0000100000000000000000000000000000001111111000000000000000000000000000
0001111100000000000000100000000000000000000000000000000000000010000000
0000000000000000000000001111111100000000000000000000000000001111111000
0000000000100000000000000000000000000000000000000010000000000000000000
0000000000001111111111110000000110000000000000011111111000000000000010
0000000000000000000000000000000000000010000000000000111111111111111111
1111100011111110001111100000000000111111110000000000000010000000000000
0000000000000000000000000010000000000001000111111111111111111100000111
1111111111110110000001111111100000000000000010000000000000000000000000
0000000000000010000000000110000000000000000000111100000111111111111111
1111000000111111110000000000000010000000000000000000000000000000000000
0010000000000001000000000000000000111100000111111111111111111110000001
1111111000000000000010000000000000000000000000000000000000001000000000
0000111111111111111111111100000111111111111111111111000000111111100110
0000000010000000000000000000000000000000000000001000000000001100000000
0000001111111110111111111111111111111111100000011111001111000000001000
0000000000000000000000000000000000001000000000011110000000000111111111
1110111111111111111111111111111000001110011111100000001000000000000000
0000000000000000000000001000000000111111100000000111111111111101111111
1111111100111111111100000000111111000000001000000000000000000000000000
0000000000001000000001111111111111111111111100111011111111111111100111
0111111101000111111110000000001000000000000000000000000000000000000000
1000000000111111111111111111111110101101111111111111010100111111111111
1111111100000000001000000000000000000000000000000000000000100000000001
1110111001000001111110111010011111111110011011101111111111111101111000
0000001000000000000000000000000000000000000000100000000000111111100101
1001111110011111100111111110111111011111111111111111111100000000100000
0000000000000000000000000000000000100000000001111111100101000111111100
0111110001111101001101111111111111111111111110000000100000000000000000
0000000000000000000000100000000011101111100000001100111100100111110111
1101101111011110000010011111111100000000100000000000000000000000000000
0000000000100000000111111111100000001100111110100010111110110111100011
1110001010011111111000000000100000000000000000000000000000000000000010
0000000011111111100100000111111100000001111110100111100111111001101001
1110110000000000100000000000000000000000000000000000000010000000000111
1111100101100111111100001110011111101111011011011000001000111111100000
0000100000000000000000000000000000000000000010000000000011011110010100
0011111100111111001111111100011111011100000000111111110000000010000000
0000000000000000000000000000000010000000000111111110010000011111110011
1110111100101111001111011000001000111111111000000010000000000000000000
0000000000000000000010000000001111111111111111111111110010100111110011
0011101111111000101001111011110000000010000000000000000000000000000000
0000000010000000011111111111111111111111100111001111111011100111010111
1001101001111111100000000010000000000000000000000000000000000000001000
0000001111110111111111111111100111011111111111110101100111110000100111
1111000000000010000000000000000000000000000000000000001000000000011111
1111111111111111011001011111111111111111110011111111111111011110000000
0010000000000000000000000000000000000000001000000000011111110000001111
1111111111111111111111111111111111111111111111111111000000001000000000
0000000000000000000000000000001000000000111111000000001111111111111111
1111111111100111111111111000000000111111100000001000000000000000000000
0000000000000000001000000001111110011110000111111111111111111111111111
0111111111111000000000011111000000001000000000000000000000000000000000
0000001000000000111110111111000000111111111111111111111100011111111100
0000000000001110000000001000000000000000000000000000000000000000100000
0000011100111111100000111111111111111111111000001111111111111111111111
0000000000001000000000000000000000000000000000000000100000000000000011
1111110000011111111111111111111000001111000000000000000001110000000000
1000000000000000000000000000000000000000100000000000000011111111100000
1111111111111111111000001111000000000000000000001000000000100000000000
0000000000000000000000000000100000000000000001111111110000011011111111
1111111000001111111111111111111100110000000000100000000000000000000000
0000000000000000100000000000000011111111100000000000111100011111111111
1111111111111111111111100000000000100000000000000000000000000000000000
0000100000000000000011111111000000000000011000000000111111111100000000
0000000000000000000000100000000000000000000000000000000000000010000000
0000000011111110000000000000000000000000001111111100000000000000000000
0000000000100000000000000000000000000000000000000010000000000000001111
1100000000000000000000000000000010011100000000000000000000000000000010
0000000000000000000000000000000000000010000000000000000111100000000000
0000000000000000000000011000000000000000000000000000000010000000000000
0000000000000000000000000010000000000000000000000000000000000000000000
0000000000000000000000000000000000000000000010000000000000000000000000
0000000000000010000000000000000000000000000000000000000000000000000000
0000000000000000000000000000000010000000000000000000000000000000000000
0010000000000000000000000000000000000000000000000000000000000000000000
0000000000000000000010000000000000000000000000000000000000001000110000
1100011000000000000000000000000000000000000000000000000000000000000000
0000000010000000000000000000000000000000000000001000110000110011110000
0000000000000000000000000000000000000000000000000000000000000000001000
0000000000000000000000000000000000001000011111100011111000000000000000
0000000000000000000000000000000000000000000000000000001000000000000000
0000000000000000000000001000000111000001111100000000000000000000000000
0000000000000000000000000000000000000000001000000000000000000000000000
0000000000001000111111110011111000000000000000000000000000000000000000
0000000000000000000000000000001000000000000000000000000000000000000000
1000111111110011110000000000000000000000000000000000000000000000000000
0000000000000000001000000000000000000000000000000000000000100000000000
0001100000000000000000000000000000000000000000000000000000000000000000
0000001000000000000000000000000000000000000000110000000000000000000000
0000000000000000000000000000000000000000000000000000000000000001100000
0000000000000000000000000000000000011111111111111111111111111111111111
1111111111111111111111111111111111111111111111111111000000000000000000
00