P1
# Created by GIMP version 3.0.4 PNM plug-in
128 64
0000000000000000000011111111111111111111111111111111111111111111111111
1111111111111111111111111111111111111000000000000000000000000000000000
0000000110000000000000000000000000000000000000000000000000000000000000
0000000000000000000000001100000000000000000000000000000000000000010000
0000000000000000000000000000000000000000000000000000000000000000001100
0011111111100100000000000000000000000000000000000000010000000000000000
0000000000000000000000000000000000000000000000000000011110001111111110
0100000000000000000000000000000000000000010000000000000000000000000000
0000000000000000000000000000000000000001001111000001110000010000000000
0000000000000000000000000000010000000000000000000000000000000000000000
0000000000000000000000000001111111100011111100010000000000000000000000
0000000000000000010000000000000000000000000000000000000000000000000000
0000000000000001001111001110001110010000000000000000000000000000000000
0000010000000000000000000000000000000000000000000000000000000000000000
0001011110001100000110010000000000000000000000000000000000000001000000
0000000000000000000000000000000000000000000000000000000000000000110000
0000000000010000000000000000000000000000000000000001000000000000000000
0000000000000000000000000000000000000000000000000000000000000000000001
0000000000000000000000000000000000000001000000000000000000000000000000
0000000000000000000000000000000000000000000000000000000001000000000000
0000000000000000000000000001000000000000000000000000000000000000000000
0000000000000000000000000000000000000000000001000000000000000000000000
0000000000000001000000000000000000000000000000011100100000000000000000
0000000000000111100000000000000001000000000000000000000000000000000000
0001000000000000000000000000000000011101110000000000000000000000000000
1111110000000000000001000000000000000000000000000000000000000100000000
0000000000000000000000011111111000000000001000000000000000111111100000
0000000001000000000000000000000000000000000000000100000000000000000000
0000000000011111111111100000011100000000000100011111110000000000000100
0000000000000000000000000000000000000100000000000001111111111111111111
1110000111111100111111000000000110001111111000000000000100000000000000
0000000000000000000000000100000000000110011111111111111111111000011111
1111111111101100000111111111111100000000000100000000000000000000000000
0000000000000100000000001100000000000000000001111000011111111111111111
1110000110001111111000000000000100000000000000000000000000000000000000
0100000000000110000000000000000001111000011111111111111111111100010001
1111110000000000000100000000000000000000000000000000000000010000000001
1001111111111111111111111000011111111111111111111110000011111110001100
0000000100000000000000000000000000000000000000010000000011111000000000
0000111111111101111111111111111111111111000011111100111110000000010000
0000000000000000000000000000000000010000000111111100000000001111111111
1101111111111111111111111111110001111000111111000000010000000000000000
0000000000000000000000010000000011111111000000011111111111110011111111
1111111111111111111000000011111110000000010000000000000000000000000000
0000000000010000000001111111111111111111110001111111111111111111011101
1111111110001111111100000000010000000000000000000000000000000000000001
0000000000111111111111111111111010001111111111111110001101111111111111
1110111000000000010000000000000000000000000000000000000001000000000111
1011111110000111111001000111111111111110111001111111111111111111110000
0000010000000000000000000000000000000000000001000000001111111111001011
0011111101101001111111111110111011111111111111111111111000000001000000
0000000000000000000000000000000001000000011111111110001010001111111001
1110011111110100110011111111111111111111111100000001000000000000000000
0000000000000000000001000000001110111110000000001001100011100101111100
1101110111111100000101111101111000000001000000000000000000000000000000
0000000001000000000111111110000000011001111110110001111101101110111111
1000010100111111110000000001000000000000000000000000000000000000000100
0000000011111110001000001001111100110110111001101101011011100011010011
1111100000000001000000000000000000000000000000000000000100000000011111
1110001011001111110101111101111111111001101111110000000011111111000000
0001000000000000000000000000000000000000000100000000111011111100101000
1111100011100011111111011110111110011000000011110111100000000100000000
0000000000000000000000000000000100000001111111111110100001111101110000
1111111011001001111110010001010011111111110000000100000000000000000000
0000000000000000000100000000111111111111111111111101100001111111100001
1111111111110011010011111111100000000100000000000000000000000000000000
0000000100000000011111111111111111111111001111111111111110000000011110
0000010011111111000000000100000000000000000000000000000000000000010000
0000001111011111111111111100001111011111111011110111111111000001011110
1110000000000100000000000000000000000000000000000000010000000001111111
1111111111111110110111011111100111111111111111111111111111111100000000
0100000000000000000000000000000000000000010000000011111111100000011111
1101110111111111111111111110001111111111111111111110000000010000000000
0000000000000000000000000000010000000111111110000000011111111111111111
1111111111001111111111110000000011111111000000010000000000000000000000
0000000000000000010000000011111000011110011111111111110111111111111100
1111111111110000000000111110000000010000000000000000000000000000000000
0000010000000001111000111111000111111111111111111111111110111111111000
0000000000011100000000010000000000000000000000000000000000000001000000
0000000001111111000001111111111111111111111110111111111111111111111110
0000000000010000000000000000000000000000000000000001000000000000001111
1110010000111111111111111111110000111100000000000000000011100000000001
0000000000000000000000000000000000000001000000000000011111110011000011
1111111111111111110000111111111111111111100000110000000001000000000000
0000000000000000000000000001000000000000111111111111000000110111111111
1111110000111111111111111111111001100000000001000000000000000000000000
0000000000000001000000000000011111110011000000000011111000111111111111
1111111111111111111111000000000001000000000000000000000000000000000000
0001000000000000001111111001000000000000110000001011111111111000000000
0000000000000000000001000000000000000000000000000000000000000100000000
0000000111111100000000000000000000000000011111111000000000000000000000
0000000001000000000000000000000000000000000000000100000000000000001111
1100000000000000000000000000001101111000000000000000000000000000000100
0000000000000000000000000000000000000100000000000000000111100000000000
0000000000000000000100110000000000000000000000000000000100000000000000
0000000000000000000000000100000000000000000000000000000000000000000000
0000000000000000000000000000000000000000000100000000000000000000000000
0000000000000100000000000000000000000000000000000000000000000000000000
0000000000000000000000000000000100000000000000000000000000000000000000
0100000000000000000000000000000000000000000000000000000000000000000000
0000000000000000000100000000000000000000000000000000000000010000000000
0000011000000000000000000000000000000000000000000000000000000000000000
0000000100000000000000000000000000000000000000010011000001100011110000
0000000000000000000000000000000000000000000000000000000000000000010000
0000000000000000000000000000000000010011100111100111100100000000000000
0000000000000000000000000000000000000000000000000000010000000000000000
0000000000000000000000010000111110001111111100000000000000000000000000
0000000000000000000000000000000000000000010000000000000000000000000000
0000000000010000011100000111100100000000000000000000000000000000000000
0000000000000000000000000000010000000000000000000000000000000000000001
0011111111100011110000000000000000000000000000000000000000000000000000
0000000000000000010000000000000000000000000000000000000001001111111110
0001100000000000000000000000000000000000000000000000000000000000000000
0000010000000000000000000000000000000000000001100000000000000000000000
0000000000000000000000000000000000000000000000000000000000000011000000
0000000000000000000000000000000000111111111111111111111111111111111111
1111111111111111111111111111111111111111111111111110000000000000000000
00