P1
# Created by GIMP version 3.0.4 PNM plug-in
128 64
0000000000000000000001111111111111111111111111111111111111111111111111
1111111111111111111111111111111111111100000000000000000000000000000000
0000000011000000000000000000000000000000000000000000000000000000000000
0000000000000000000000000110000000000000000000000000000000000000001000
0000000000000000000000000000000000000000000000000000000000000000001110
0001100111000010000000000000000000000000000000000000001000000000000000
0000000000000000000000000000000000000000000000000000011111001100111110
0010000000000000000000000000000000000000001000000000000000000000000000
0000000000000000000000000000000000000000111111101100110011001000000000
0000000000000000000000000000001000000000000000000000000000000000000000
0000000000000000000000000000011111001100110011001000000000000000000000
0000000000000000001000000000000000000000000000000000000000000000000000
0000000000000000001110000111111110001000000000000000000000000000000000
0000001000000000000000000000000000000000000000000000000000000000000000
0000000000000011111100001000000000000000000000000000000000000000100000
0000000000000000000000000000000000000000000000000000000000000000000000
0000000000001000000000000000000000000000000000000000100000000000000000
0000000000000000000000000000000000000000000000000000000000000000000000
1000000000000000000000000000000000000000100000000000000000000000000000
0000000000000000000000000000000000000000000000000000000000100000000000
0000000000000000000000000000100000000000000000000000000000000000000000
0000000000000000000000000000000000000000000000100000000000000000000000
0000000000000000100000000000000000000000000000000000000000000000000000
0000000000000000000000000000000000100000000000000000000000000000000000
0000100000000000000000000000000000000000000000000000000000000000000000
0000000000000000000000100000000000000000000000000000000000000010000000
0000000000000000000000000000000000000000000000000000000000000000000000
0000000000100000000000000000000000000000000000000010000000000000000000
0000000000000000000000000000000000000000000000000000000000000000000010
0000000000000000000000000000000000000010000000000000001110000000000000
0011100000000000000011100000000000000011100000000000000010000000000000
0000000000000000000000000010000000000000011111000000000000011111000000
0000000111110000000000000111110000000000000010000000000000000000000000
0000000000000010000000000001111111110000000001111111110000000001111111
1100000000011111111100000000000010000000000000000000000000000000000000
0010000000000111111111111100000111111111111100000111111111111100000111
1111111111000000000010000000000000000000000000000000000000001000000000
1111111111111110001111111111111110001111111111111110001111111111111110
0000000010000000000000000000000000000000000000001000000000011111111111
1100000111111111111100000111111111111100000111111111111100000000001000
0000000000000000000000000000000000001000000000000111111111000000000111
1111110000000001111111110000000001111111110000000000001000000000000000
0000000000000000000000001000000000000001111100000000000001111100000000
0000011111000000000000011111000000000000001000000000000000000000000000
0000000000001000000000000000111000000000000000111000000000000000111000
0000000000001110000000000000001000000000000000000000000000000000000000
1000000000000000000000000000000000000000000000000000000000000000000000
0000000000000000001000000000000000000000000000000000000000100000000000
0000000000000000000000000000000000000000000000000000000000000000000000
0000001000000000000000000000000000000000000000100000000000000000000000
0000000000000000000000000000000000000000000000000000000000000000100000
0000000000000000000000000000000000100000000000000000000000000000000000
0000001110000000000000000000000000000000000000000000100000000000000000
0000000000000000000000100000000000000000000000000000000000000001111100
0000000000000000000000000000000000000000100000000000000000000000000000
0000000000100000000000000000000000000000000000000111111111000000000000
0000000000000000000000000000100000000000000000000000000000000000000010
0000000000000000000000000000000000011111111111110000000000000000000000
0000000000000000100000000000000000000000000000000000000010000000000000
0000000000000000000000111111111111111000000000000000000000000000000000
0000100000000000000000000000000000000000000010000000000000000000000000
0000000000011111111111110000000000000000000000000000000000000010000000
0000000000000000000000000000000010000000000000000000000000000000000000
0111111111000000000000000000000000000000000000000010000000000000000000
0000000000000000000010000000000000000000000000000000000000000111110000
0000000000000000000000000000000000000010000000000000000000000000000000
0000000010000000000000000000000000000000000000000011100000000000000000
0000000000000000000000000010000000000000000000000000000000000000001000
0000000000000000000000000000000000000000000000000000000000000000000000
0000000000000010000000000000000000000000000000000000001000000000000000
0000000000000000000000000000000000000000000000000000000000000000000000
0010000000000000000000000000000000000000001000000000000000111000000000
0000001110000000000000001110000000000000001110000000000000001000000000
0000000000000000000000000000001000000000000001111100000000000001111100
0000000000011111000000000000011111000000000000001000000000000000000000
0000000000000000001000000000000111111111000000000111111111000000000111
1111110000000001111111110000000000001000000000000000000000000000000000
0000001000000000011111111111110000011111111111110000011111111111110000
0111111111111100000000001000000000000000000000000000000000000000100000
0000111111111111111000111111111111111000111111111111111000111111111111
1110000000001000000000000000000000000000000000000000100000000001111111
1111110000011111111111110000011111111111110000011111111111110000000000
1000000000000000000000000000000000000000100000000000011111111100000000
0111111111000000000111111111000000000111111111000000000000100000000000
0000000000000000000000000000100000000000000111110000000000000111110000
0000000001111100000000000001111100000000000000100000000000000000000000
0000000000000000100000000000000011100000000000000011100000000000000011
1000000000000000111000000000000000100000000000000000000000000000000000
0000100000000000000000000000000000000000000000000000000000000000000000
0000000000000000000000100000000000000000000000000000000000000010000000
0000000000000000000000000000000000000000000000000000000000000000000000
0000000000100000000000000000000000000000000000000010000000000000000000
0000000000000000000000000000000000000000000000000000000000000000000010
0000000000000000000000000000000000000010000000000000000000000000000000
0000000000000000000000000000000000000000000000000000000010000000000000
0000000000000000000000000010000000000000000000000000000000000000000000
0000000000000000000000000000000000000000000010000000000000000000000000
0000000000000010000000000000000000000000000000000000000000000000000000
0000000000000000000000000000000010000000000000000000000000000000000000
0010000000000000000000000000000000000000000000000000000000000000000000
0000000000000000000010000000000000000000000000000000000000001000000000
0000000000000000000000000000000000000000000000000000000000000000000000
0000000010000000000000000000000000000000000000001000011111000000000000
0000000000000000000000000000000000000000000000000000000000000000001000
0000000000000000000000000000000000001000111111100001110000000000000000
0000000000000000000000000000000000000000000000000000001000000000000000
0000000000000000000000001001100100110011111000000000000000000000000000
0000000000000000000000000000000000000000001000000000000000000000000000
0000000000001001100100110111111100000000000000000000000000000000000000
0000000000000000000000000000001000000000000000000000000000000000000000
1000111100110011111000000000000000000000000000000000000000000000000000
0000000000000000001000000000000000000000000000000000000000100001110110
0001110000000000000000000000000000000000000000000000000000000000000000
0000001000000000000000000000000000000000000000110000000000000000000000
0000000000000000000000000000000000000000000000000000000000000001100000
0000000000000000000000000000000000011111111111111111111111111111111111
1111111111111111111111111111111111111111111111111111000000000000000000
00