P1
# Created by GIMP version 3.0.4 PNM plug-in
128 64
0000000000000000000001111111111111111111111111111111111111111111111111
1111111111111111111111111111111111111100000000000000000000000000000000
0000000011000000000000000000000000000000000000000000000000000000000000
0000000000000000000000000110000000000000000000000000000000000000001000
0000000000000000000000000000000000000000000000000000000000000000000001
1000000000000010000000000000000000000000000000000000001000000000000000
0000000000000000000000000000000000000000000000000000000011110011011110
0010000000000000000000000000000000000000001000000000000000000000000000
0000000000000000000000000000000000000000000111110010010011001000000000
0000000000000000000000000000001000000000000000000000000000000000000000
0000000000000000000000000000001111100010010011001000000000000000000000
0000000000000000001000000000000000000000000000000000000000000000000000
0000000000000000000111110011010011001000000000000000000000000000000000
0000001000000000000000000000000000000000000000000000000000000000000000
0000000011110001111110001000000000000000000000000000000000000000100000
0000000000000000000000000000000000000000000000000000000000000000000110
0000000000001000000000000000000000000000000000000000100000000000000000
0000000000000000000000000000000000000000000000000000000000000000000000
1000000000000000000000000000000000000000100000000000000000000000000000
0000000000000000000000000000000000000000000000000000000000100000000000
0000000000000000000000000000100000000000000000000000000000000000000000
0000000000000000000000000000000000000000000000100000000000000000000000
0000000000000000100000000000000000000000000000000000000000000000000000
0000000000000000000000000000000000100000000000000000000000000000000000
0000100000000000000111110000000000000000111100000000000000111000000000
0000111110000000000000100000000000000000000000000000000000000010000000
0000001111111000000000000001111110000000000001111100000000000111111100
0000000000100000000000000000000000000000000000000010000000000000111111
1100000000000011111111000000000011111110000000001111111100000000000010
0000000000000000000000000000000000000010000000000000111111111000000000
0111111111000000000111111110000000011111111100000000000010000000000000
0000000000000000000000000010000000000000111111111100000000111111111100
0000001111111110000000111111111100000000000010000000000000000000000000
0000000000000010000000000000011111111110000001111111111000000001111111
1100000001111111111000000000000010000000000000000000000000000000000000
0010000000000000001111111111000011111111110000000011111111100000001111
1111110000000000000010000000000000000000000000000000000000001000000000
0000011111111110000001111111111000000001111111110000000111111111100000
0000000010000000000000000000000000000000000000001000000000000011111111
1100000000111111111100000000111111111000000011111111110000000000001000
0000000000000000000000000000000000001000000000000011111111100000000001
1111111100000000011111111000000001111111110000000000001000000000000000
0000000000000000000000001000000000000011111111000000000000111111110000
0000001111111000000000111111110000000000001000000000000000000000000000
0000000000001000000000000011111110000000000000011111100000000000011111
0000000000011111110000000000001000000000000000000000000000000000000000
1000000000000001111100000000000000001111000001111000001110000000000000
1111100000000000001000000000000000000000000000000000000000100000000000
0000000000000000000000000000000011111100000000000000000000000000000000
0000001000000000000000000000000000000000000000100000000000000000000000
0000000000000000000111111110000000000000000000000000000000000000100000
0000000000000000000000000000000000100000000000000000000000000000000000
0000001111111110000000000000000000000000000000000000100000000000000000
0000000000000000000000100000000000000000000000000000000000000001111111
1110000000000000000000000000000000000000100000000000000000000000000000
0000000000100000000000000000000000000000000000000011111111110000000000
0000000000000000000000000000100000000000000000000000000000000000000010
0000000000000000000000000000000000000111111111100000000000000000000000
0000000000000000100000000000000000000000000000000000000010000000000000
0000000000000000000000000011111111110000000000000000000000000000000000
0000100000000000000000000000000000000000000010000000000000000000000000
0000000000000001111111111000000000000000000000000000000000000010000000
0000000000000000000000000000000010000000000000000000000000000000000000
0000111111111000000000000000000000000000000000000010000000000000000000
0000000000000000000010000000000000000000000000000000000000000001111111
1000000000000000000000000000000000000010000000000000000000000000000000
0000000010000000000000000000000000000000000000000000111111000000000000
0000000000000000000000000010000000000000000000000000000000000000001000
0000000000011111000000000000000011110000011110000111110000000000001111
1000000000000010000000000000000000000000000000000000001000000000000011
1111100000000000000111111000000000001111111000000000011111110000000000
0010000000000000000000000000000000000000001000000000000011111111000000
0000001111111100000000011111111000000000111111110000000000001000000000
0000000000000000000000000000001000000000000011111111100000000001111111
1100000000111111111000000001111111110000000000001000000000000000000000
0000000000000000001000000000000011111111110000000011111111110000000111
1111111000000011111111110000000000001000000000000000000000000000000000
0000001000000000000001111111111000000111111111100000001111111111000000
0111111111100000000000001000000000000000000000000000000000000000100000
0000000000111111111100001111111111000000011111111110000000111111111100
0000000000001000000000000000000000000000000000000000100000000000000111
1111111000000111111111100000001111111111000000011111111110000000000000
1000000000000000000000000000000000000000100000000000001111111111000000
0011111111110000000111111111100000001111111111000000000000100000000000
0000000000000000000000000000100000000000001111111110000000000111111111
0000000011111111100000000111111111000000000000100000000000000000000000
0000000000000000100000000000001111111100000000000011111111000000000111
1111100000000011111111000000000000100000000000000000000000000000000000
0000100000000000001111111000000000000001111110000000000011111110000000
0001111111000000000000100000000000000000000000000000000000000010000000
0000000111110000000000000000111100000000000001111100000000000011111000
0000000000100000000000000000000000000000000000000010000000000000000000
0000000000000000000000000000000000000000000000000000000000000000000010
0000000000000000000000000000000000000010000000000000000000000000000000
0000000000000000000000000000000000000000000000000000000010000000000000
0000000000000000000000000010000000000000000000000000000000000000000000
0000000000000000000000000000000000000000000010000000000000000000000000
0000000000000010000000000000000000000000000000000000000000000000000000
0000000000000000000000000000000010000000000000000000000000000000000000
0010000000000000000000000000000000000000000000000000000000000000000000
0000000000000000000010000000000000000000000000000000000000001000000000
0000110000000000000000000000000000000000000000000000000000000000000000
0000000010000000000000000000000000000000000000001000011111100111100000
0000000000000000000000000000000000000000000000000000000000000000001000
0000000000000000000000000000000000001000100010110111110000000000000000
0000000000000000000000000000000000000000000000000000001000000000000000
0000000000000000000000001000100010010011111000000000000000000000000000
0000000000000000000000000000000000000000001000000000000000000000000000
0000000000001000100010010111110000000000000000000000000000000000000000
0000000000000000000000000000001000000000000000000000000000000000000000
1000011100100111100000000000000000000000000000000000000000000000000000
0000000000000000001000000000000000000000000000000000000000100000000000
0011000000000000000000000000000000000000000000000000000000000000000000
0000001000000000000000000000000000000000000000110000000000000000000000
0000000000000000000000000000000000000000000000000000000000000001100000
0000000000000000000000000000000000011111111111111111111111111111111111
1111111111111111111111111111111111111111111111111111000000000000000000
00