P1
# Created by GIMP version 3.0.4 PNM plug-in
128 64
0000000000000000000001111111111111111111111111111111111111111111111111
1111111111111111111111111111111111111100000000000000000000000000000000
0000000011000000000000000000000000000000000000000000000000000000000000
0000000000000000000000000110000000000000000000000000000000000000001000
0000000000000000000000000000000000000000000000000000000000000000000100
0000000011100010000000000000000000000000000000000000001000000000000000
0000000000000000000000000000000000000000000000000000001110000110011111
0010000000000000000000000000000000000000001000000000000000000000000000
0000000000000000000000000000000000000000011110000100010001001000000000
0000000000000000000000000000001000000000000000000000000000000000000000
0000000000000000000000000000101111100100010001001000000000000000000000
0000000000000000001000000000000000000000000000000000000000000000000000
0000000000000000111111110110011111001000000000000000000000000000000000
0000001000000000000000000000000000000000000000000000000000000000000000
0000101111100011111110001000000000000000000000000000000000000000100000
0000000000000000000000000000000000000000000000000000000000000001111000
0000000000001000000000000000000000000000000000000000100000000000000000
0000000000000000000000000000000000000000000000000000111000000000000000
1000000000000000000000000000000000000000100000000000000000000000000000
0000000000000000000000000000000000000000010000000000000000100000000000
0000000000000000000000000000100000000000000000000000000000000000000000
0000000000000000000000000000000000000000000000100000000000000000000000
0000000000000000100000000000000000000000000000000000000000000000000000
0000000000000000000000000000000000100000000000000000000000000000000000
0000100000000000000000000000000000000000000000000000000000000000000000
0000000000000000000000100000000000000000000000000000000000000010000000
0000000001110000000000000001100000000000000011100000000000000011100000
0000000000100000000000000000000000000000000000000010000000000000001111
1000000000000111110000000000000111110000000000000111110000000000000010
0000000000000000000000000000000000000010000000000000001111100000000000
0111110000000000000111110000000000000111110000000000000010000000000000
0000000000000000000000000010000000000011111111100000000111111111000000
0000000111111111000000000111111111000000000010000000000000000000000000
0000000000000010000000000111111111001100001111111110011000000011001111
1111100000110011111111100000000010000000000000000000000000000000000000
0010000000000111111111111100001111111111111000000011111111111110000011
1111111111100000000010000000000000000000000000000000000000001000000000
0111111111111100001111111111111000000011111111111110000011111111111110
0000000010000000000000000000000000000000000000001000000000011111111100
1100001111111110011000000011001111111110000011001111111110000000001000
0000000000000000000000000000000000001000000000001111111110000000011111
1111000000000000011111111100000000011111111100000000001000000000000000
0000000000000000000000001000000000000000111110000000000001111100000000
0000011111000000000000011111000000000000001000000000000000000000000000
0000000000001000000000000000111110000000000001111100000000000001111100
0000000000011111000000000000001000000000000000000000000000000000000000
1000000000000000011100000000000000111000000000000000111000000000000000
1110000000000000001000000000000000000000000000000000000000100000000000
0000000000000000000000000000000011100000000000000000000000000000000000
0000001000000000000000000000000000000000000000100000000000000000000000
0000000000000000000111110000000000000000000000000000000000000000100000
0000000000000000000000000000000000100000000000000000000000000000000000
0000000111110000000000000000000000000000000000000000100000000000000000
0000000000000000000000100000000000000000000000000000000000000000011111
1111000000000000000000000000000000000000100000000000000000000000000000
0000000000100000000000000000000000000000000000000011001111111110000000
0000000000000000000000000000100000000000000000000000000000000000000010
0000000000000000000000000000000000000011111111111110000000000000000000
0000000000000000100000000000000000000000000000000000000010000000000000
0000000000000000000000000011111111111110000000000000000000000000000000
0000100000000000000000000000000000000000000010000000000000000000000000
0000000000000011001111111110000000000000000000000000000000000010000000
0000000000000000000000000000000010000000000000000000000000000000000000
0000011111111100000000000000000000000000000000000010000000000000000000
0000000000000000000010000000000000000000000000000000000000000001111100
0000000000000000000000000000000000000010000000000000000000000000000000
0000000010000000000000000000000000000000000000000001111100000000000000
0000000000000000000000000010000000000000000000000000000000000000001000
0000000000000000000000000000000000000000111000000000000000000000000000
0000000000000010000000000000000000000000000000000000001000000000000000
0111000000000000001110000000000000001110000000000000001110000000000000
0010000000000000000000000000000000000000001000000000000000111110000000
0000011111000000000000011111000000000000011111000000000000001000000000
0000000000000000000000000000001000000000000000111110000000000001111100
0000000000011111000000000000011111000000000000001000000000000000000000
0000000000000000001000000000001111111110000000011111111100000000000001
1111111100000000011111111100000000001000000000000000000000000000000000
0000001000000000011111111100110000111111111001100000001100111111111000
0011001111111110000000001000000000000000000000000000000000000000100000
0000011111111111110000111111111111100000001111111111111000001111111111
1110000000001000000000000000000000000000000000000000100000000001111111
1111110000111111111111100000001111111111111000001111111111111000000000
1000000000000000000000000000000000000000100000000001111111110011000011
1111111001100000001100111111111000001100111111111000000000100000000000
0000000000000000000000000000100000000000111111111000000001111111110000
0000000001111111110000000001111111110000000000100000000000000000000000
0000000000000000100000000000000011111000000000000111110000000000000111
1100000000000001111100000000000000100000000000000000000000000000000000
0000100000000000000011111000000000000111110000000000000111110000000000
0001111100000000000000100000000000000000000000000000000000000010000000
0000000001110000000000000011100000000000000011100000000000000011100000
0000000000100000000000000000000000000000000000000010000000000000000000
0000000000000000000000000000000000000000000000000000000000000000000010
0000000000000000000000000000000000000010000000000000000000000000000000
0000000000000000000000000000000000000000000000000000000010000000000000
0000000000000000000000000010000000000000000000000000000000000000000000
0000000000000000000000000000000000000000000010000000000000000000000000
0000000000000010000000000000000100000000000000000000000000000000000000
0000000000000000000000000000000010000000000000000000000000000000000000
0010000000000000001110000000000000000000000000000000000000000000000000
0000000000000000000010000000000000000000000000000000000000001000000000
0000001111000000000000000000000000000000000000000000000000000000000000
0000000010000000000000000000000000000000000000001000111111100011111010
0000000000000000000000000000000000000000000000000000000000000000001000
0000000000000000000000000000000000001001111100110111111110000000000000
0000000000000000000000000000000000000000000000000000001000000000000000
0000000000000000000000001001000100010011111010000000000000000000000000
0000000000000000000000000000000000000000001000000000000000000000000000
0000000000001001000100010000111100000000000000000000000000000000000000
0000000000000000000000000000001000000000000000000000000000000000000000
1001111100010000111000000000000000000000000000000000000000000000000000
0000000000000000001000000000000000000000000000000000000000100011100010
0000010000000000000000000000000000000000000000000000000000000000000000
0000001000000000000000000000000000000000000000110000000000000000000000
0000000000000000000000000000000000000000000000000000000000000001100000
0000000000000000000000000000000000011111111111111111111111111111111111
1111111111111111111111111111111111111111111111111111000000000000000000
00