P1
# Created by GIMP version 3.0.4 PNM plug-in
128 64
0000000000000000000001111111111111111111111111111111111111111111111111
1111111111111111111111111111111111111100000000000000000000000000000000
0000000011000000000000000000000000000000000000000000000000000000000000
0000000000000000000000000110000000000000000000000000000000000000001000
0000000000000000000000000000000000000000000000000000000000000000010000
0000011110000010000000000000000000000000000000000000001000000000000000
0000000000000000000000000000000000000000000000000000111000000011111110
0010000000000000000000000000000000000000001000000000000000000000000000
0000000000000000000000000000000000000001111000000110000011001000000000
0000000000000000000000000000001000000000000000000000000000000000000000
0000000000000000000000000100111110001110000001001000000000000000000000
0000000000000000001000000000000000000000000000000000000000000000000000
0000000000000111111111001110000011001000000000000000000000000000000000
0000001000000000000000000000000000000000000000000000000000000000000000
0100111110001011111110001000000000000000000000000000000000000000100000
0000000000000000000000000000000000000000000000000000000000000111100000
1001111000001000000000000000000000000000000000000000100000000000000000
0000000000000000000000000000000000000000000000000011100000010000000000
1000000000000000000000000000000000000000100000000000000000000000000000
0000000000000000000000000000000000000001000000000000000000100000000000
0000000000000000000000000000100000000000000000000000000000000000000000
0000000000000000000000000000000000000000000000100000000000000000000000
0000000000000000100000000000000000000000000000000000111000000000000000
0000000000000000001111000000000000100000000000000000000000000000000000
0000100000000000000000000000000000000001111100000000000000000000000000
0000011111100000000000100000000000000000000000000000000000000010000000
0000000000000000000000000011111100000000010000000000000000000001111110
0000000000100000000000000000000000000000000000000010000000000000000000
0000000000001111111111111101111100000000100000001000111111110000000010
0000000000000000000000000000000000000010000000000000000000000000000011
1111111111111101111111000001101100001111111111111000000010000000000000
0000000000000000000000000010000000000000000000000000001111001111111111
1111111111000011011110001111111111111000000010000000000000000000000000
0000000000000010000000000000000000000000111110011111111111111111111111
1111111011001000111111110000000010000000000000000000000000000000000000
0010000000001100000000001111110001111111111111111111111110001001111100
0001111110000000000010000000000000000000000000000000000000001000000001
1110000111111111001111111111111110011111111110001101111000000111111000
0000000010000000000000000000000000000000000000001000000011111110111111
1110011111111111111110111111111110000110110000000011110000000000001000
0000000000000000000000000000000000001000000001111111111111000111111111
0111101000000111111111000000000000000000000000000000001000000000000000
0000000000000000000000001000000000111111111110011111111111000011110010
1111111110011111111111000000000000000000001000000000000000000000000000
0000000000001000000001111111001100111111111001111110100111111111100110
0111111111110000001110000000001000000000000000000000000000000000000000
1000000011111110010001111111111011001110010111111111011111111111111111
0100011111000000001000000000000000000000000000000000000000100000000111
1110111111111101111011100011101011111111011111111111111111111011111000
0000001000000000000000000000000000000000000000100000000011110111111111
1101111111111000010111111111111111111000001111111111110000000000100000
0000000000000000000000000000000000100000000111110111110111100001111101
0100000111111111111111110001110111111111111000000000100000000000000000
0000000000000000000000100000001111111111010110100000111100001100111111
1111111111100001100011111111111100000000100000000000000000000000000000
0000000000100000000111111111011010011000011101011011111111101111111100
1100000011111111111000000000100000000000000000000000000000000000000010
0000000011111101111100111001011111110111111111101101111100100111000111
1111110000000000100000000000000000000000000000000000000010000000011111
1101111100000011011110000111111111011101111110000110000101111111100000
0000100000000000000000000000000000000000000010000000111111111111110001
1000011110111111111110111011111110000000000101110111110000000010000000
0000000000000000000000000000000010000000011111111111110011100011111111
1111111100100110011111000000110111101111100000000010000000000000000000
0000000000000000000010000000001111111111110000000111111111111111101101
1100011111110111111111101111000000000010000000000000000000000000000000
0000000010000000011110011111111111111111111101111111001011101101101111
0111111100011111100000000010000000000000000000000000000000000000001000
0000111100001101111111111111111101111111010111011101100111111111100111
1111110000000010000000000000000000000000000000000000001000000001110000
0011011111111110111001111110100000000001100111111110001111111110000000
0010000000000000000000000000000000000000001000000000000000000011111011
1111100111111110000110011101111111111101111111111100000000001000000000
0000000000000000000000000000001000000000000000000000001111100000111111
1110011101000000111111111101111111111110000000001000000000000000000000
0000000000000000001000000000000000000000000010110001111111110011000010
0101111111110011111111111111000000001000000000000000000000000000000000
0000001000000000000001110000000111011000111111110101111100111111111110
1111111110011110000000001000000000000000000000000000000000000000100000
0000000011111000001111011000011111101001000001111111100011111111110000
1100000000001000000000000000000000000000000000000000100000000000001111
1000011101111111111111100111111111111111111111100000000000000000000000
1000000000000000000000000000000000000000100000000001111111000100111101
1000011111101111111111111111111100000000000000000000000000100000000000
0000000000000000000000000000100000000011111111111100011001000000111111
1011111111111111100000000000000000000000000000100000000000000000000000
0000000000000000100000000011111111111100010011000011111111111111111111
1111000000000000000000000000000000100000000000000000000000000000000000
0000100000000001111111000100000000000000011111111111111111110000000000
0000000000000000000000100000000000000000000000000000000000000010000000
0000001111100000000000000000000000000000011111100000000000000000000000
0000000000100000000000000000000000000000000000000010000000000000111110
0000000000000000000000000000001110000000000000000000000000000000000010
0000000000000000000000000000000000000010000000000000011100000000000000
0000000000000000000110000000000000000000000000000000000010000000000000
0000000000000000000000000010000000000000000000000000000000000000000000
0000000000000000000000000000000000000000000010000000000000000000000000
0000000000000010000000000000000000000000000000000000000000000000000000
0000000000000000000000000000000010000000000000000000000000000000000000
0010000000000010000011100000000000000000000000000000000000000000000000
0000000000000000000010000000000000000000000000000000000000001000001111
1001000011110000000000000000000000000000000000000000000000000000000000
0000000010000000000000000000000000000000000000001000111111110100111110
0100000000000000000000000000000000000000000000000000000000000000001000
0000000000000000000000000000000000001001100000011101111111110000000000
0000000000000000000000000000000000000000000000000000001000000000000000
0000000000000000000000001001000000011000111110010000000000000000000000
0000000000000000000000000000000000000000001000000000000000000000000000
0000000000001001100000011000001111000000000000000000000000000000000000
0000000000000000000000000000001000000000000000000000000000000000000000
1000111111110000001110000000000000000000000000000000000000000000000000
0000000000000000001000000000000000000000000000000000000000100000111110
0000000100000000000000000000000000000000000000000000000000000000000000
0000001000000000000000000000000000000000000000110000000000000000000000
0000000000000000000000000000000000000000000000000000000000000001100000
0000000000000000000000000000000000011111111111111111111111111111111111
1111111111111111111111111111111111111111111111111111000000000000000000
00