P1
# Created by GIMP version 3.0.4 PNM plug-in
128 64
0000000000000000000011111111111111111111111111111111111111111111111111
1111111111111111111111111111111111111100000000000000000000000000000000
0000000110000000000000000000000000000000000000000000000000000000000000
0000000000000000000000000110000000000000000000000000000000000000010000
0000000000000000000000000000000000000000000000000000000000000000001100
0000011110000010000000000000000000000000000000000000010000000000000000
0000000000000000000000000000000000000000000000000000011110000011111110
0010000000000000000000000000000000000000010000000000000000000000000000
0000000000000000000000000000000000000001001111000110000011001000000000
0000000000000000000000000000010000000000000000000000000000000000000000
0000000000000000000000000001111111100110000001001000000000000000000000
0000000000000000010000000000000000000000000000000000000000000000000000
0000000000000001001111001110000011001000000000000000000000000000000000
0000010000000000000000000000000000000000000000000000000000000000000000
0000011110001011111110001000000000000000000000000000000000000001000000
0000000000000000000000000000000000000000000000000000000000000000110000
1001111000001000000000000000000000000000000000000001000000000000000000
0000000000000000000000000000000000000000000000000000000000010000000000
1000000000000000000000000000000000000001000000000000000000000000000000
0000000000000000000000000000000000000000011100000000000000100000000000
0000000000000000000000000001000000000000000000000000000000000000000000
0000000000000000000000000000111110000000000000100000000000000000000000
0000000000000001000000000000000000000000000000000000111000000000000000
0000000000000000111111000000000000100000000000000000000000000000000000
0001000000000000000000000000000000000001111100000000000000000000000000
0000111111100000000000100000000000000000000000000000000000000100000000
0000000000000000000000000011111100000000000000000000000000010001111111
0000000000100000000000000000000000000000000000000100000000000000000000
0000000000001111111111111111111100000000110000011111111111100000000010
0000000000000000000000000000000000000100000000000000000000000000000011
1111111111111111111111000001100100011111111111100000000010000000000000
0000000000000000000000000100000000000000000000000000001111111111111111
1111111111000001001110010001111111000000000010000000000000000000000000
0000000000000100000000000000000000000000111111111111111111111111111111
1111111011000011111110000000000010000000000000000000000000000000000000
0100000000001110000000001111111111111111111111111111111110001001111100
0011111100000000000010000000000000000000000000000000000000010000000001
1110001111111111111111111111111101111111111110001100111000001111100000
0000000010000000000000000000000000000000000000010000000011111110111111
1110011111111001110111111111111111000110010000000111000000000000001000
0000000000000000000000000000000000010000000001111111111111100011111111
0010011111111111111111000000000000000000000000000000001000000000000000
0000000000000000000000010000000000111111111100011111111111010110001111
1011111110001111111110000000000000000000001000000000000000000000000000
0000000000010000000001111111110001111111111101111111111111111111111110
0111111111110000000110000000001000000000000000000000000000000000000001
0000000011111110000111111111110011111000010111111111111111111111111111
1100001111000000001000000000000000000000000000000000000001000000000111
1100111111111101111011111011111111111111111111111100000111111001111110
0000001000000000000000000000000000000000000001000000000011110111111111
1101111111100111100011111101111011110001110011111111111100000000100000
0000000000000000000000000000000001000000000111111111110100000001111111
1011011111111101110111100001100001111111111000000000100000000000000000
0000000000000000000001000000001111111111010000000000111111110011100111
1011101111001100000001111111111100000000100000000000000000000000000000
0000000001000000000111111111010001100000111111101100011111101001111100
1000000001111111111110000000100000000000000000000000000000000000000100
0000000011111111100011100000011111111001111111010011111100000111001111
1111111100000000100000000000000000000000000000000000000100000000011111
1111100000000100011111110011111110001111001100000110001110111111100000
0000100000000000000000000000000000000000000100000000111111111111000000
1100011111101111111111001111011110000000011110111111110000000010000000
0000000000000000000000000000000100000000011111111111000110000011111111
1110111110111110111111000011111111111111111000000010000000000000000000
0000000000000000000100000000001111111111101110000111111111111111111011
1011111111011111111111110111110000000010000000000000000000000000000000
0000000100000000011111011111110000011111111111111111111000011111101111
1111111111101111100000000010000000000000000000000000000000000000010000
0000111110001111111111111111111111111111110011111101111111111111100001
1111110000000010000000000000000000000000000000000000010000000001110000
0111111111111110111001111111101110000111111111111111011111111111100000
0010000000000000000000000000000000000000010000000000000000000011111111
0111110111111111110001111111101111111110011111111111000000001000000000
0000000000000000000000000000010000000000000000000000011111110000111111
1110000111111101111111110000111111111110000000001000000000000000000000
0000000000000000010000000000000000000000000000000001111111111111111011
1111111111101111111111111111000000001000000000000000000000000000000000
0000010000000000000000000000000110110000111111111110111111111111111001
1111111110011111100000001000000000000000000000000000000000000001000000
0000000011110000011111010000111111111111111111111111100111111111110001
1111000000001000000000000000000000000000000000000001000000000000011111
1000011011111111111111111111111111111111001111111000000000111000000000
1000000000000000000000000000000000000001000000000000111111100001111100
1100111111111111111111111111111110000000000000000000000000100000000000
0000000000000000000000000001000000000001111111001000111101100001111111
1111111111111111110000000000000000000000000000100000000000000000000000
0000000000000001000000000011111111111000010001000011111111111111111111
1111000000000000000000000000000000100000000000000000000000000000000000
0001000000000011111111111000000000000000011111111111111111111000000000
0000000000000000000000100000000000000000000000000000000000000100000000
0001111111001000000000000000000000000000011111100000000000000000000000
0000000000100000000000000000000000000000000000000100000000000011111110
0000000000000000000000000000011111000000000000000000000000000000000010
0000000000000000000000000000000000000100000000000001111110000000000000
0000000000000000000110000000000000000000000000000000000010000000000000
0000000000000000000000000100000000000000111100000000000000000000000000
0000000000000000000000000000000000000000000010000000000000000000000000
0000000000000100000000000000000000000000000000000000000000000000000000
0000000000000000000000000000000010000000000000000000000000000000000000
0100000000001000000000000000000000000000000000000000000000000000000000
0000000000000000000010000000000000000000000000000000000000010000011110
0100001100000000000000000000000000000000000000000000000000000000000000
0000000010000000000000000000000000000000000000010001111111010001111000
0000000000000000000000000000000000000000000000000000000000000000001000
0000000000000000000000000000000000010011000001110011110010000000000000
0000000000000000000000000000000000000000000000000000001000000000000000
0000000000000000000000010010000001100111111110000000000000000000000000
0000000000000000000000000000000000000000001000000000000000000000000000
0000000000010011000001100011110010000000000000000000000000000000000000
0000000000000000000000000000001000000000000000000000000000000000000001
0001111111000001111000000000000000000000000000000000000000000000000000
0000000000000000001000000000000000000000000000000000000001000001111000
0000110000000000000000000000000000000000000000000000000000000000000000
0000001000000000000000000000000000000000000001100000000000000000000000
0000000000000000000000000000000000000000000000000000000000000001100000
0000000000000000000000000000000000111111111111111111111111111111111111
1111111111111111111111111111111111111111111111111111000000000000000000
00