P1
# Created by GIMP version 3.0.4 PNM plug-in
128 64
0000000000000000000011111111111111111111111111111111111111111111111111
1111111111111111111111111111111111111000000000000000000000000000000000
0000000110000000000000000000000000000000000000000000000000000000000000
0000000000000000000000001100000000000000000000000000000000000000010000
0000000000000000000000000000000000000000000000000000000000000000001100
0000111100000100000000000000000000000000000000000000010000000000000000
0000000000000000000000000000000000000000000000000000011110000111111100
0100000000000000000000000000000000000000010000000000000000000000000000
0000000000000000000000000000000000000000111111001100000110010000000000
0000000000000000000000000000010000000000000000000000000000000000000000
0000000000000000000000000001111110001100000010010000000000000000000000
0000000000000000010000000000000000000000000000000000000000000000000000
0000000000000000111111011100000110010000000000000000000000000000000000
0000010000000000000000000000000000000000000000000000000000000000000000
0000011110010111111100010000000000000000000000000000000000000001000000
0000000000000000000000000000000000000000000000000000000000000000110001
0011110000010000000000000000000000000000000000000001000000000000000000
0000000000000000000000000000000000000000000000000000000000100000000001
0000000000000000000000000000000000000001000000000000000000000000000000
0000000000000000000000000000000000000000000000000000000001000000000000
0000000000000000000000000001000000000000000000000000000000000000011000
0000000000000000000000000000001111000000000001000000000000000000000000
0000000000000001000000000000000000000000000000000000111100000000000000
0000000000000000011111100000000001000000000000000000000000000000000000
0001000000000000000000000000000000000001111100000000000000000000000000
0000111111100000000001000000000000000000000000000000000000000100000000
0000000000000000000000000011111100000000000000000000000000000111111100
0000000001000000000000000000000000000000000000000100000000000000000000
0000000000000111111101111100111000000000000000001111111000000000000100
0000000000000000000000000000000000000100000000000000000000000000000001
1111111111111001111100000001000000000111111100000000000100000000000000
0000000000000000000000000100000000000000000000000000000111111111111111
1111111110000010011100000011111110000000000100000000000000000000000000
0000000000000100000000000000000000000000011111111111111111101111111000
0110011110000001111110000000000100000000000000000000000000000000000000
0100000000000000000000000011101111111111111111111111111111111111011000
0000111100000000000100000000000000000000000000000000000000010000000000
1110000111111110001111111111101111111111111100011001111000000000000000
0000000100000000000000000000000000000000000000010000000001111000111111
1001111111111111101111111111111110001101110000000000000000000000010000
0000000000000000000000000000000000010000000000111111111110001111111111
0111111111111111111110000100000000000000000000000000010000000000000000
0000000000000000000000010000000000011111111101111111111110011111100111
1111111110000000100000000000000000000000010000000000000000000000000000
0000000000010000000000111111111011111111111010011001110001111111100010
1010111111000000000000000000010000000000000000000000000000000000000001
0000000001111111101111111111110011111111111111111111001011111111111101
0000000110000000010000000000000000000000000000000000000001000000000011
1110111111111111110111111111011100111110111111111111111111010001111100
0000010000000000000000000000000000000000000001000000000001111011111110
1100111011100100100110001111111111111010000111110011111000000001000000
0000000000000000000000000000000001000000000011111111111110110011101111
0100101101100111111111110001110111111111110000000001000000000000000000
0000000000000000000001000000000111111111010110000001101111001110000011
0111110011100001110011111111111000000001000000000000000000000000000000
0000000001000000000111111110000011100000111111001101110001111110010100
1100000011111111111100000001000000000000000000000000000000000000000100
0000000011111111000011100000111111100011000100111110001100100000001111
0111111000000001000000000000000000000000000000000000000100000000000111
1111000000000100011111100110010011111100111100000111011101111111000000
0001000000000000000000000000000000000000000100000000001111111100000000
1100011111001011110111110011011110000111011101111111100000000100000000
0000000000000000000000000000000100000000011111111110001110000011110000
1111001111100100111110000001110111111111110000000100000000000000000000
0000000000000000000100000000001111111111001110000111111001111001111101
1100001111001111111111111111100000000100000000000000000000000000000000
0000000100000000000111111111101000011111111111110000111100011010111111
1111111111101111000000000100000000000000000000000000000000000000010000
0000001111001111111111111111110111111110111101111101111111111111111110
1111000000000100000000000000000000000000000000000000010000000001111000
0111111111111111111101001101110011001000011111111111110101111110000000
0100000000000000000000000000000000000000010000000000110000000111111101
0101101111111011110111100111111111111110001111111111000000010000000000
0000000000000000000000000000010000000000000000000000011111110000111110
1111111110011111111111111110111111111110000000010000000000000000000000
0000000000000000010000000000000000000000000000000001111111111110100011
1111111111111001111111111100000000010000000000000000000000000000000000
0000010000000000011100000000000110110001111111111101011111111111110100
1111111111111110000000010000000000000000000000000000000000000001000000
0000111110000000001110011000111111111111111111111111111101111111110001
1111000000010000000000000000000000000000000000000001000000000111111100
0000011011111111111111111111111111111111111111100000000000111000000001
0000000000000000000000000000000000000001000000000111111110000001111001
1000011111111111111111111111111100000000000000000000000001000000000000
0000000000000000000000000001000000000011111111000000111011000001111111
1011111111111111100000000000000000000000000001000000000000000000000000
0000000000000001000000000001111111100000010010000010111111111111111111
1111000000000000000000000000000001000000000000000000000000000000000000
0001000000000011111111000000000000000000011111111111111111110000000000
0000000000000000000001000000000000000000000000000000000000000100000000
0111111110000000000000000000000000000000011111000000000000000000000000
0000000001000000000000000000000000000000000000000100000000011111110000
0000000000000000000000000000011110000000000000000000000000000000000100
0000000000000000000000000000000000000100000000001111100000000000000000
0000000000000000001100000000000000000000000000000000000100000000000000
0000000000000000000000000100000000000111000000000000000000000000000000
0000000000000000000000000000000000000000000100000000000000000000000000
0000000000000100000000000000000000000000000000000000000000000000000000
0000000000000000000000000000000100000000000000000000000000000000000000
0100000000001000000000000000000000000000000000000000000000000000000000
0000000000000000000100000000000000000000000000000000000000010000111110
0100111000000000000000000000000000000000000000000000000000000000000000
0000000100000000000000000000000000000000000000010001111111010111110000
0000000000000000000000000000000000000000000000000000000000000000010000
0000000000000000000000000000000000010011000001110111111000000000000000
0000000000000000000000000000000000000000000000000000010000000000000000
0000000000000000000000010010000001100011111100000000000000000000000000
0000000000000000000000000000000000000000010000000000000000000000000000
0000000000010011000001100111111000000000000000000000000000000000000000
0000000000000000000000000000010000000000000000000000000000000000000001
0001111111000111110000000000000000000000000000000000000000000000000000
0000000000000000010000000000000000000000000000000000000001000011111000
0011100000000000000000000000000000000000000000000000000000000000000000
0000010000000000000000000000000000000000000001100000000000000000000000
0000000000000000000000000000000000000000000000000000000000000011000000
0000000000000000000000000000000000111111111111111111111111111111111111
1111111111111111111111111111111111111111111111111110000000000000000000
00