P1
# Created by GIMP version 3.0.4 PNM plug-in
128 64
0000000000000000000011111111111111111111111111111111111111111111111111
1111111111111111111111111111111111111100000000000000000000000000000000
0000000110000000000000000000000000000000000000000000000000000000000000
0000000000000000000000000110000000000000000000000000000000000000010000
0000000000000000000000000000000000000000000000000000000000000000111100
0000111111000010000000000000000000000000000000000000010000000000000000
0000000000000000000000000000000000000000000000000001111110000111111110
0010000000000000000000000000000000000000010000000000000000000000000000
0000000000000000000000000000000000000011111111000110000111001000000000
0000000000000000000000000000010000000000000000000000000000000000000000
0000000000000000000000000001111110001100000011001000000000000000000000
0000000000000000010000000000000000000000000000000000000000000000000000
0000000000000000111100011110000111001000000000000000000000000000000000
0000010000000000000000000000000000000000000000000000000000000000000000
0000000000010111111110001000000000000000000000000000000000000001000000
0000000000000000000000000000000000000000000000000000000000000000000001
0011111100001000000000000000000000000000000000000001000000000000000000
0000000000000000000000000000000000000000000000000000000000100000000000
1000000000000000000000000000000000000001000000000000000000000000000000
0000000000000000000000000000000000000000000000000000000000100000000000
0000000000000000000000000001000000000000000000000000000000000001100000
0000000000000000000000000000000000000000000000100000000000000000000000
0000000000000001000000000000000000000000000000000001110000000000000000
0000000000000000000000000000000000100000000000000000000000000000000000
0001000000000000000000000000000000000111111000000000000000000000000000
0000001111000000000000100000000000000000000000000000000000000100000000
0000000000000000000000001111111111111111111000000000000000000001111110
0000000000100000000000000000000000000000000000000100000000000000000000
0000000000011111111111111111111101000001100000000111111111100000000010
0000000000000000000000000000000000000100000000000000000000000000000111
1111111111111111111110000011011100001111111111110000000010000000000000
0000000000000000000000000100000000000000000000000000111111111111111111
1111111110000010111110000111111111100000000010000000000000000000000000
0000000000000100000000000000000000000111111111111111111111111111111111
1111110110000001111110000000000010000000000000000000000000000000000000
0100000000011000001111111111111110011100111111111111111100011011111000
0000111100000000000010000000000000000000000000000000000000010000000011
1100011111111111100001101111111111111111111100001101110000000000000000
0000000010000000000000000000000000000000000000010000000111111111111111
1110001111111111111111110111111110000100000000000000000000000000001000
0000000000000000000000000000000000010000000011111111111000000111111110
1111111110111111111110000000000000000000000000000000001000000000000000
0000000000000000000000010000000001111111110011111111111011111111100110
1111111000111010111111000000000000000000001000000000000000000000000000
0000000000010000000011111110001111111111110011111000001001111111011110
1111111111110000011110000000001000000000000000000000000000000000000001
0000000111111100111111111111110111110011100101111110101111111111111111
0100111111000000001000000000000000000000000000000000000001000000001111
1101111111111011111111110111101011111111111111111000011111111111111000
0000001000000000000000000000000000000000000001000000000111110111110000
0000111111000011001011111111111111100011100111111111110000000000100000
0000000000000000000000000000000001000000001111111111100111100001111110
0100100111111111111111000011100011111111111000000000100000000000000000
0000000000000000000001000000011111111111100111000000111111011100111111
1111111110011000000011111111111100000000100000000000000000000000000000
0000000001000000001111111111100000000100111111001101111111111111110001
0000000011111111111000000000100000000000000000000000000000000000000100
0000000111111111100000001100111111001001111111101111110000001110001111
1111110000000000100000000000000000000000000000000000000100000000111111
1111100111000000111111100011111111101111111000001110011101111111100000
0000100000000000000000000000000000000000000100000001111111111110011100
0001111111101111111111011001111100000000111101111111110000000010000000
0000000000000000000000000000000100000000111111111111000000001111111111
1111111111011000111110000011110011111111100000000010000000000000000000
0000000000000000000100000000011111111111111100011111111111111111111011
0011001111111111110011111111000000000010000000000000000000000000000000
0000000100000000111110111111111111111111111011111111111010010001111111
1111001111111111100000000010000000000000000000000000000000000000010000
0001111100011111111111111111111011111111110001000111111111110011111111
1111110000000010000000000000000000000000000000000000010000000011100000
0111111111111101110111111111110000111100011111100111111111111110000000
0010000000000000000000000000000000000000010000000001100000000011111111
1111001111111111110011110001111111011111111111111100000000001000000000
0000000000000000000000000000010000000000000000000000000000000011111111
1111110111001111111100111111111111111110000000001000000000000000000000
0000000000000000010000000000000000000000000101100011111111111110010011
1111111011111111111111111111000000001000000000000000000000000000000000
0000010000000000000000000000001110110101111111111110001111111110011111
1111111100011110000000001000000000000000000000000000000000000001000000
0000000000000000111110110110111111111111111111111111111111111111100000
1100000000001000000000000000000000000000000000000001000000000000001111
0000110111111111111111111111111111111111111111000000000000000000000000
1000000000000000000000000000000000000001000000000000011111100001111011
0010111111111111111111111111111000000000000000000000000000100000000000
0000000000000000000000000001000000000001111111111000110110010001111111
1111111111111111000000000000000000000000000000100000000000000000000000
0000000000000001000000000011111111111100000110010000111111111111111111
1110000000000000000000000000000000100000000000000000000000000000000000
0001000000000001111111111000000000000000011111011100111111100000000000
0000000000000000000000100000000000000000000000000000000000000100000000
0000011111100000000000000000000000000000111111000000000000000000000000
0000000000100000000000000000000000000000000000000100000000000000111100
0000000000000000000000000000011110000000000000000000000000000000000010
0000000000000000000000000000000000000100000000000000000000000000000000
0000000000000000001100000000000000000000000000000000000010000000000000
0000000000000000000000000100000000000000000000000000000000000000000000
0000000000000000000000000000000000000000000010000000000000000000000000
0000000000000100000000000000000000000000000000000000000000000000000000
0000000000000000000000000000000010000000000000000000000000000000000000
0100000000000100000000000000000000000000000000000000000000000000000000
0000000000000000000010000000000000000000000000000000000000010000111111
0010000000000000000000000000000000000000000000000000000000000000000000
0000000010000000000000000000000000000000000000010001111111101000000000
0000000000000000000000000000000000000000000000000000000000000000001000
0000000000000000000000000000000000010011100001111000111100000000000000
0000000000000000000000000000000000000000000000000000001000000000000000
0000000000000000000000010011000000110001111110000000000000000000000000
0000000000000000000000000000000000000000001000000000000000000000000000
0000000000010011100001100011111111000000000000000000000000000000000000
0000000000000000000000000000001000000000000000000000000000000000000001
0001111111100001111110000000000000000000000000000000000000000000000000
0000000000000000001000000000000000000000000000000000000001000011111100
0000111100000000000000000000000000000000000000000000000000000000000000
0000001000000000000000000000000000000000000001100000000000000000000000
0000000000000000000000000000000000000000000000000000000000000001100000
0000000000000000000000000000000000111111111111111111111111111111111111
1111111111111111111111111111111111111111111111111111000000000000000000
00