P1
# Created by GIMP version 3.0.4 PNM plug-in
128 64
0000000000000000000001111111111111111111111111111111111111111111111111
1111111111111111111111111111111111111100000000000000000000000000000000
0000000011000000000000000000000000000000000000000000000000000000000000
0000000000000000000000000110000000000000000000000000000000000000001000
0000000000000000000000000000000000000000000000000000000000000000001111
0000000001100010000000000000000000000000000000000000001000000000000000
0000000000000000000000000000000000000000000000000000011111100110000010
0010000000000000000000000000000000000000001000000000000000000000000000
0000000000000000000000000000000000000000111111110001100010001000000000
0000000000000000000000000000001000000000000000000000000000000000000000
0000000000000000000000000000011111100000111010001000000000000000000000
0000000000000000001000000000000000000000000000000000000000000000000000
0000000000000000001111000000001110001000000000000000000000000000000000
0000001000000000000000000000000000000000000000000000000000000000000000
0000000000000000000000001000000000000000000000000000000000000000100000
0000000000000000000000000000000000000000000000000000000000000000000000
0000000000001000000000000000000000000000000000000000100000000000000000
0000000000000000000000000000000000000000000000000000000000000000000000
1000000000000000000000000000000000000000100000000000000000000000000000
0000000000000000000000000000000000000000000000000000000000100000000000
0000000000000000000000000000100000000000000000000000000000000000000000
0000000000000000000000000000000000000000000000100000000000000000000000
0000000000000000100000000000000000000000000000000000000000000000000000
0000000000000000000000000000000000100000000000000000000000000000000000
0000100000000000000000000000000000000000000000000000000000000000000000
0000000000000000000000100000000000000000000000000000000000000010000000
0000000000000000000000000000000000000000000000000000000000000000000000
0000000000100000000000000000000000000000000000000010000000000000000000
0000000000000000000000000000000000000000000000000000000000000000000010
0000000000000000000000000000000000000010000000000000001110000000000000
0000000000011100000000000000000000000011100000000000000010000000000000
0000000000000000000000000010000000000000011111000000000000000000000011
1110000000000000000000000111110000000000000010000000000000000000000000
0000000000000010000000000001111111110000000000000000001111111110000000
0000000000011111111100000000000010000000000000000000000000000000000000
0010000000000111111111111100000000000000111111111111100000000000000111
1111111111000000000010000000000000000000000000000000000000001000000000
1111111111111110000000000001111111111111110000000000001111111111111110
0000000010000000000000000000000000000000000000001000000000011111111111
1100000000000000111111111111100000000000000111111111111100000000001000
0000000000000000000000000000000000001000000000000111111111000000000000
0000001111111110000000000000000001111111110000000000001000000000000000
0000000000000000000000001000000000000001111100000000000000000000001111
1000000000000000000000011111000000000000001000000000000000000000000000
0000000000001000000000000000111000000000000000000000000111000000000000
0000000000001110000000000000001000000000000000000000000000000000000000
1000000000000000000000000000000000000000000000000000000000000000000000
0000000000000000001000000000000000000000000000000000000000100000000000
0000000000000000000000000000000000000000000000000000000000000000000000
0000001000000000000000000000000000000000000000100000000000000000000000
0000000000000000000000000000000000000000000000000000000000000000100000
0000000000000000000000000000000000100000000000000000000000000001110000
0000000000000000000000000000000000000000000000000000100000000000000000
0000000000000000000000100000000000000000000000000011111000000000000000
0000000000000000000000000000000000000000100000000000000000000000000000
0000000000100000000000000000000000001111111110000000000000000000000000
0000000000000000000000000000100000000000000000000000000000000000000010
0000000000000000000000111111111111100000000000000000000000000000000000
0000000000000000100000000000000000000000000000000000000010000000000000
0000000001111111111111110000000000000000000000000000000000000000000000
0000100000000000000000000000000000000000000010000000000000000000000011
1111111111100000000000000000000000000000000000000000000000000010000000
0000000000000000000000000000000010000000000000000000000000111111111000
0000000000000000000000000000000000000000000000000010000000000000000000
0000000000000000000010000000000000000000000000001111100000000000000000
0000000000000000000000000000000000000010000000000000000000000000000000
0000000010000000000000000000000000000111000000000000000000000000000000
0000000000000000000000000010000000000000000000000000000000000000001000
0000000000000000000000000000000000000000000000000000000000000000000000
0000000000000010000000000000000000000000000000000000001000000000000000
0000000000000000000000000000000000000000000000000000000000000000000000
0010000000000000000000000000000000000000001000000000000000000000000000
0000000000000000000000000000000000000000000000000000000000001000000000
0000000000000000000000000000001000000000000000111000000000000000000000
0001110000000000000000000000001110000000000000001000000000000000000000
0000000000000000001000000000000001111100000000000000000000001111100000
0000000000000000011111000000000000001000000000000000000000000000000000
0000001000000000000111111111000000000000000000111111111000000000000000
0001111111110000000000001000000000000000000000000000000000000000100000
0000011111111111110000000000000011111111111110000000000000011111111111
1100000000001000000000000000000000000000000000000000100000000011111111
1111111000000000000111111111111111000000000000111111111111111000000000
1000000000000000000000000000000000000000100000000001111111111111000000
0000000011111111111110000000000000011111111111110000000000100000000000
0000000000000000000000000000100000000000011111111100000000000000000011
1111111000000000000000000111111111000000000000100000000000000000000000
0000000000000000100000000000001111110000000000000000000000111110000000
0000000000000001111100000000000000100000000000000000000000000000000000
0000100000000000000011100000000000000000000000011100000000000000000000
0000111000000000000000100000000000000000000000000000000000000010000000
0000000000000000000000000000000000000000000000000000000000000000000000
0000000000100000000000000000000000000000000000000010000000000000000000
0000000000000000000000000000000000000000000000000000000000000000000010
0000000000000000000000000000000000000010000000000000000000000000000000
0000000000000000000000000000000000000000000000000000000010000000000000
0000000000000000000000000010000000000000000000000000000000000000000000
0000000000000000000000000000000000000000000010000000000000000000000000
0000000000000010000000000000000000000000000000000000000000000000000000
0000000000000000000000000000000010000000000000000000000000000000000000
0010000000000000000000000000000000000000000000000000000000000000000000
0000000000000000000010000000000000000000000000000000000000001000000000
0000000000000000000000000000000000000000000000000000000000000000000000
0000000010000000000000000000000000000000000000001000000000000000000000
0000000000000000000000000000000000000000000000000000000000000000001000
0000000000000000000000000000000000001001110000000011110000000000000000
0000000000000000000000000000000000000000000000000000001000000000000000
0000000000000000000000001001011000000111111000000000000000000000000000
0000000000000000000000000000000000000000001000000000000000000000000000
0000000000001001001100001111111100000000000000000000000000000000000000
0000000000000000000000000000001000000000000000000000000000000000000000
1001000011000111111000000000000000000000000000000000000000000000000000
0000000000000000001000000000000000000000000000000000000000100110000000
0011110000000000000000000000000000000000000000000000000000000000000000
0000001000000000000000000000000000000000000000110000000000000000000000
0000000000000000000000000000000000000000000000000000000000000001100000
0000000000000000000000000000000000011111111111111111111111111111111111
1111111111111111111111111111111111111111111111111111000000000000000000
00