P1
# Created by GIMP version 3.0.4 PNM plug-in
128 64
0000000000000000000001111111111111111111111111111111111111111111111111
1111111111111111111111111111111111111000000000000000000000000000000000
0000000011000000000000000000000000000000000000000000000000000000000000
0000000000000000000000001100000000000000000000000000000000000000001000
0000000000000000000000000000000000000000000000000000000000000000000011
1000000001100100000000000000000000000000000000000000001000000000000000
0000000000000000000000000000000000000000000000000000000111110000000010
0100000000000000000000000000000000000000001000000000000000000000000000
0000000000000000000000000000000000000000001111110111000010010000000000
0000000000000000000000000000001000000000000000000000000000000000000000
0000000000000000000000000000011111100001110010010000000000000000000000
0000000000000000001000000000000000000000000000000000000000000000000000
0000000000000000001111110000011010010000000000000000000000000000000000
0000001000000000000000000000000000000000000000000000000000000000000000
0000000111110000001110010000000000000000000000000000000000000000100000
0000000000000000000000000000000000000000000000000000000000000000001110
0000000000010000000000000000000000000000000000000000100000000000000000
0000000000000000000000000000000000000000000000000000000000000000000001
0000000000000000000000000000000000000000100000000000000000000000000000
0000000000000000000000000000000000000000000000000000000001000000000000
0000000000000000000000000000100000000000000000000000000000000000000000
0000000000000000000000000000000000000000000001000000000000000000000000
0000000000000000100000000000000000000000000000000000000000000000000000
0000000000000000000000000000000001000000000000000000000000000000000000
0000100000000000000000000000000000000000000000000000000000000000000000
0000000000000000000001000000000000000000000000000000000000000010000000
0000000111100000000000000000000000001111100000000000000000000111110000
0000000001000000000000000000000000000000000000000010000000000000111111
0000000000000000000000011111110000000000000000001111111000000000000100
0000000000000000000000000000000000000010000000000001111111100000000000
0000000000111111110000000000000000011111111100000000000100000000000000
0000000000000000000000000010000000000001111111110000000000000000000111
1111110000000000000000111111111100000000000100000000000000000000000000
0000000000000010000000000001111111111000000000000000001111111111000000
0000000001111111111100000000000100000000000000000000000000000000000000
0010000000000000111111111100000000000000011111111110000000000000001111
1111111000000000000100000000000000000000000000000000000000001000000000
0000011111111110000000000000111111111100000000000000011111111111000000
0000000100000000000000000000000000000000000000001000000000000011111111
1100000000000000011111111110000000000000001111111111100000000000010000
0000000000000000000000000000000000001000000000000111111111100000000000
0000001111111111000000000000000111111111110000000000010000000000000000
0000000000000000000000001000000000000111111111000000000000000000011111
1111000000000000000011111111110000000000010000000000000000000000000000
0000000000001000000000000111111110000000000000000000001111111100000000
0000000001111111110000000000010000000000000000000000000000000000000000
1000000000000011111100000000000000000000000111111100000001111000000011
1111100000000000010000000000000000000000000000000000000000100000000000
0001111000000000000000000000000011111000000011111100000001111100000000
0000010000000000000000000000000000000000000000100000000000000000000000
0000000000000000000000000000000111111110000000000000000000000001000000
0000000000000000000000000000000000100000000000000000000000000000000000
0000000000000000001111111110000000000000000000000001000000000000000000
0000000000000000000000100000000000000000000000000000000000000000000000
0000011111111110000000000000000000000001000000000000000000000000000000
0000000000100000000000000000000000000000000000000000000000000011111111
1100000000000000000000000001000000000000000000000000000000000000000010
0000000000000000000000000000000000000000000000000111111111100000000000
0000000000000001000000000000000000000000000000000000000010000000000000
0000000000000000000000000000000000000111111111100000000000000000000000
0001000000000000000000000000000000000000000010000000000000000000000000
0000000000000000000000000011111111110000000000000000000000000100000000
0000000000000000000000000000000010000000000000000000000000000000000000
0000000000000001111111111000000000000000000000000100000000000000000000
0000000000000000000010000000000000000000000000000000000000000000000000
0000111111111000000000000000000000000100000000000000000000000000000000
0000000010000000000000000000000000000000000000000000000000000001111111
1000000000000000000000000100000000000000000000000000000000000000001000
0000000000111110000000000000000000000000011110000000111111000000001111
0000000000000100000000000000000000000000000000000000001000000000000111
1111000000000000000000000001111111000000011110000000011111100000000000
0100000000000000000000000000000000000000001000000000000111111110000000
0000000000000011111111000000000000000000111111110000000000010000000000
0000000000000000000000000000001000000000000111111111000000000000000000
0111111111000000000000000001111111110000000000010000000000000000000000
0000000000000000001000000000000111111111100000000000000000111111111100
0000000000000011111111110000000000010000000000000000000000000000000000
0000001000000000000011111111110000000000000001111111111000000000000000
0111111111100000000000010000000000000000000000000000000000000000100000
0000000001111111111000000000000011111111110000000000000000111111111100
0000000000010000000000000000000000000000000000000000100000000000001111
1111110000000000000001111111111000000000000000011111111110000000000001
0000000000000000000000000000000000000000100000000000011111111110000000
0000000000111111111100000000000000001111111111000000000001000000000000
0000000000000000000000000000100000000000011111111100000000000000000001
1111111100000000000000000111111111000000000001000000000000000000000000
0000000000000000100000000000011111111000000000000000000000111111110000
0000000000000011111111000000000001000000000000000000000000000000000000
0000100000000000011111110000000000000000000000011111110000000000000000
0001111110000000000001000000000000000000000000000000000000000010000000
0000001111100000000000000000000000000111100000000000000000000011110000
0000000001000000000000000000000000000000000000000010000000000000000000
0000000000000000000000000000000000000000000000000000000000000000000100
0000000000000000000000000000000000000010000000000000000000000000000000
0000000000000000000000000000000000000000000000000000000100000000000000
0000000000000000000000000010000000000000000000000000000000000000000000
0000000000000000000000000000000000000000000100000000000000000000000000
0000000000000010000000000000000000000000000000000000000000000000000000
0000000000000000000000000000000100000000000000000000000000000000000000
0010000000000000000000000000000000000000000000000000000000000000000000
0000000000000000000100000000000000000000000000000000000000001000000000
0000111000000000000000000000000000000000000000000000000000000000000000
0000000100000000000000000000000000000000000000001000111000000111110000
0000000000000000000000000000000000000000000000000000000000000000010000
0000000000000000000000000000000000001000101100000111111000000000000000
0000000000000000000000000000000000000000000000000000010000000000000000
0000000000000000000000001000100111000011111100000000000000000000000000
0000000000000000000000000000000000000000010000000000000000000000000000
0000000000001000100001110111111000000000000000000000000000000000000000
0000000000000000000000000000010000000000000000000000000000000000000000
1000110000000111110000000000000000000000000000000000000000000000000000
0000000000000000010000000000000000000000000000000000000000100000000000
0011100000000000000000000000000000000000000000000000000000000000000000
0000010000000000000000000000000000000000000000110000000000000000000000
0000000000000000000000000000000000000000000000000000000000000011000000
0000000000000000000000000000000000011111111111111111111111111111111111
1111111111111111111111111111111111111111111111111110000000000000000000
00