P1
# Created by GIMP version 3.0.4 PNM plug-in
128 64
0000000000000000000011111111111111111111111111111111111111111111111111
1111111111111111111111111111111111111100000000000000000000000000000000
0000000110000000000000000000000000000000000000000000000000000000000000
0000000000000000000000000110000000000000000000000000000000000000010000
0000000000000000000000000000000000000000000000000000000000000000000111
0000111110000010000000000000000000000000000000000000010000000000000000
0000000000000000000000000000000000000000000000000000001111100110011100
0010000000000000000000000000000000000000010000000000000000000000000000
0000000000000000000000000000000000000000011111110100010010001000000000
0000000000000000000000000000010000000000000000000000000000000000000000
0000000000000000000000000000011111110110010010001000000000000000000000
0000000000000000010000000000000000000000000000000000000000000000000000
0000000000000000001111100011110100001000000000000000000000000000000000
0000010000000000000000000000000000000000000000000000000000000000000000
0000000111000000000000001000000000000000000000000000000000000001000000
0000000000000000000000000000000000000000000000000000000000000000000000
0000000000001000000000000000000000000000000000000001000000000000000000
0000000000000000000000000000000000000000000000000000000000000000000000
1000000000000000000000000000000000000001000000000000000000000000000000
0000000000000000000000000000000000000000000000000000000000100000000000
0000000000000000000000000001000000000000000000000000000000000000000000
0000000000000000000000000000000000000000000000100000000000000000000000
0000000000000001000000000000000000000000000000000000000000000000000000
0000000000000000000000000000000000100000000000000000000000000000000000
0001000000000000000000000000000000000000000000000000000000000000000000
0000000000000000000000100000000000000000000000000000000000000100000000
0000000000000000000000000000000000000000000000000000000000000000000000
0000000000100000000000000000000000000000000000000100000000000000001100
0000000000000000000000011000000000000000000000000011000000000000000010
0000000000000000000000000000000000000100000000000000011110000000000000
0000000000111100000000000000000000000111100000000000000010000000000000
0000000000000000000000000100000000000000111111000000000000000000000111
1110000000000000000000001111110000000000000010000000000000000000000000
0000000000000100000000000011111111110000000000000000011111111110000000
0000000000111111111100000000000010000000000000000000000000000000000000
0100000000001111111111111100000000000001111111111111100000000000001111
1111111111000000000010000000000000000000000000000000000000010000000000
1111111111111100000000000001111111111111100000000000001111111111111100
0000000010000000000000000000000000000000000000010000000000001111111111
0000000000000000011111111110000000000000000011111111110000000000001000
0000000000000000000000000000000000010000000000000011111100000000000000
0000000111111000000000000000000000111111000000000000001000000000000000
0000000000000000000000010000000000000001111000000000000000000000001111
0000000000000000000000011110000000000000001000000000000000000000000000
0000000000010000000000000000110000000000000000000000000110000000000000
0000000000001100000000000000001000000000000000000000000000000000000001
0000000000000000000000000000000000000000000000000000000000000000000000
0000000000000000001000000000000000000000000000000000000001000000000000
0000000000000000000000000000000000000000000000000000000000000000000000
0000001000000000000000000000000000000000000001000000000000000000000000
0000000000000000000000000000000000000000000000000000000000000000100000
0000000000000000000000000000000001000000000000000000000000000000000000
0000000000000000000000000000000000000000000000000000100000000000000000
0000000000000000000001000000000000000000000000000000000000000000000000
0000000000000000000000000000000000000000100000000000000000000000000000
0000000001000000000000000000000000000000000000000000000000000000000000
0000000000000000000000000000100000000000000000000000000000000000000100
0000000000000000000000000000000000000000000000000000000000000000000000
0000000000000000100000000000000000000000000000000000000100000000000000
0000000000000000000000000000000000000000000000000000000000000000000000
0000100000000000000000000000000000000000000100000000000000000000000000
0000000000000000000000000000000000000000000000000000000000000010000000
0000000000000000000000000000000100000000000000000000000000000000000000
0000000000000000000000000000000000000000000000000010000000000000000000
0000000000000000000100000000000000000000000000000000000000000000000000
0000000000000000000000000000000000000010000000000000000000000000000000
0000000100000000000000000000000000000000000000000000000000000000000000
0000000000000000000000000010000000000000000000000000000000000000010000
0000000000000000000000000000000000000000000000000000000000000000000000
0000000000000010000000000000000000000000000000000000010000000000000000
0000000000000000000000000000000000000000000000000000000000000000000000
0010000000000000000000000000000000000000010000000000000000110000000000
0000000000000001100000000000000000000000001100000000000000001000000000
0000000000000000000000000000010000000000000001111000000000000000000000
0011110000000000000000000000011110000000000000001000000000000000000000
0000000000000000010000000000000011111100000000000000000000011111100000
0000000000000000111111000000000000001000000000000000000000000000000000
0000010000000000001111111111000000000000000001111111111000000000000000
0011111111110000000000001000000000000000000000000000000000000001000000
0000111111111111110000000000000111111111111110000000000000111111111111
1100000000001000000000000000000000000000000000000001000000000011111111
1111110000000000000111111111111110000000000000111111111111110000000000
1000000000000000000000000000000000000001000000000000011111111100000000
0000000001111111111000000000000000001111111111000000000000100000000000
0000000000000000000000000001000000000000001111110000000000000000000001
1111100000000000000000000011111100000000000000100000000000000000000000
0000000000000001000000000000000111100000000000000000000000111100000000
0000000000000001111000000000000000100000000000000000000000000000000000
0001000000000000000011000000000000000000000000011000000000000000000000
0000110000000000000000100000000000000000000000000000000000000100000000
0000000000000000000000000000000000000000000000000000000000000000000000
0000000000100000000000000000000000000000000000000100000000000000000000
0000000000000000000000000000000000000000000000000000000000000000000010
0000000000000000000000000000000000000100000000000000000000000000000000
0000000000000000000000000000000000000000000000000000000010000000000000
0000000000000000000000000100000000000000000000000000000000000000000000
0000000000000000000000000000000000000000000010000000000000000000000000
0000000000000100000000000000000000000000000000000000000000000000000000
0000000000000000000000000000000010000000000000000000000000000000000000
0100000000000000000000000000000000000000000000000000000000000000000000
0000000000000000000010000000000000000000000000000000000000010000000000
0000000000000000000000000000000000000000000000000000000000000000000000
0000000010000000000000000000000000000000000000010000100111000001110000
0000000000000000000000000000000000000000000000000000000000000000001000
0000000000000000000000000000000000010001001101100011111000000000000000
0000000000000000000000000000000000000000000000000000001000000000000000
0000000000000000000000010001001000100111111100000000000000000000000000
0000000000000000000000000000000000000000001000000000000000000000000000
0000000000010000111001100111111100000000000000000000000000000000000000
0000000000000000000000000000001000000000000000000000000000000000000001
0000011111000011111000000000000000000000000000000000000000000000000000
0000000000000000001000000000000000000000000000000000000001000000000000
0001110000000000000000000000000000000000000000000000000000000000000000
0000001000000000000000000000000000000000000001100000000000000000000000
0000000000000000000000000000000000000000000000000000000000000001100000
0000000000000000000000000000000000111111111111111111111111111111111111
1111111111111111111111111111111111111111111111111111000000000000000000
00