P1
# Created by GIMP version 3.0.4 PNM plug-in
128 64
0000000000000000000011111111111111111111111111111111111111111111111111
1111111111111111111111111111111111111100000000000000000000000000000000
0000000110000000000000000000000000000000000000000000000000000000000000
0000000000000000000000000110000000000000000000000000000000000000010000
0000000000000000000000000000000000000000000000000000000000000000000011
1000000000000010000000000000000000000000000000000000010000000000000000
0000000000000000000000000000000000000000000000000000000111110011111000
0010000000000000000000000000000000000000010000000000000000000000000000
0000000000000000000000000000000000000000001111110110111100001000000000
0000000000000000000000000000010000000000000000000000000000000000000000
0000000000000000000000000000011111100100010110001000000000000000000000
0000000000000000010000000000000000000000000000000000000000000000000000
0000000000000000001111110100010010001000000000000000000000000000000000
0000010000000000000000000000000000000000000000000000000000000000000000
0000000111110111110010001000000000000000000000000000000000000001000000
0000000000000000000000000000000000000000000000000000000000000000001110
0011100000001000000000000000000000000000000000000001000000000000000000
0000000000000000000000000000000000000000000000000000000000000000000000
1000000000000000000000000000000000000001000000000000000000000000000000
0000000000000000000000000000000000000000000000000000000000100000000000
0000000000000000000000000001000000000000000000000000000000000000000000
0000000000000000000000000000000000000000000000100000000000000000000000
0000000000000001000000000000000000000000000000000000000000000000000000
0000000000000000000000000000000000100000000000000000000000000000000000
0001000000000000000000000000000000000000000000000000000000000000000000
0000000000000000000000100000000000000000000000000000000000000100000000
0000001111000000000000000000000111110000000000000000000000000111110000
0000000000100000000000000000000000000000000000000100000000000001111110
0000000000000000001111111000000000000000000000001111111000000000000010
0000000000000000000000000000000000000100000000000011111111000000000000
0000001111111100000000000000000000011111111100000000000010000000000000
0000000000000000000000000100000000000011111111100000000000000000111111
1110000000000000000000111111111100000000000010000000000000000000000000
0000000000000100000000000011111111110000000000000000111111111100000000
0000000001111111111100000000000010000000000000000000000000000000000000
0100000000000001111111111000000000000000011111111110000000000000001111
1111111000000000000010000000000000000000000000000000000000010000000000
0000111111111100000000000000001111111111000000000000011111111111000000
0000000010000000000000000000000000000000000000010000000000000111111111
1000000000000000011111111110000000000000001111111111100000000000001000
0000000000000000000000000000000000010000000000001111111111000000000000
0000111111111100000000000000000111111111110000000000001000000000000000
0000000000000000000000010000000000001111111110000000000000000011111111
1000000000000000000011111111110000000000001000000000000000000000000000
0000000000010000000000001111111100000000000000000011111111000000000000
0000000001111111110000000000001000000000000000000000000000000000000001
0000000000000111111000000000000000000011111110000000000000000000000011
1111100000000000001000000000000000000000000000000000000001000000000000
0011110000000000000000000001111100000000000000000000000001111100000000
0000001000000000000000000000000000000000000001000000000000000000000000
0000000000000000000000000000000000000000000000000000000000000000100000
0000000000000000000000000000000001000000000000000000000000000000000000
0000000000000000000000000000000000000000000000000000100000000000000000
0000000000000000000001000000000000000000000000000000000000000000000000
0000000000000000000000000000000000000000100000000000000000000000000000
0000000001000000000000000000000000000000000000000000000000000000000000
0000000000000000000000000000100000000000000000000000000000000000000100
0000000000000000000000000000000000000000000000000000000000000000000000
0000000000000000100000000000000000000000000000000000000100000000000000
0000000000000000000000000000000000000000000000000000000000000000000000
0000100000000000000000000000000000000000000100000000000000000000000000
0000000000000000000000000000000000000000000000000000000000000010000000
0000000000000000000000000000000100000000000000000000000000000000000000
0000000000000000000000000000000000000000000000000010000000000000000000
0000000000000000000100000000000000000000000000000000000000000000000000
0000000000000000000000000000000000000010000000000000000000000000000000
0000000100000000000000000000000000000000000000000000000000000000000000
0000000000000000000000000010000000000000000000000000000000000000010000
0000000000000000000000000000000000000000000000000000000000000000000000
0000000000000010000000000000000000000000000000000000010000000000000011
1000000000000000000000001111000000000000000000000000011111000000000000
0010000000000000000000000000000000000000010000000000000111111000000000
0000000000011111100000000000000000000000111111100000000000001000000000
0000000000000000000000000000010000000000001111111100000000000000000011
1111110000000000000000000001111111110000000000001000000000000000000000
0000000000000000010000000000001111111110000000000000000011111111100000
0000000000000011111111110000000000001000000000000000000000000000000000
0000010000000000001111111111000000000000000011111111110000000000000000
0111111111110000000000001000000000000000000000000000000000000001000000
0000000111111111100000000000000001111111111000000000000000111111111110
0000000000001000000000000000000000000000000000000001000000000000001111
1111110000000000000000111111111100000000000001111111111100000000000000
1000000000000000000000000000000000000001000000000000011111111110000000
0000000001111111111000000000000000111111111110000000000000100000000000
0000000000000000000000000001000000000000111111111100000000000000001111
1111110000000000000000011111111111000000000000100000000000000000000000
0000000000000001000000000000111111111000000000000000001111111110000000
0000000000001111111111000000000000100000000000000000000000000000000000
0001000000000000111111110000000000000000001111111100000000000000000000
0111111111000000000000100000000000000000000000000000000000000100000000
0000011111100000000000000000000111111000000000000000000000001111111000
0000000000100000000000000000000000000000000000000100000000000000111000
0000000000000000000011110000000000000000000000000111110000000000000010
0000000000000000000000000000000000000100000000000000000000000000000000
0000000000000000000000000000000000000000000000000000000010000000000000
0000000000000000000000000100000000000000000000000000000000000000000000
0000000000000000000000000000000000000000000010000000000000000000000000
0000000000000100000000000000000000000000000000000000000000000000000000
0000000000000000000000000000000010000000000000000000000000000000000000
0100000000000000000000000000000000000000000000000000000000000000000000
0000000000000000000010000000000000000000000000000000000000010000000000
0001110000000000000000000000000000000000000000000000000000000000000000
0000000010000000000000000000000000000000000000010000000111001111100000
0000000000000000000000000000000000000000000000000000000000000000001000
0000000000000000000000000000000000010001001111101111110000000000000000
0000000000000000000000000000000000000000000000000000001000000000000000
0000000000000000000000010001001000100111111000000000000000000000000000
0000000000000000000000000000000000000000001000000000000000000000000000
0000000000010001101000101111110000000000000000000000000000000000000000
0000000000000000000000000000001000000000000000000000000000000000000001
0000111101101111100000000000000000000000000000000000000000000000000000
0000000000000000001000000000000000000000000000000000000001000001111100
0111000000000000000000000000000000000000000000000000000000000000000000
0000001000000000000000000000000000000000000001100000000000000000000000
0000000000000000000000000000000000000000000000000000000000000001100000
0000000000000000000000000000000000111111111111111111111111111111111111
1111111111111111111111111111111111111111111111111111000000000000000000
00