P1
# Created by GIMP version 3.0.4 PNM plug-in
128 64
0000000000000000000001111111111111111111111111111111111111111111111111
1111111111111111111111111111111111111100000000000000000000000000000000
0000000011000000000000000000000000000000000000000000000000000000000000
0000000000000000000000000110000000000000000000000000000000000000001000
0000000000000000000000000000000000000000000000000000000000000000000000
0001000001000010000000000000000000000000000000000000001000000000000000
0000000000000000000000000000000000000000000000000000000011100100000110
0010000000000000000000000000000000000000001000000000000000000000000000
0000000000000000000000000000000000000000000111110111111110001000000000
0000000000000000000000000000001000000000000000000000000000000000000000
0000000000000000000000000000001111100100000000001000000000000000000000
0000000000000000001000000000000000000000000000000000000000000000000000
0000000000000000001111100011111100001000000000000000000000000000000000
0000001000000000000000000000000000000000000000000000000000000000000000
0000000111110110000110001000000000000000000000000000000000000000100000
0000000000000000000000000000000000000000000000000000000000000000001110
0100000010001000000000000000000000000000000000000000100000000000000000
0000000000000000000000000000000000000000000000000000000000011000011000
1000000000000000000000000000000000000000100000000000000000000000000000
0000000000000000000000000000000000000000000000001111110000100000000000
0000000000000000000000000000100000000000000000000000000000000000000000
0000000000000000000000000000000000000000000000100000000000000000000000
0000000000000000100000000000000000000000000000000000000000000000000000
0000000000000000000000000000000000100000000000000000000000000000000000
0000100000000000001111100000000000001111000000000000011110000000000000
0000111100000000000000100000000000000000000000000000000000000010000000
0000011111110000000000011111100000000000111111000000000000000111111000
0000000000100000000000000000000000000000000000000010000000000001111111
1000000000111111110000000001111111100000000000001111111100000000000010
0000000000000000000000000000000000000010000000000001111111110000000011
1111111000000001111111110000000000011111111100000000000010000000000000
0000000000000000000000000010000000000001111111111000000011111111110000
0001111111111000000000111111111100000000000010000000000000000000000000
0000000000000010000000000000111111111100000001111111111000000011111111
1100000001111111111000000000000010000000000000000000000000000000000000
0010000000000000011111111110000000111111111100000001111111111000001111
1111110000000000000010000000000000000000000000000000000000001000000000
0000111111111100000001111111111000000011111111110000000111111111100000
0000000010000000000000000000000000000000000000001000000000000111111111
1000000011111111110000000111111111100000000011111111110000000000001000
0000000000000000000000000000000000001000000000000111111111000000001111
1111100000000111111111000000000001111111110000000000001000000000000000
0000000000000000000000001000000000000111111110000000001111111100000000
0111111110000000000000111111110000000000001000000000000000000000000000
0000000000001000000000000111111100000000000111111000000000001111110000
0000000000011111100000000000001000000000000000000000000000000000000000
1000000000000011111000011110000011110000000000000111100000000011110000
1111000000000000001000000000000000000000000000000000000000100000000000
0000000000111111000000000000000000000000000000000111111000000000000000
0000001000000000000000000000000000000000000000100000000000000000000111
1111100000000000000000000000000000001111111100000000000000000000100000
0000000000000000000000000000000000100000000000000000000111111111000000
0000000000000000000000011111111100000000000000000000100000000000000000
0000000000000000000000100000000000000000000111111111100000000000000000
0000000000111111111100000000000000000000100000000000000000000000000000
0000000000100000000000000000000011111111110000000000000000000000000111
1111111000000000000000000000100000000000000000000000000000000000000010
0000000000000000000001111111111000000000000000000000001111111111000000
0000000000000000100000000000000000000000000000000000000010000000000000
0000000011111111110000000000000000000000000111111111100000000000000000
0000100000000000000000000000000000000000000010000000000000000000011111
1111100000000000000000000000000011111111110000000000000000000010000000
0000000000000000000000000000000010000000000000000000011111111100000000
0000000000000000000001111111110000000000000000000010000000000000000000
0000000000000000000010000000000000000000011111111000000000000000000000
0000000000111111110000000000000000000010000000000000000000000000000000
0000000010000000000000000000001111110000000000000000000000000000000001
1111100000000000000000000010000000000000000000000000000000000000001000
0000000000111110000111100001111100000000000011111000000000111100001111
0000000000000010000000000000000000000000000000000000001000000000000111
1111000000000011111110000000000111111100000000000000011111100000000000
0010000000000000000000000000000000000000001000000000000111111110000000
0011111111000000000111111110000000000000111111110000000000001000000000
0000000000000000000000000000001000000000000111111111000000001111111110
0000000111111111000000000001111111110000000000001000000000000000000000
0000000000000000001000000000000111111111100000001111111111000000011111
1111100000000011111111110000000000001000000000000000000000000000000000
0000001000000000000011111111110000000111111111100000001111111111000000
0111111111100000000000001000000000000000000000000000000000000000100000
0000000001111111111000000011111111110000000111111111100000111111111100
0000000000001000000000000000000000000000000000000000100000000000001111
1111110000000111111111100000001111111111000000011111111110000000000000
1000000000000000000000000000000000000000100000000000011111111110000000
1111111111000000011111111110000000001111111111000000000000100000000000
0000000000000000000000000000100000000000011111111100000000111111111000
0000011111111100000000000111111111000000000000100000000000000000000000
0000000000000000100000000000011111111000000000111111110000000001111111
1000000000000011111111000000000000100000000000000000000000000000000000
0000100000000000011111110000000000111111100000000001111111000000000000
0001111110000000000000100000000000000000000000000000000000000010000000
0000001111100000000000011111000000000000111110000000000000000011110000
0000000000100000000000000000000000000000000000000010000000000000000000
0000000000000000000000000000000000000000000000000000000000000000000010
0000000000000000000000000000000000000010000000000000000000000000000000
0000000000000000000000000000000000000000000000000000000010000000000000
0000000000000000000000000010000000000000000000000000000000000000000000
0000000000000000000000000000000000000000000010000000000000000000000000
0000000000000010000111111000000000000000000000000000000000000000000000
0000000000000000000000000000000010000000000000000000000000000000000000
0010001100001100110000000000000000000000000000000000000000000000000000
0000000000000000000010000000000000000000000000000000000000001000100000
0101111000000000000000000000000000000000000000000000000000000000000000
0000000010000000000000000000000000000000000000001000110000110111110000
0000000000000000000000000000000000000000000000000000000000000000001000
0000000000000000000000000000000000001000011111100011111000000000000000
0000000000000000000000000000000000000000000000000000001000000000000000
0000000000000000000000001000000000010111110000000000000000000000000000
0000000000000000000000000000000000000000001000000000000000000000000000
0000000000001000111111110111100000000000000000000000000000000000000000
0000000000000000000000000000001000000000000000000000000000000000000000
1000110000010011000000000000000000000000000000000000000000000000000000
0000000000000000001000000000000000000000000000000000000000100001000000
0000000000000000000000000000000000000000000000000000000000000000000000
0000001000000000000000000000000000000000000000110000000000000000000000
0000000000000000000000000000000000000000000000000000000000000001100000
0000000000000000000000000000000000011111111111111111111111111111111111
1111111111111111111111111111111111111111111111111111000000000000000000
00