P1
# Created by GIMP version 3.0.4 PNM plug-in
128 64
0000000000000000000011111111111111111111111111111111111111111111111111
1111111111111111111111111111111111111100000000000000000000000000000000
0000000110000000000000000000000000000000000000000000000000000000000000
0000000000000000000000000110000000000000000000000000000000000000010000
0000000000000000000000000000000000000000000000000000000000000000000010
0000100000100010000000000000000000000000000000000000010000000000000000
0000000000000000000000000000000000000000000000000000000111000011111111
0010000000000000000000000000000000000000010000000000000000000000000000
0000000000000000000000000000000000000000001111000011111111001000000000
0000000000000000000000000000010000000000000000000000000000000000000000
0000000000000000000000000000100111110010000000001000000000000000000000
0000000000000000010000000000000000000000000000000000000000000000000000
0000000000000000111111111001111110001000000000000000000000000000000000
0000010000000000000000000000000000000000000000000000000000000000000000
0000100111110011000011001000000000000000000000000000000000000001000000
0000000000000000000000000000000000000000000000000000000000000000111100
0010000001001000000000000000000000000000000000000001000000000000000000
0000000000000000000000000000000000000000000000000000011100001100001100
1000000000000000000000000000000000000001000000000000000000000000000000
0000000000000000000000000000000000000000001000000111111000100000000000
0000000000000000000000000001000000000000000000000000000000000000000000
0000000000000000000000000000000000000000000000100000000000000000000000
0000000000000001000000000000000000000000000000000000000000000000000000
0000000000000000000000000000000000100000000000000000000000000000000000
0001000000000000000000000000000000000000000000000000000000000000000000
0000000000000000000000100000000000000000000000000000000000000100000000
0000000011100000000000000011100000000000000111000000000000000111000000
0000000000100000000000000000000000000000000000000100000000000000011111
0000000000000111110000000000001111100000000000001111100000000000000010
0000000000000000000000000000000000000100000000000000011111000000000000
0111110000000000001111100000000000001111100000000000000010000000000000
0000000000000000000000000100000000000111111111000000000111111111000000
0000001111111110000000001111111110000000000010000000000000000000000000
0000000000000100000000001111111110011000001111111110011000000110011111
1111000001100111111111000000000010000000000000000000000000000000000000
0100000000001111111111111000001111111111111000000111111111111100000111
1111111111000000000010000000000000000000000000000000000000010000000000
1111111111111000001111111111111000000111111111111100000111111111111100
0000000010000000000000000000000000000000000000010000000000111111111001
1000001111111110011000000110011111111100000110011111111100000000001000
0000000000000000000000000000000000010000000000011111111100000000011111
1111000000000000111111111000000000111111111000000000001000000000000000
0000000000000000000000010000000000000001111100000000000001111100000000
0000111110000000000000111110000000000000001000000000000000000000000000
0000000000010000000000000001111100000000000001111100000000000011111000
0000000000111110000000000000001000000000000000000000000000000000000001
0000000000000000111000000000000000111000000000000001110000000000000001
1100000000000000001000000000000000000000000000000000000001000000000000
0000000000000111000000000000000000000000000000000111000000000000000000
0000001000000000000000000000000000000000000001000000000000000000000000
1111100000000000000000000000000000001111100000000000000000000000100000
0000000000000000000000000000000001000000000000000000000000111110000000
0000000000000000000000001111100000000000000000000000100000000000000000
0000000000000000000001000000000000000000001111111110000000000000000000
0000000000001111111110000000000000000000100000000000000000000000000000
0000000001000000000000000000011111111100110000000000000000000000000110
0111111111000000000000000000100000000000000000000000000000000000000100
0000000000000000011111111111110000000000000000000000000111111111111100
0000000000000000100000000000000000000000000000000000000100000000000000
0000011111111111110000000000000000000000000111111111111100000000000000
0000100000000000000000000000000000000000000100000000000000000001111111
1100110000000000000000000000000110011111111100000000000000000010000000
0000000000000000000000000000000100000000000000000000111111111000000000
0000000000000000000000111111111000000000000000000010000000000000000000
0000000000000000000100000000000000000000000011111000000000000000000000
0000000000111110000000000000000000000010000000000000000000000000000000
0000000100000000000000000000000011111000000000000000000000000000000011
1110000000000000000000000010000000000000000000000000000000000000010000
0000000000000000000001110000000000000000000000000000000001110000000000
0000000000000010000000000000000000000000000000000000010000000000000000
1110000000000000001110000000000000011100000000000000011100000000000000
0010000000000000000000000000000000000000010000000000000001111100000000
0000011111000000000000111110000000000000111110000000000000001000000000
0000000000000000000000000000010000000000000001111100000000000001111100
0000000000111110000000000000111110000000000000001000000000000000000000
0000000000000000010000000000011111111100000000011111111100000000000011
1111111000000000111111111000000000001000000000000000000000000000000000
0000010000000000111111111001100000111111111001100000011001111111110000
0110011111111100000000001000000000000000000000000000000000000001000000
0000111111111111100000111111111111100000011111111111110000011111111111
1100000000001000000000000000000000000000000000000001000000000011111111
1111100000111111111111100000011111111111110000011111111111110000000000
1000000000000000000000000000000000000001000000000011111111100110000011
1111111001100000011001111111110000011001111111110000000000100000000000
0000000000000000000000000001000000000001111111110000000001111111110000
0000000011111111100000000011111111100000000000100000000000000000000000
0000000000000001000000000000000111110000000000000111110000000000001111
1000000000000011111000000000000000100000000000000000000000000000000000
0001000000000000000111110000000000000111110000000000001111100000000000
0011111000000000000000100000000000000000000000000000000000000100000000
0000000011100000000000000011100000000000000111000000000000000111000000
0000000000100000000000000000000000000000000000000100000000000000000000
0000000000000000000000000000000000000000000000000000000000000000000010
0000000000000000000000000000000000000100000000000000000000000000000000
0000000000000000000000000000000000000000000000000000000010000000000000
0000000000000000000000000100000000000000000000000000000000000000000000
0000000000000000000000000000000000000000000010000000000000000000000000
0000000000000100001111110000001000000000000000000000000000000000000000
0000000000000000000000000000000010000000000000000000000000000000000000
0100011000011000011100000000000000000000000000000000000000000000000000
0000000000000000000010000000000000000000000000000000000000010001000000
1000011110000000000000000000000000000000000000000000000000000000000000
0000000010000000000000000000000000000000000000010001100001100111110010
0000000000000000000000000000000000000000000000000000000000000000001000
0000000000000000000000000000000000010000111111001111111110000000000000
0000000000000000000000000000000000000000000000000000001000000000000000
0000000000000000000000010000000000100111110010000000000000000000000000
0000000000000000000000000000000000000000001000000000000000000000000000
0000000000010001111111100001111000000000000000000000000000000000000000
0000000000000000000000000000001000000000000000000000000000000000000001
0001111111100001110000000000000000000000000000000000000000000000000000
0000000000000000001000000000000000000000000000000000000001000010000010
0000100000000000000000000000000000000000000000000000000000000000000000
0000001000000000000000000000000000000000000001100000000000000000000000
0000000000000000000000000000000000000000000000000000000000000001100000
0000000000000000000000000000000000111111111111111111111111111111111111
1111111111111111111111111111111111111111111111111111000000000000000000
00