P1
# Created by GIMP version 3.0.4 PNM plug-in
128 64
0000000000000000000001111111111111111111111111111111111111111111111111
1111111111111111111111111111111111111100000000000000000000000000000000
0000000011000000000000000000000000000000000000000000000000000000000000
0000000000000000000000000110000000000000000000000000000000000000001000
0000000000000000000000000000000000000000000000000000000000000000000000
0001000001000010000000000000000000000000000000000000001000000000000000
0000000000000000000000000000000000000000000000000000000000000100000110
0010000000000000000000000000000000000000001000000000000000000000000000
0000000000000000000000000000000000000000011110000111111110001000000000
0000000000000000000000000000001000000000000000000000000000000000000000
0000000000000000000000000000111111000100000000001000000000000000000000
0000000000000000001000000000000000000000000000000000000000000000000000
0000000000000001111111100011111100001000000000000000000000000000000000
0000001000000000000000000000000000000000000000000000000000000000000000
0000111111000110000110001000000000000000000000000000000000000000100000
0000000000000000000000000000000000000000000000000000000000000001111000
0100000010001000000000000000000000000000000000000000100000000000000000
0000000000000000000000000000000000000000000000000000000000011000011000
1000000000000000000000000000000000000000100000000000000000000000000000
0000000000000000000000000000000000000000000000001111110000100000000000
0000000000000000000000000000100000000000000000000000000000000000000000
0000000000000000000000000000000000000000000000100000000000000000000000
0000000000000000100000000000000000000000000000000000000000000000000000
0000000000000000000000000000000000100000000000000000000000000000000000
0000100000000000000000000000000000000000000000000000000000000000000000
0000000000000000000000100000000000000000000000000000000000000010000000
0000000000000000000000000000000000000000000000000000000000000000000000
0000000000100000000000000000000000000000000000000010000000000000000000
0000000000000000000000000000000000000000000000000000000000000000000010
0000000000000000000000000000000000000010000000000000001110000000000000
0011100000000000000011100000000000000011100000000000000010000000000000
0000000000000000000000000010000000000000011111000000000000011111000000
0000000111110000000000000111110000000000000010000000000000000000000000
0000000000000010000000000001111111110000000001111111110000000001111111
1100000000011111111100000000000010000000000000000000000000000000000000
0010000000000111111111111100000111111111111100000111111111111100000111
1111111111000000000010000000000000000000000000000000000000001000000000
1111111111111110001111111111111110001111111111111110001111111111111110
0000000010000000000000000000000000000000000000001000000000011111111111
1100000111111111111100000111111111111100000111111111111100000000001000
0000000000000000000000000000000000001000000000000111111111000000000111
1111110000000001111111110000000001111111110000000000001000000000000000
0000000000000000000000001000000000000001111100000000000001111100000000
0000011111000000000000011111000000000000001000000000000000000000000000
0000000000001000000000000000111000000000000000111000000000000000111000
0000000000001110000000000000001000000000000000000000000000000000000000
1000000000000000000000000000000000000000000000000000000000000000000000
0000000000000000001000000000000000000000000000000000000000100000000000
0000000000000000000000000000000000000000000000000000000000000000000000
0000001000000000000000000000000000000000000000100000000000000000000000
0000000000000000000000000000000000000000000000000000000000000000100000
0000000000000000000000000000000000100000000000000000000000111000000000
0000000000000000000000000111000000000000000000000000100000000000000000
0000000000000000000000100000000000000000000001111100000000000000000000
0000000000001111100000000000000000000000100000000000000000000000000000
0000000000100000000000000000000111111111000000000000000000000000000011
1111111000000000000000000000100000000000000000000000000000000000000010
0000000000000000011111111111110000000000000000000000001111111111111000
0000000000000000100000000000000000000000000000000000000010000000000000
0000111111111111111000000000000000000000011111111111111100000000000000
0000100000000000000000000000000000000000000010000000000000000001111111
1111110000000000000000000000001111111111111000000000000000000010000000
0000000000000000000000000000000010000000000000000000011111111100000000
0000000000000000000011111111100000000000000000000010000000000000000000
0000000000000000000010000000000000000000000111110000000000000000000000
0000000000111110000000000000000000000010000000000000000000000000000000
0000000010000000000000000000000011100000000000000000000000000000000001
1100000000000000000000000010000000000000000000000000000000000000001000
0000000000000000000000000000000000000000000000000000000000000000000000
0000000000000010000000000000000000000000000000000000001000000000000000
0000000000000000000000000000000000000000000000000000000000000000000000
0010000000000000000000000000000000000000001000000000000000000000000000
0000000000000000000000000000000000000000000000000000000000001000000000
0000000000000000000000000000001000000000000000111000000000000000111000
0000000000001110000000000000001110000000000000001000000000000000000000
0000000000000000001000000000000001111100000000000001111100000000000001
1111000000000000011111000000000000001000000000000000000000000000000000
0000001000000000000111111111000000000111111111000000000111111111000000
0001111111110000000000001000000000000000000000000000000000000000100000
0000011111111111110000011111111111110000011111111111110000011111111111
1100000000001000000000000000000000000000000000000000100000000011111111
1111111000111111111111111000111111111111111000111111111111111000000000
1000000000000000000000000000000000000000100000000001111111111111000001
1111111111110000011111111111110000011111111111110000000000100000000000
0000000000000000000000000000100000000000011111111100000000011111111100
0000000111111111000000000111111111000000000000100000000000000000000000
0000000000000000100000000000000111110000000000000111110000000000000111
1100000000000001111100000000000000100000000000000000000000000000000000
0000100000000000000011100000000000000011100000000000000011100000000000
0000111000000000000000100000000000000000000000000000000000000010000000
0000000000000000000000000000000000000000000000000000000000000000000000
0000000000100000000000000000000000000000000000000010000000000000000000
0000000000000000000000000000000000000000000000000000000000000000000010
0000000000000000000000000000000000000010000000000000000000000000000000
0000000000000000000000000000000000000000000000000000000010000000000000
0000000000000000000000000010000000000000000000000000000000000000000000
0000000000000000000000000000000000000000000010000000000000000000000000
0000000000000010000111111000000000000000000000000000000000000000000000
0000000000000000000000000000000010000000000000000000000000000000000000
0010001100001100000000000000000000000000000000000000000000000000000000
0000000000000000000010000000000000000000000000000000000000001000100000
0100011110000000000000000000000000000000000000000000000000000000000000
0000000010000000000000000000000000000000000000001000110000110011111100
0000000000000000000000000000000000000000000000000000000000000000001000
0000000000000000000000000000000000001000011111100111111110000000000000
0000000000000000000000000000000000000000000000000000001000000000000000
0000000000000000000000001000000000010011111100000000000000000000000000
0000000000000000000000000000000000000000001000000000000000000000000000
0000000000001000111111110001111000000000000000000000000000000000000000
0000000000000000000000000000001000000000000000000000000000000000000000
1000110000010000000000000000000000000000000000000000000000000000000000
0000000000000000001000000000000000000000000000000000000000100001000001
0000000000000000000000000000000000000000000000000000000000000000000000
0000001000000000000000000000000000000000000000110000000000000000000000
0000000000000000000000000000000000000000000000000000000000000001100000
0000000000000000000000000000000000011111111111111111111111111111111111
1111111111111111111111111111111111111111111111111111000000000000000000
00