P1
# Created by GIMP version 3.0.4 PNM plug-in
128 64
0000000000000000000011111111111111111111111111111111111111111111111111
1111111111111111111111111111111111111100000000000000000000000000000000
0000000110000000000000000000000000000000000000000000000000000000000000
0000000000000000000000000110000000000000000000000000000000000000010000
0000000000000000000000000000000000000000000000000000000000000000000000
0001000001000010000000000000000000000000000000000000010000000000000000
0000000000000000000000000000000000000000000000000000000110000100000010
0010000000000000000000000000000000000000010000000000000000000000000000
0000000000000000000000000000000000000000001111000111111110001000000000
0000000000000000000000000000010000000000000000000000000000000000000000
0000000000000000000000000000100111100100000000001000000000000000000000
0000000000000000010000000000000000000000000000000000000000000000000000
0000000000000000111111110011111100001000000000000000000000000000000000
0000010000000000000000000000000000000000000000000000000000000000000000
0000100111100110000110001000000000000000000000000000000000000001000000
0000000000000000000000000000000000000000000000000000000000000000111100
0100000010001000000000000000000000000000000000000001000000000000000000
0000000000000000000000000000000000000000000000000000011000011000011000
1000000000000000000000000000000000000001000000000000000000000000000000
0000000000000000000000000000000000000000000000001111110000100000000000
0000000000000000000000000001000000000000000000000000000000000000000000
0000000000000000000000000000000000000000000000100000000000000000000000
0000000000000001000000000000000000000000000000000000000000000000000000
0000000000000000000000000000000000100000000000000000000000000000000000
0001000000000000000000000000000000000000000000000000000000000000000000
0000000000000000000000100000000000000000000000000000000000000100000000
0000000000111100000000000001111000000000011110000000000001111000000000
0000000000100000000000000000000000000000000000000100000000000000000111
1110000000000011111100000000111111000000000011111100000000000000000010
0000000000000000000000000000000000000100000000000000001111111000000000
0111111100000000111111100000000011111110000000000000000010000000000000
0000000000000000000000000100000000000000011111111000000000111111110000
0000111111110000000011111111000000000000000010000000000000000000000000
0000000000000100000000000000111111110001000001111111100010010001111111
1000010001111111100000000000000010000000000000000000000000000000000000
0100000000000001111111100011000011111111000110011000111111110001100011
1111110000000000000010000000000000000000000000000000000000010000000000
0011111111111111000111111111111110011111111111111001111111111111100000
0000000010000000000000000000000000000000000000010000000000000111111110
0011000011111111000110011000111111110001100011111111000000000000001000
0000000000000000000000000000000000010000000000000011111111000100000111
1111100010010001111111100001000111111110000000000000001000000000000000
0000000000000000000000010000000000000001111111100000000011111111000000
0011111111000000001111111100000000000000001000000000000000000000000000
0000000000010000000000000000111111100000000001111111000000001111111000
0000001111111000000000000000001000000000000000000000000000000000000001
0000000000000000011111100000000000111111000000001111110000000000111111
0000000000000000001000000000000000000000000000000000000001000000000000
0000001111000001111000011110000000000111100000111100011110000000000000
0000001000000000000000000000000000000000000001000000000000000000000000
0011111100000000000000000000000001111110000000000000000000000000100000
0000000000000000000000000000000001000000000000000000000000011111110000
0000000000000000000001111111000000000000000000000000100000000000000000
0000000000000000000001000000000000000000000000111111110000000000000000
0000000001111111100000000000000000000000100000000000000000000000000000
0000000001000000000000000000000001111111100010000000000000000000100011
1111110000000000000000000000100000000000000000000000000000000000000100
0000000000000000000011111111000110000000000000000000110001111111100000
0000000000000000100000000000000000000000000000000000000100000000000000
0000000111111111111110000000000000000000111111111111110000000000000000
0000100000000000000000000000000000000000000100000000000000000000001111
1111000110000000000000000000110001111111100000000000000000000010000000
0000000000000000000000000000000100000000000000000000000111111110001000
0000000000000000100011111111000000000000000000000010000000000000000000
0000000000000000000100000000000000000000000011111111000000000000000000
0000000111111110000000000000000000000010000000000000000000000000000000
0000000100000000000000000000000001111111000000000000000000000000011111
1100000000000000000000000010000000000000000000000000000000000000010000
0000000000000011110000111111000111100000000001111000011111100111100000
0000000000000010000000000000000000000000000000000000010000000000000000
0111111000011110001111110000000011111100001111001111110000000000000000
0010000000000000000000000000000000000000010000000000000000111111100000
0000011111110000000011111110000000001111111000000000000000001000000000
0000000000000000000000000000010000000000000001111111100000000011111111
0000000011111111000000001111111100000000000000001000000000000000000000
0000000000000000010000000000000011111111000100000111111110001001000111
1111100001000111111110000000000000001000000000000000000000000000000000
0000010000000000000111111110001100001111111100011001100011111111000110
0011111111000000000000001000000000000000000000000000000000000001000000
0000001111111111111100011111111111111001111111111111100111111111111110
0000000000001000000000000000000000000000000000000001000000000000011111
1110001100001111111100011001100011111111000110001111111100000000000000
1000000000000000000000000000000000000001000000000000001111111100010000
0111111110001001000111111110000100011111111000000000000000100000000000
0000000000000000000000000001000000000000000111111110000000001111111100
0000001111111100000000111111110000000000000000100000000000000000000000
0000000000000001000000000000000011111110000000000111111100000000111111
1000000000111111100000000000000000100000000000000000000000000000000000
0001000000000000000001111110000000000011111100000000111111000000000011
1111000000000000000000100000000000000000000000000000000000000100000000
0000000000111100000000000001111000000000011110000000000001111000000000
0000000000100000000000000000000000000000000000000100000000000000000000
0000000000000000000000000000000000000000000000000000000000000000000010
0000000000000000000000000000000000000100000000000000000000000000000000
0000000000000000000000000000000000000000000000000000000010000000000000
0000000000000000000000000100000000000000000000000000000000000000000000
0000000000000000000000000000000000000000000010000000000000000000000000
0000000000000100000000000000000000000000000000000000000000000000000000
0000000000000000000000000000000010000000000000000000000000000000000000
0100001111110000011000000000000000000000000000000000000000000000000000
0000000000000000000010000000000000000000000000000000000000010001000000
1000111100000000000000000000000000000000000000000000000000000000000000
0000000010000000000000000000000000000000000000010001000000100111100100
0000000000000000000000000000000000000000000000000000000000000000001000
0000000000000000000000000000000000010000111111001111111100000000000000
0000000000000000000000000000000000000000000000000000001000000000000000
0000000000000000000000010000000000100111100100000000000000000000000000
0000000000000000000000000000000000000000001000000000000000000000000000
0000000000010001111111100011110000000000000000000000000000000000000000
0000000000000000000000000000001000000000000000000000000000000000000001
0001000000100001100000000000000000000000000000000000000000000000000000
0000000000000000001000000000000000000000000000000000000001000010000010
0000000000000000000000000000000000000000000000000000000000000000000000
0000001000000000000000000000000000000000000001100000000000000000000000
0000000000000000000000000000000000000000000000000000000000000001100000
0000000000000000000000000000000000111111111111111111111111111111111111
1111111111111111111111111111111111111111111111111111000000000000000000
00