P1
# Created by GIMP version 3.0.4 PNM plug-in
128 64
0000000000000000000011111111111111111111111111111111111111111111111111
1111111111111111111111111111111111111000000000000000000000000000000000
0000000110000000000000000000000000000000000000000000000000000000000000
0000000000000000000000001100000000000000000000000000000000000000010000
0000000000000000000000000000000000000000000000000000000000000000001100
0000000000000100000000000000000000000000000000000000010000000000000000
0000000000000000000000000000000000000000000000000000011110000100001000
0100000000000000000000000000000000000000010000000000000000000000000000
0000000000000000000000000000000000000001001111001000100100010000000000
0000000000000000000000000000010000000000000000000000000000000000000000
0000000000000000000000000001111111101000100100010000000000000000000000
0000000000000000010000000000000000000000000000000000000000000000000000
0000000000000001001111001111111100010000000000000000000000000000000000
0000010000000000000000000000000000000000000000000000000000000000000000
0000011110000111011000010000000000000000000000000000000000000001000000
0000000000000000000000000000000000000000000000000000000000000000110000
0000000000010000000000000000000000000000000000000001000000000000000000
0000000000000000000000000000000000000000000000000000000000000000000001
0000000000000000000000000000000000000001000000000000000000000000000000
0000000000000000000000000000000000000000000000000000000001000000000000
0000000000000000000000000001000000000000000000000000000000000000000000
0000000000000000000000000000000000000000000001000000000000000000000000
0000000000000001000000000000000000000000000000000000000000000000000000
0000000000000000000000000000000001000000000000000000000000000000000000
0001000000000000000000000000000000000000000000000000000000000000000000
0000000000000000000001000000000000000000000000000000000000000100000000
0000000000000000000000000000000000000000000000000000000000000000000000
0000000001000000000000000000000000000000000000000100000000000000000000
0000000000000000000000000000000000000000000000000000000000000000000100
0000000000000000000000000000000000000100000000000000000000000000000000
0000000000000000000000000000000000000000000000000000000100000000000000
0000000000000000000000000100000000000000000000000000000000000000000000
0000000000000000000000000000000000000000000100000000000000000000000000
0000000000000100000000000000000000000000000000000000000000000000000000
0000000000000000000000000000000100000000000000000000000000000000000000
0100000000000000000000000000000000000000000000000000000000000000000000
0000000000000000000100000000000000000000000000000000000000010000000000
0000000000000000000000000000000000000000000000000000000000000000000000
0000000100000000000000000000000000000000000000010000000000000000000000
0000000000000000000000000000000000000000000000000000000000000000010000
0000000000000000000000000000000000010000000000000000000000000000000000
0000000000000000000000000000000000000000000000000000010000000000000000
0000000000000000000000010000000000000000000000000000000000000000000000
0000000000000000000000000000000000000000010000000000000000000000000000
0000000000010000000000000000000000000000000000000000000000000000000000
0000000000000000000000000000010000000000000000000000000000000000000001
0000000000000000001111000000000000000000011110000000000000000000001111
0000000000000000010000000000000000000000000000000000000001000000000000
0000011111100000000000000000111111000000000000000000011111100000000000
0000010000000000000000000000000000000000000001000000000000000011111111
0000000000000001111111100000000000000000111111110000000000000001000000
0000000000000000000000000000000001000000000000000111111111000000000000
0001111111110000000000000000111111111000000000000001000000000000000000
0000000000000000000001000000000000001111111110001000000000100011111111
1000000000000100011111111100000000000001000000000000000000000000000000
0000000001000000000000011111111100011000000000110001111111110000000000
0110001111111110000000000001000000000000000000000000000000000000000100
0000000000111111111111111000000000111111111111111000000000011111111111
1111000000000001000000000000000000000000000000000000000100000000000011
1111111111111000000000111111111111111000000000011111111111111100000000
0001000000000000000000000000000000000000000100000000000001111111110001
1000000000110001111111110000000000011000111111111000000000000100000000
0000000000000000000000000000000100000000000000111111111000100000000010
0011111111100000000000010001111111110000000000000100000000000000000000
0000000000000000000100000000000000011111111100000000000000011111111100
0000000000000011111111100000000000000100000000000000000000000000000000
0000000100000000000000001111111100000000000000011111111000000000000000
0011111111000000000000000100000000000000000000000000000000000000010000
0000000000000111111000000000000000001111110000000000000000000111111000
0000000000000100000000000000000000000000000000000000010000000000000000
0011110000000000000000000111100000000000000000000011110000000000000000
0100000000000000000000000000000000000000010000000000000000000000000000
0000000000000000000000000000000000000000000000000000000000010000000000
0000000000000000000000000000010000000000000000000000000000000000000000
0000000000000000000000000000000000000000000000010000000000000000000000
0000000000000000010000000000000000000000000000000000000000000000000000
0000000000000000000000000000000000010000000000000000000000000000000000
0000010000000000000000000000000000000000000000000000000000000000000000
0000000000000000000000010000000000000000000000000000000000000001000000
0000000000000000000000000000000000000000000000000000000000000000000000
0000000000010000000000000000000000000000000000000001000000000000000000
0000000000000000000000000000000000000000000000000000000000000000000001
0000000000000000000000000000000000000001000000000000000000000000000000
0000000000000000000000000000000000000000000000000000000001000000000000
0000000000000000000000000001000000000000000000000000000000000000000000
0000000000000000000000000000000000000000000001000000000000000000000000
0000000000000001000000000000000000000000000000000000000000000000000000
0000000000000000000000000000000001000000000000000000000000000000000000
0001000000000000000000000000000000000000000000000000000000000000000000
0000000000000000000001000000000000000000000000000000000000000100000000
0000000000000000000000000000000000000000000000000000000000000000000000
0000000001000000000000000000000000000000000000000100000000000000000000
0000000000000000000000000000000000000000000000000000000000000000000100
0000000000000000000000000000000000000100000000000000000000000000000000
0000000000000000000000000000000000000000000000000000000100000000000000
0000000000000000000000000100000000000000000000000000000000000000000000
0000000000000000000000000000000000000000000100000000000000000000000000
0000000000000100000000000000000000000000000000000000000000000000000000
0000000000000000000000000000000100000000000000000000000000000000000000
0100000000000000000000000000000000000000000000000000000000000000000000
0000000000000000000100000000000000000000000000000000000000010000000000
0000011000000000000000000000000000000000000000000000000000000000000000
0000000100000000000000000000000000000000000000010000110111000011110000
0000000000000000000000000000000000000000000000000000000000000000010000
0000000000000000000000000000000000010001111111100111100100000000000000
0000000000000000000000000000000000000000000000000000010000000000000000
0000000000000000000000010001001000101111111100000000000000000000000000
0000000000000000000000000000000000000000010000000000000000000000000000
0000000000010001001000100111100100000000000000000000000000000000000000
0000000000000000000000000000010000000000000000000000000000000000000001
0000100001000011110000000000000000000000000000000000000000000000000000
0000000000000000010000000000000000000000000000000000000001000000000000
0001100000000000000000000000000000000000000000000000000000000000000000
0000010000000000000000000000000000000000000001100000000000000000000000
0000000000000000000000000000000000000000000000000000000000000011000000
0000000000000000000000000000000000111111111111111111111111111111111111
1111111111111111111111111111111111111111111111111110000000000000000000
00