P1
# Created by GIMP version 3.0.4 PNM plug-in
128 64
0000000000000000000011111111111111111111111111111111111111111111111111
1111111111111111111111111111111111111100000000000000000000000000000000
0000000110000000000000000000000000000000000000000000000000000000000000
0000000000000000000000000110000000000000000000000000000000000000010000
0000000000000000000000000000000000000000000000000000000000000000000110
0000100001100010000000000000000000000000000000000000010000000000000000
0000000000000000000000000000000000000000000000000000001111000100010011
0010000000000000000000000000000000000000010000000000000000000000000000
0000000000000000000000000000000000000000011111100100010001001000000000
0000000000000000000000000000010000000000000000000000000000000000000000
0000000000000000000000000000111111110110111011001000000000000000000000
0000000000000000010000000000000000000000000000000000000000000000000000
0000000000000000011111100011101110001000000000000000000000000000000000
0000010000000000000000000000000000000000000000000000000000000000000000
0000001111000000000000001000000000000000000000000000000000000001000000
0000000000000000000000000000000000000000000000000000000000000000011000
0000000000001000000000000000000000000000000000000001000000000000000000
0000000000000000000000000000000000000000000000000000000000000000000000
1000000000000000000000000000000000000001000000000000000000000000000000
0000000000000000000000000000000000000000000000000000000000100000000000
0000000000000000000000000001000000000000000000000000000000000000000000
0000000000000000000000000000000000000000000000100000000000000000000000
0000000000000001000000000000000000000000000000000000000000000000000000
0000000000000000000000000000000000100000000000000000000000000000000000
0001000000000000000000000000000000000000000000000000000000000000000000
0000000000000000000000100000000000000000000000000000000000000100000000
0000000000000000000000000000000000000000000000000000000000000000000000
0000000000100000000000000000000000000000000000000100000000000000000000
0000000000000000000000000000000000000000000000000000000000000000000010
0000000000000000000000000000000000000100000000000000000000000000000000
0000000000000000000000000000000000000000000000000000000010000000000000
0000000000000000000000000100000000000000000000000000000000000000000000
0000000000000000000000000000000000000000000010000000000000000000000000
0000000000000100000000000000000000000000000000000000000000000000000000
0000000000000000000000000000000010000000000000000000000000000000000000
0100000000000000000000000000000000000000000000000000000000000000000000
0000000000000000000010000000000000000000000000000000000000010000000000
0000000000000000000000000000000000000000000000000000000000000000000000
0000000010000000000000000000000000000000000000010000000000000000000000
0000000000000000000000000000000000000000000000000000000000000000001000
0000000000000000000000000000000000010000000000000000000000000000000000
0000000000000000000000000000000000000000000000000000001000000000000000
0000000000000000000000010000000000000000000000000000000000000000000000
0000000000000000000000000000000000000000001000000000000000000000000000
0000000000010000000000000000000000000000000000000000000000000000000000
0000000000000000000000000000001000000000000000000000000000000000000001
0000000000000000000000000000000000000000000000000000000000000000000000
0000000000000000001000000000000000000000000000000000000001000000000000
0000010000000000000000000000000010000000000000000000000000010000000000
0000001000000000000000000000000000000000000001000000000000000011100000
0000000000000000000111000000000000000000000000111000000000000000100000
0000000000000000000000000000000001000000000000001111111000000000000000
0000011111110000000000000000000011111110000000000000100000000000000000
0000000000000000000001000000000000111111111110000000000000000111111111
1100000000000000001111111111100000000000100000000000000000000000000000
0000000001000000000011111111111111100000000000011111111111111100000000
0000111111111111110000000000100000000000000000000000000000000000000100
0000001111111111111111111000000001111111111111111111000000001111111111
1111111100000000100000000000000000000000000000000000000100000000001111
1111111111100000000000011111111111111100000000000011111111111111000000
0000100000000000000000000000000000000000000100000000000011111111111000
0000000000000111111111110000000000000000111111111110000000000010000000
0000000000000000000000000000000100000000000000111111100000000000000000
0001111111000000000000000000001111111000000000000010000000000000000000
0000000000000000000100000000000000001110000000000000000000000001110000
0000000000000000000011100000000000000010000000000000000000000000000000
0000000100000000000000000100000000000000000000000000100000000000000000
0000000001000000000000000010000000000000000000000000000000000000010000
0000000000000000000000000000000000000000000000000000000000000000000000
0000000000000010000000000000000000000000000000000000010000000000000000
0000000000000000000000000000000000000000000000000000000000000000000000
0010000000000000000000000000000000000000010000000000000000000000000000
0000000000000000000000000000000000000000000000000000000000001000000000
0000000000000000000000000000010000000000000000000000000000000000000000
0000000000000000000000000000000000000000000000001000000000000000000000
0000000000000000010000000000000000000000000000000000000000000000000000
0000000000000000000000000000000000001000000000000000000000000000000000
0000010000000000000000000000000000000000000000000000000000000000000000
0000000000000000000000001000000000000000000000000000000000000001000000
0000000000000000000000000000000000000000000000000000000000000000000000
0000000000001000000000000000000000000000000000000001000000000000000000
0000000000000000000000000000000000000000000000000000000000000000000000
1000000000000000000000000000000000000001000000000000000000000000000000
0000000000000000000000000000000000000000000000000000000000100000000000
0000000000000000000000000001000000000000000000000000000000000000000000
0000000000000000000000000000000000000000000000100000000000000000000000
0000000000000001000000000000000000000000000000000000000000000000000000
0000000000000000000000000000000000100000000000000000000000000000000000
0001000000000000000000000000000000000000000000000000000000000000000000
0000000000000000000000100000000000000000000000000000000000000100000000
0000000000000000000000000000000000000000000000000000000000000000000000
0000000000100000000000000000000000000000000000000100000000000000000000
0000000000000000000000000000000000000000000000000000000000000000000010
0000000000000000000000000000000000000100000000000000000000000000000000
0000000000000000000000000000000000000000000000000000000010000000000000
0000000000000000000000000100000000000000000000000000000000000000000000
0000000000000000000000000000000000000000000010000000000000000000000000
0000000000000100000000000000000000000000000000000000000000000000000000
0000000000000000000000000000000010000000000000000000000000000000000000
0100000000000000000000000000000000000000000000000000000000000000000000
0000000000000000000010000000000000000000000000000000000000010000000000
0000001100000000000000000000000000000000000000000000000000000000000000
0000000010000000000000000000000000000000000000010000110011000001111000
0000000000000000000000000000000000000000000000000000000000000000001000
0000000000000000000000000000000000010001111111100011111100000000000000
0000000000000000000000000000000000000000000000000000001000000000000000
0000000000000000000000010001101100110111111110000000000000000000000000
0000000000000000000000000000000000000000001000000000000000000000000000
0000000000010001000100110011111100000000000000000000000000000000000000
0000000000000000000000000000001000000000000000000000000000000000000001
0001100001100001111000000000000000000000000000000000000000000000000000
0000000000000000001000000000000000000000000000000000000001000000000000
0000110000000000000000000000000000000000000000000000000000000000000000
0000001000000000000000000000000000000000000001100000000000000000000000
0000000000000000000000000000000000000000000000000000000000000001100000
0000000000000000000000000000000000111111111111111111111111111111111111
1111111111111111111111111111111111111111111111111111000000000000000000
00