P1
# Created by GIMP version 3.0.4 PNM plug-in
128 64
0000000000000000000111111111111111111111111111111111111111111111111111
1111111111111111111111111111111111111111000000000000000000000000000000
0000001100000000000000000000000000000000000000000000000000000000000000
0000000000000000000000000001100000000000000000000000000000000000100000
0000000000000000000000000000000000000000000000000000000000000000000000
1110011000011000100000000000000000000000000000000000100000000000000000
0000000000000000000000000000000000000000000000000000000001111101000100
1100100000000000000000000000000000000000100000000000000000000000000000
0000000000000000000000000000000000000000000011111001000100110010000000
0000000000000000000000000000100000000000000000000000000000000000000000
0000000000000000000000000000000111110001111111100010000000000000000000
0000000000000000100000000000000000000000000000000000000000000000000000
0000000000000000000011111000111011000010000000000000000000000000000000
0000100000000000000000000000000000000000000000000000000000000000000000
0000000001111100000000000010000000000000000000000000000000000010000000
0000000000000000000000000000000000000000000000000000000000000000000011
1000000000000010000000000000000000000000000000000010000000000000000000
0000000000000000000000000000000000000000000000000000000000000000000000
0010000000000000000000000000000000000010000000000000000000000000000000
0000000000000000000000000000000000000000000000000000000000001000000000
0000000000000000000000000010000000000000000000000000000000000000000000
0000000000000000000000000000000000000000000000001000000000000000000000
0000000000000010000000000000000000000000000000000000000000000000000000
0000000000000000000000000000000000001000000000000000000000000000000000
0010000000000000000000000000000000000000000000000000000000000000000000
0000000000000000000000001000000000000000000000000000000000001000000000
0000000000000000000000000000000000000000000000000000000000000000000000
0000000000001000000000000000000000000000000000001000000000000000000000
0000000000000000000000000000000000000000000000000000000000000000000000
1000000000000000000000000000000000001000000000000000000000000000000000
0000000000000000000000000000000000000000000000000000000000100000000000
0000000000000000000000001000000000000000000000000000000000000000000000
0000000000000000000000000000000000000000000000100000000000000000000000
0000000000001000000000000000000000000000000000000000000000000000000000
0000000000000000000000000000000000100000000000000000000000000000000000
1000000000000000000000000000000000000000000000000000000000000000000000
0000000000000000000000100000000000000000000000000000000000100000000000
0000000000000000000000000000000000000000000000000000000000000000000000
0000000000100000000000000000000000000000000000100000000000000000000000
0000000000000000000000000000000000000000000000000000000000000000000010
0000000000000000000000000000000000100000000000000000000000000000000000
0000000000000000000000000000000000000000000000000000000010000000000000
0000000000000000000000100000000000000000000000000000000000000000000000
0000000000000000000000000000000000000000000010000000000000000000000000
0000000000100000000000000000000000000000000000000000000000000000000000
0000000000000000000000000000000010000000000000000000000000000000000010
0000000000000000111100000000000000000000000000111100000000000000000000
0111100000000000000010000000000000000000000000000000000010000000000000
0001111110000000000000000000000001111110000000000000000000111111000000
0000000010000000000000000000000000000000000010000000000000001111111100
0000000000000000000011111111000000000000000001111111100000000000001000
0000000000000000000000000000000010000000000000001111111110000000000000
0000000111111111000000000000000011111111100000000000001000000000000000
0000000000000000000010000000000000001111111111000000000000000000111111
1111000000000000000111111111100000000000001000000000000000000000000000
0000000010000000000000000111111111100000000000000001111111111000000000
0000001111111111000000000000001000000000000000000000000000000000001000
0000000000000011111111110000000000000011111111110000000000000001111111
1110000000000000001000000000000000000000000000000000001000000000000000
0111111111100000000000000001111111111000000000000000111111111100000000
0000001000000000000000000000000000000000001000000000000000111111111100
0000000000000000111111111100000000000000011111111110000000000000100000
0000000000000000000000000000001000000000000000111111111000000000000000
0000011111111100000000000000001111111110000000000000100000000000000000
0000000000000000001000000000000000111111110000000000000000000000111111
1100000000000000000111111110000000000000100000000000000000000000000000
0000001000000000000000011111100000000000000000000000011111100000000000
0000000011111100000000000000100000000000000000000000000000000000100000
0000000000001111000000000000000000000000001111000000000000000000000111
1000000000000000100000000000000000000000000000000000100000000000000000
0000000000000000000000000000000000000000000000000000000000000000000000
0000100000000000000000000000000000000000100000000000000000000000000000
0000000000000000000000000000000000000000000000000000000000000010000000
0000000000000000000000000000100000000000000000000000000000000000000000
0000000000000000000000000000000000000000000000000010000000000000000000
0000000000000000100000000000000000000000000000000000000000000000000000
0000000000000000000000000000000000000010000000000000000000000000000000
0000100000000000000000000000000000000000000000000000000000000000000000
0000000000000000000000000010000000000000000000000000000000000010000000
0000000000000000000000000000000000000000000000000000000000000000000000
0000000000000010000000000000000000000000000000000010000000000000000000
0000000000000000000000000000000000000000000000000000000000000000000000
0010000000000000000000000000000000000010000000000000000000000000000000
0000000000000000000000000000000000000000000000000000000000001000000000
0000000000000000000000000010000000000000000000000000000000000000000000
0000000000000000000000000000000000000000000000001000000000000000000000
0000000000000010000000000000000000000000000000000000000000000000000000
0000000000000000000000000000000000001000000000000000000000000000000000
0010000000000000000000000000000000000000000000000000000000000000000000
0000000000000000000000001000000000000000000000000000000000001000000000
0000000000000000000000000000000000000000000000000000000000000000000000
0000000000001000000000000000000000000000000000001000000000000000000000
0000000000000000000000000000000000000000000000000000000000000000000000
1000000000000000000000000000000000001000000000000000000000000000000000
0000000000000000000000000000000000000000000000000000000000100000000000
0000000000000000000000001000000000000000000000000000000000000000000000
0000000000000000000000000000000000000000000000100000000000000000000000
0000000000001000000000000000000000000000000000000000000000000000000000
0000000000000000000000000000000000100000000000000000000000000000000000
1000000000000000000000000000000000000000000000000000000000000000000000
0000000000000000000000100000000000000000000000000000000000100000000000
0000011100000000000000000000000000000000000000000000000000000000000000
0000000000100000000000000000000000000000000000100000001101110011111000
0000000000000000000000000000000000000000000000000000000000000000000010
0000000000000000000000000000000000100000011111011001111100000000000000
0000000000000000000000000000000000000000000000000000000010000000000000
0000000000000000000000100000110010001000111110000000000000000000000000
0000000000000000000000000000000000000000000010000000000000000000000000
0000000000100000110000001001111100000000000000000000000000000000000000
0000000000000000000000000000000010000000000000000000000000000000000010
0000011000011011111000000000000000000000000000000000000000000000000000
0000000000000000000010000000000000000000000000000000000010000000000000
0001110000000000000000000000000000000000000000000000000000000000000000
0000000010000000000000000000000000000000000011000000000000000000000000
0000000000000000000000000000000000000000000000000000000000000000011000
0000000000000000000000000000000001111111111111111111111111111111111111
1111111111111111111111111111111111111111111111111111110000000000000000
00