P1
# Created by GIMP version 3.0.4 PNM plug-in
128 64
0000000000000000000011111111111111111111111111111111111111111111111111
1111111111111111111111111111111111111100000000000000000000000000000000
0000000110000000000000000000000000000000000000000000000000000000000000
0000000000000000000000000110000000000000000000000000000000000000010000
0000000000000000000000000000000000000000000000000000000000000000001110
0000000000000010000000000000000000000000000000000000010000000000000000
0000000000000000000000000000000000000000000000000000011111000110000110
0010000000000000000000000000000000000000010000000000000000000000000000
0000000000000000000000000000000000000001001111100101100010001000000000
0000000000000000000000000000010000000000000000000000000000000000000000
0000000000000000000000000001111111110100110010001000000000000000000000
0000000000000000010000000000000000000000000000000000000000000000000000
0000000000000001001111100100011010001000000000000000000000000000000000
0000010000000000000000000000000000000000000000000000000000000000000000
0000011111000110001100001000000000000000000000000000000000000001000000
0000000000000000000000000000000000000000000000000000000000000000111000
0000000000001000000000000000000000000000000000000001000000000000000000
0000000000000000000000000000000000000000000000000000000000000000000000
1000000000000000000000000000000000000001000000000000000000000000000000
0000000000000000000000000000000000000000000000000000000000100000000000
0000000000000000000000000001000000000000000000000000000000000000000000
0000000000000000000000000000000000000000000000100000000000000000000000
0000000000000001000000000000000000000000000000000000000000000000000000
0000000000000000000000000000000000100000000000000000000000000000000000
0001000000000000000000000000000000000000000000000000000000000000000000
0000000000000000000000100000000000000000000000000000000000000100000000
0000000000000000000000000000000000000000000000000000000000000000000000
0000000000100000000000000000000000000000000000000100000000000000000000
0000000000000000000000000000000000000000000000000000000000000000000010
0000000000000000000000000000000000000100000000000000000000000000000000
0000000000000000000000000000000000000000000000000000000010000000000000
0000000000000000000000000100000000000000000000000000000000000000000000
0000000000000000000000000000000000000000000010000000000000000000000000
0000000000000100000000000000000000000000000000000000000000000000000000
0000000000000000000000000000000010000000000000000000000000000000000000
0100000000000000000000000000000000000000000000000000000000000000000000
0000000000000000000010000000000000000000000000000000000000010000000000
0000000000000000000000000000000000000000000000000000000000000000000000
0000000010000000000000000000000000000000000000010000000000000000000000
0000000000000000000000000000000000000000000000000000000000000000001000
0000000000000000000000000000000000010000000000000000000000000000000000
0000000000000000000000000000000000000000000000000000001000000000000000
0000000000000000000000010000000000000000000000000000000000000000000000
0000000000000000000000000000000000000000001000000000000000000000000000
0000000000010000000000000000000000000000000000000000000000000000000000
0000000000000000000000000000001000000000000000000000000000000000000001
0000000000000000001110000000000000000000000000000000000000000000001110
0000000000000000001000000000000000000000000000000000000001000000000000
0000111111000000000000000000000000000000000000000000011111100000000000
0000001000000000000000000000000000000000000001000000000000000111111110
0000000000000000000000000000000000000000111111110000000000000000100000
0000000000000000000000000000000001000000000000001111111110000000000000
0000000000000000000000000000111111111000000000000000100000000000000000
0000000000000000000001000000000000011111111100001000000000000000000000
0000000000001000011111111100000000000000100000000000000000000000000000
0000000001000000000000111111111000011000000000000000000000000000000000
1100001111111110000000000000100000000000000000000000000000000000000100
0000000001111111111111111000000000000000000000000000000000111111111111
1111000000000000100000000000000000000000000000000000000100000000000111
1111111111111000000000000000000000000000000000111111111111111100000000
0000100000000000000000000000000000000000000100000000000011111111100001
1000000000000000000000000000000000110000111111111000000000000010000000
0000000000000000000000000000000100000000000001111111110000100000000000
0000000000000000000000000001111111110000000000000010000000000000000000
0000000000000000000100000000000000111111111000000000000000000000000000
0000000000000011111111100000000000000010000000000000000000000000000000
0000000100000000000000011111111000000000000000000000000000000000000000
0011111111000000000000000010000000000000000000000000000000000000010000
0000000000001111110000000000000000000000000000000000000000000111111000
0000000000000010000000000000000000000000000000000000010000000000000000
0011100000000000000000000000000000000000000000000011100000000000000000
0010000000000000000000000000000000000000010000000000000000000000000000
0000000000000000000000000000000000000000000000000000000000001000000000
0000000000000000000000000000010000000000000000000000000000000000000000
0000000000000000000000000000000000000000000000001000000000000000000000
0000000000000000010000000000000000000000000000000000000000000000000000
0000000000000000000000000000000000001000000000000000000000000000000000
0000010000000000000000000000000000000000000000000000000000000000000000
0000000000000000000000001000000000000000000000000000000000000001000000
0000000000000000000000000000000000000000000000000000000000000000000000
0000000000001000000000000000000000000000000000000001000000000000000000
0000000000000000000000000000000000000000000000000000000000000000000000
1000000000000000000000000000000000000001000000000000000000000000000000
0000000000000000000000000000000000000000000000000000000000100000000000
0000000000000000000000000001000000000000000000000000000000000000000000
0000000000000000000000000000000000000000000000100000000000000000000000
0000000000000001000000000000000000000000000000000000000000000000000000
0000000000000000000000000000000000100000000000000000000000000000000000
0001000000000000000000000000000000000000000000000000000000000000000000
0000000000000000000000100000000000000000000000000000000000000100000000
0000000000000000000000000000000000000000000000000000000000000000000000
0000000000100000000000000000000000000000000000000100000000000000000000
0000000000000000000000000000000000000000000000000000000000000000000010
0000000000000000000000000000000000000100000000000000000000000000000000
0000000000000000000000000000000000000000000000000000000010000000000000
0000000000000000000000000100000000000000000000000000000000000000000000
0000000000000000000000000000000000000000000010000000000000000000000000
0000000000000100000000000000000000000000000000000000000000000000000000
0000000000000000000000000000000010000000000000000000000000000000000000
0100000000000000000000000000000000000000000000000000000000000000000000
0000000000000000000010000000000000000000000000000000000000010000000000
0000011100000000000000000000000000000000000000000000000000000000000000
0000000010000000000000000000000000000000000000010000110001100011111000
0000000000000000000000000000000000000000000000000000000000000000001000
0000000000000000000000000000000000010001011000100111110010000000000000
0000000000000000000000000000000000000000000000000000001000000000000000
0000000000000000000000010001001100101111111110000000000000000000000000
0000000000000000000000000000000000000000001000000000000000000000000000
0000000000010001000110100111110010000000000000000000000000000000000000
0000000000000000000000000000001000000000000000000000000000000000000001
0001100011100011111000000000000000000000000000000000000000000000000000
0000000000000000001000000000000000000000000000000000000001000000000000
0001110000000000000000000000000000000000000000000000000000000000000000
0000001000000000000000000000000000000000000001100000000000000000000000
0000000000000000000000000000000000000000000000000000000000000001100000
0000000000000000000000000000000000111111111111111111111111111111111111
1111111111111111111111111111111111111111111111111111000000000000000000
00