P1
# Created by GIMP version 3.0.4 PNM plug-in
128 64
0000000000000000000111111111111111111111111111111111111111111111111111
1111111111111111111111111111111111111111000000000000000000000000000000
0000001100000000000000000000000000000000000000000000000000000000000000
0000000000000000000000000001100000000000000000000000000000000000100000
0000000000000000000000000000000000000000000000000000000000000000000000
0000000000000000100000000000000000000000000000000000100000000000000000
0000000000000000000000000000000000000000000000000000000000000000000000
0000100000000000000000000000000000000000100000000000000000000000000000
0000000000000000000000000000000000000000000111100111100011100010000000
0000000000000000000000000000100000000000000000000000000000000000000000
0000000000000000000000000000011111110111110011110010000000000000000000
0000000000000000100000000000000000000000000000000000000000000000000000
0000000000000000111111110110111000110010000000000000000000000000000000
0000100000000000000000000000000000000000000000000000000000000000000000
0001111111100110011100110010000000000000000000000000000000000010000000
0000000000000000000000000000000000000000000000000000000000000011111111
0111011111110010000000000000000000000000000000000010000000000000000000
0000000000000000000000000000000000000000000000000001111111011100111110
0010000000000000000000000000000000000010000000000000000000000000000000
0000000000000000000000000000000000000000011110000000000000001000000000
0000000000000000000000000010000000000000000000000000000000000000000000
0000000000000000000000000000000000000000000000001000000000000000000000
0000000000000010000000000000000000000000000000000000000000000000000000
0000000000000000000000000000000000001000000000000000000000000000000000
0010000000000000000000000000000000000000000000000000000000000000000000
0000000000000000000000001000000000000000000000000000000000001000000000
0000000000000000000000000000000000000000000000000000000000000000000000
0000000000001000000000000000000000000000000000001000000000000000000000
0000000000000000000000000000000000000000000000000000000000000000000000
1000000000000000000000000000000000001000000000000000000000000000000000
0000000000000000000000000000000000000000000000000000000000100000000000
0000000000000000000000001000000000000000000000000000000000000000000000
0000000000000000000000000000000000000000000000100000000000000000000000
0000000000001000000000000000000000000000000000000000000000000000000000
0000000000000000000000000000000000100000000000000000000000000000000000
1000000000000000000000000000000000000000000000000000000000000000000000
0000000000000000000000100000000000000000000000000000000000100000000000
0000000000000000000000000000000000000000000000000000000000000000000000
0000000000100000000000000000000000000000000000100000000000000000000000
0000000000000000000000000000000000000000000000000000000000000000000010
0000000000000000000000000000000000100000000000000000000000000000000000
0000000000000000000000000000000000000000000000000000000010000000000000
0000000000000000000000100000000000000000000000000000000000000000000000
0000000000000000000000000000000000000000000010000000000000000000000000
0000000000100000000000000000000000000000000000000000000000000000000000
0000000000000000000000000000000010000000000000000000000000000000000010
0000000001111110000000000000000000000000000000000000000000000000000000
0000111110000000000010000000000000000000000000000000000010000000001111
1111100000000000000000000000000000000000000000000000000000001111111110
0000000010000000000000000000000000000000000010000000001111111111100000
0000000000000000000000000000000000000000000000111111111110000000001000
0000000000000000000000000000000010000000001111111111110000000000000000
0000000000000000000000000000000011111111111110000000001000000000000000
0000000000000000000010000000001111111111111000000000000000000000000000
0000000000000000000111111111111110000000001000000000000000000000000000
0000000010000000001111111111111110000000000000000000000000000000000000
0000001111111111111110000000001000000000000000000000000000000000001000
0000000111111111111111100000000000000000000000000000000000000011111111
1111111100000000001000000000000000000000000000000000001000000000011111
1111111111100000000000000000000000000000000000000011111111111111110000
0000001000000000000000000000000000000000001000000000111111111111111000
0000000000000000000000000000000000000000111111111111111000000000100000
0000000000000000000000000000001000000000111111111111110000000000000000
0000000000000000000000000000011111111111111000000000100000000000000000
0000000000000000001000000000111111111111000000000000000000000000000000
0000000000000000000111111111111000000000100000000000000000000000000000
0000001000000000111111111110000000000000000000000000000000000000000000
0000000011111111111000000000100000000000000000000000000000000000100000
0000111111111100000000000000000000000000000000000000000000000000000111
1111111000000000100000000000000000000000000000000000100000000001111111
0000000000000000000000000000000000000000000000000000000001111111000000
0000100000000000000000000000000000000000100000000000011000000000000000
0000000000000000000000000000000000000000000000011100000000000010000000
0000000000000000000000000000100000000000000000000000000000000000000000
0000000000000000000000000000000000000000000000000010000000000000000000
0000000000000000100000000000000000000000000000000000000000000000000000
0000000000000000000000000000000000000010000000000000000000000000000000
0000100000000000000000000000000000000000000000000000000000000000000000
0000000000000000000000000010000000000000000000000000000000000010000000
0000000000000000000000000000000000000000000000000000000000000000000000
0000000000000010000000000000000000000000000000000010000000000000000000
0000000000000000000000000000000000000000000000000000000000000000000000
0010000000000000000000000000000000000010000000000000000000000000000000
0000000000000000000000000000000000000000000000000000000000001000000000
0000000000000000000000000010000000000000000000000000000000000000000000
0000000000000000000000000000000000000000000000001000000000000000000000
0000000000000010000000000000000000000000000000000000000000000000000000
0000000000000000000000000000000000001000000000000000000000000000000000
0010000000000000000000000000000000000000000000000000000000000000000000
0000000000000000000000001000000000000000000000000000000000001000000000
0000000000000000000000000000000000000000000000000000000000000000000000
0000000000001000000000000000000000000000000000001000000000000000000000
0000000000000000000000000000000000000000000000000000000000000000000000
1000000000000000000000000000000000001000000000000000000000000000000000
0000000000000000000000000000000000000000000000000000000000100000000000
0000000000000000000000001000000000000000000000000000000000000000000000
0000000000000000000000000000000000000000000000100000000000000000000000
0000000000001000000000000000000000000000000000000000000000000000000000
0000000000000000000000000000000000100000000000000000000000000000000000
1000111100011100111100000000000000000000000000000000000000000000000000
0000000000000000000000100000000000000000000000000000000000100011111001
1101111111000000000000000000000000000000000000000000000000000000000000
0000000000100000000000000000000000000000000000100111011100110111111110
0000000000000000000000000000000000000000000000000000000000000000000010
0000000000000000000000000000000000100110001110110011111111000000000000
0000000000000000000000000000000000000000000000000000000010000000000000
0000000000000000000000100111000111110111111110000000000000000000000000
0000000000000000000000000000000000000000000010000000000000000000000000
0000000000100011100011110111111100000000000000000000000000000000000000
0000000000000000000000000000000010000000000000000000000000000000000010
0001100001110011110000000000000000000000000000000000000000000000000000
0000000000000000000010000000000000000000000000000000000010000000000000
0000000000000000000000000000000000000000000000000000000000000000000000
0000000010000000000000000000000000000000000011000000000000000000000000
0000000000000000000000000000000000000000000000000000000000000000011000
0000000000000000000000000000000001111111111111111111111111111111111111
1111111111111111111111111111111111111111111111111111110000000000000000
00