P1
# Created by GIMP version 3.0.4 PNM plug-in
128 64
0000000000000000000001111111111111111111111111111111111111111111111111
1111111111111111111111111111111111111100000000000000000000000000000000
0000000011000000000000000000000000000000000000000000000000000000000000
0000000000000000000000000110000000000000000000000000000000000000001000
0000000000000000000000000000000000000000000000000000000000000000000010
0000110000110010000000000000000000000000000000000000001000000000000000
0000000000000000000000000000000000000000000000000000000111000010100001
0010000000000000000000000000000000000000001000000000000000000000000000
0000000000000000000000000000000000000000001111000010110001001000000000
0000000000000000000000000000001000000000000000000000000000000000000000
0000000000000000000000000000010111110010011001001000000000000000000000
0000000000000000001000000000000000000000000000000000000000000000000000
0000000000000000011111111011001111001000000000000000000000000000000000
0000001000000000000000000000000000000000000000000000000000000000000000
0000010111110000000000001000000000000000000000000000000000000000100000
0000000000000000000000000000000000000000000000000000000000000000111100
0000000000001000000000000000000000000000000000000000100000000000000000
0000000000000000000000000000000000000000000000000000011100000000000000
1000000000000000000000000000000000000000100000000000000000000000000000
0000000000000000000000000000000000000000001000000000000000100000000000
0000000000000000000000000000100000000000000000000000000000000000000000
0000000000000000000000000000000000000000000000100000000000000000000000
0000000000000000100000000000000000000000000000000000000000000000000000
0000000000000000000000000000000000100000000000000000000000000000000000
0000100000000000000000000000000000000000000000000000000000000000000000
0000000000000000000000100000000000000000000000000000000000000010000000
0000000000000000000000000000000000000000000000000000000000000000000000
0000000000100000000000000000000000000000000000000010000000000000000000
0000000000000000000000000000000000000000000000000000000000000000000010
0000000000000000000000000000000000000010000000000000000000000000000000
0000000000000000000000000000000000000000000000000000000010000000000000
0000000000000000000000000010000000000000000000000000000000000000000000
0000000000000000000000000000000000000000000010000000000000000000000000
0000000000000010000000000000000000000000000000000000000000000000000000
0000000000000000000000000000000010000000000000000000000000000000000000
0010000000000000000000000000000000000000000000000000000000000000000000
0000000000000000000010000000000000000000000000000000000000001000000000
0000000000000000000000000000000000000000000000000000000000000000000000
0000000010000000000000000000000000000000000000001000000000000000000000
0000000000000000000000000000000000000000000000000000000000000000001000
0000000000000000000000000000000000001000000000000000000000000000000000
0000000000000000000000000000000000000000000000000000001000000000000000
0000000000000000000000001000000000000000000000000000000000000000000000
0000000000000000000000000000000000000000001000000000000000000000000000
0000000000001000000000000000000000000000000000000000000000000000000000
0000000000000000000000000000001000000000000000000000000000000000000000
1000000000000000000000000000000000000000000000000000000000000000000000
0000000000000000001000000000000000000000000000000000000000100000000000
0000011110000000000000000000000000000000000000000000000001111000000000
0000001000000000000000000000000000000000000000100000000000000011111100
0000000000000000000000000000000000000000000011111100000000000000100000
0000000000000000000000000000000000100000000000000011111110000000000000
0000000000000000000000000000000111111100000000000000100000000000000000
0000000000000000000000100000000000111111111110000000000000000000000000
0000000000000000000111111111110000000000100000000000000000000000000000
0000000000100000000001111111111100110000000000000000000000000000000000
0000110011111111111000000000100000000000000000000000000000000000000010
0000000001111111111111110000000000000000000000000000000000000011111111
1111111000000000100000000000000000000000000000000000000010000000000111
1111111111110000000000000000000000000000000000000011111111111111100000
0000100000000000000000000000000000000000000010000000000111111111110011
0000000000000000000000000000000000000011001111111111100000000010000000
0000000000000000000000000000000010000000000011111111111000000000000000
0000000000000000000000000000011111111111000000000010000000000000000000
0000000000000000000010000000000000001111111000000000000000000000000000
0000000000000000011111110000000000000010000000000000000000000000000000
0000000010000000000000001111110000000000000000000000000000000000000000
0000001111110000000000000010000000000000000000000000000000000000001000
0000000000000111100000000000000000000000000000000000000000000000011110
0000000000000010000000000000000000000000000000000000001000000000000000
0000000000000000000000000000000000000000000000000000000000000000000000
0010000000000000000000000000000000000000001000000000000000000000000000
0000000000000000000000000000000000000000000000000000000000001000000000
0000000000000000000000000000001000000000000000000000000000000000000000
0000000000000000000000000000000000000000000000001000000000000000000000
0000000000000000001000000000000000000000000000000000000000000000000000
0000000000000000000000000000000000001000000000000000000000000000000000
0000001000000000000000000000000000000000000000000000000000000000000000
0000000000000000000000001000000000000000000000000000000000000000100000
0000000000000000000000000000000000000000000000000000000000000000000000
0000000000001000000000000000000000000000000000000000100000000000000000
0000000000000000000000000000000000000000000000000000000000000000000000
1000000000000000000000000000000000000000100000000000000000000000000000
0000000000000000000000000000000000000000000000000000000000100000000000
0000000000000000000000000000100000000000000000000000000000000000000000
0000000000000000000000000000000000000000000000100000000000000000000000
0000000000000000100000000000000000000000000000000000000000000000000000
0000000000000000000000000000000000100000000000000000000000000000000000
0000100000000000000000000000000000000000000000000000000000000000000000
0000000000000000000000100000000000000000000000000000000000000010000000
0000000000000000000000000000000000000000000000000000000000000000000000
0000000000100000000000000000000000000000000000000010000000000000000000
0000000000000000000000000000000000000000000000000000000000000000000010
0000000000000000000000000000000000000010000000000000000000000000000000
0000000000000000000000000000000000000000000000000000000010000000000000
0000000000000000000000000010000000000000000000000000000000000000000000
0000000000000000000000000000000000000000000010000000000000000000000000
0000000000000010000000000000000100000000000000000000000000000000000000
0000000000000000000000000000000010000000000000000000000000000000000000
0010000000000000001110000000000000000000000000000000000000000000000000
0000000000000000000010000000000000000000000000000000000000001000000000
0000001111000000000000000000000000000000000000000000000000000000000000
0000000010000000000000000000000000000000000000001000111000110011111010
0000000000000000000000000000000000000000000000000000000000000000001000
0000000000000000000000000000000000001001001100010111111110000000000000
0000000000000000000000000000000000000000000000000000001000000000000000
0000000000000000000000001001000110010011111010000000000000000000000000
0000000000000000000000000000000000000000001000000000000000000000000000
0000000000001001000011010000111100000000000000000000000000000000000000
0000000000000000000000000000001000000000000000000000000000000000000000
1000110000110000111000000000000000000000000000000000000000000000000000
0000000000000000001000000000000000000000000000000000000000100000000000
0000010000000000000000000000000000000000000000000000000000000000000000
0000001000000000000000000000000000000000000000110000000000000000000000
0000000000000000000000000000000000000000000000000000000000000001100000
0000000000000000000000000000000000011111111111111111111111111111111111
1111111111111111111111111111111111111111111111111111000000000000000000
00